<svg height="512" viewBox="0 0 256 256" width="512" xmlns="http://www.w3.org/2000/svg"><g id="Layer_28"><g><g><path d="m222.737 70.144h-41.938c-1.863 8.63-4.434 16.662-7.382 24.01-10.408 25.941-45.906 29.105-60.98 5.567-5.884-9.188-6.846-20.054-3.669-29.578h-75.505c-7.258 0-13.196 5.938-13.196 13.197v90.357c0 7.258 5.938 13.196 13.196 13.196h189.473c7.258 0 13.196-5.938 13.196-13.196v-90.357c.001-7.258-5.937-13.196-13.195-13.196z" fill="#edf4fc"/></g><g><path d="m20.067 157.22v16.478c0 7.258 5.938 13.196 13.196 13.196h189.473c7.258 0 13.196-5.938 13.196-13.196v-16.478z" fill="#c7d7e5"/></g><g><path d="m38.823 157.22h178.354v29.674h-178.354z" fill="#5290db"/></g><g><path d="m125.387 50.623c21.933-11.442 36.017-31.812 43.398-45.219 2.568-4.664 9.501-3.777 10.812 1.382 8.69 34.204 3.121 64.179-6.181 87.367-10.408 25.941-45.906 29.105-60.98 5.567-10.888-17.001-4.949-39.759 12.951-49.097z" fill="#87d147"/></g><g><path d="m134.013 249.525c-3.1-.6-5.6-3-6.2-6.1 0-.1-.3-.1-.3 0-.6 3.1-3.1 5.5-6.2 6.1-.1 0-.1.2 0 .3 3.1.6 5.6 3 6.2 6.1 0 .1.3.1.3 0 .6-3.1 3.1-5.5 6.2-6.1.1-.1.1-.3 0-.3z" fill="#87d147"/></g><g><path d="m27.013 233.5h2.3v2.3c0 1.8 1.4 3.2 3.2 3.2 1.7 0 3.2-1.4 3.2-3.1v-.1-2.3h2.3c1.8 0 3.2-1.4 3.2-3.2 0-1.7-1.4-3.2-3.1-3.2h-.1-2.3v-2.3c0-1.8-1.4-3.2-3.2-3.2-1.7 0-3.2 1.4-3.2 3.1v.1 2.3h-2.3c-1.8 0-3.2 1.4-3.2 3.2-.1 1.7 1.3 3.2 3.2 3.2-.1 0-.1 0 0 0z" fill="#fc657e"/></g><g><circle cx="217.413" cy="215.9" fill="#f5c84c" r="3.4"/></g><g><circle cx="210.413" cy="16.4" fill="#70d6f9" r="3.4"/></g><g><path d="m38.813 42.2c4.5-.8 8-4.3 8.9-8.7 0-.2.4-.2.4 0 .9 4.4 4.4 7.9 8.9 8.7.2 0 .2.3 0 .4-4.5.8-8 4.3-8.9 8.7 0 .2-.4.2-.4 0-.9-4.4-4.4-7.9-8.9-8.7-.2-.1-.2-.4 0-.4z" fill="#f5c84c"/></g><g><path d="m234.474 138.64h-214.407c-1.381 0-2.5-1.119-2.5-2.5s1.119-2.5 2.5-2.5h214.407c1.381 0 2.5 1.119 2.5 2.5s-1.12 2.5-2.5 2.5z"/></g><g><path d="m215.988 174.313h-175.976c-1.381 0-2.5-1.119-2.5-2.5s1.119-2.5 2.5-2.5h175.977c1.381 0 2.5 1.119 2.5 2.5s-1.12 2.5-2.501 2.5z"/></g><g><path d="m222.736 189.394h-189.473c-8.655 0-15.696-7.042-15.696-15.696v-90.358c0-8.655 7.042-15.696 15.696-15.696h75.504c.804 0 1.559.386 2.028 1.039.47.652.598 1.49.343 2.252-3.083 9.246-1.843 19.247 3.403 27.438 6.599 10.305 17.837 15.769 30.034 14.618 12.099-1.141 22.013-8.531 26.521-19.768 3.107-7.744 5.549-15.687 7.259-23.607.248-1.151 1.266-1.973 2.443-1.973h41.938c8.655 0 15.697 7.042 15.697 15.696v90.357c.001 8.657-7.041 15.698-15.697 15.698zm-189.473-116.75c-5.898 0-10.696 4.798-10.696 10.696v90.357c0 5.898 4.798 10.696 10.696 10.696h189.473c5.898 0 10.697-4.798 10.697-10.696v-90.357c0-5.898-4.799-10.696-10.697-10.696h-39.935c-1.738 7.539-4.111 15.078-7.065 22.441-5.219 13.008-16.692 21.563-30.691 22.884-13.894 1.31-27.199-5.165-34.714-16.899-5.447-8.504-7.159-18.696-4.87-28.426z"/></g><g><path d="m114.341 224c-.955 0-1.867-.55-2.283-1.478-2.295-5.123-1.031-8.946-.016-12.018.934-2.822 1.671-5.051.169-8.402-.565-1.26-.001-2.739 1.259-3.304 1.259-.565 2.739-.001 3.304 1.259 2.295 5.123 1.031 8.946.016 12.018-.934 2.822-1.671 5.051-.169 8.402.565 1.26.001 2.739-1.259 3.304-.332.149-.679.219-1.021.219z"/></g><g><path d="m154.674 224c-.955 0-1.866-.55-2.282-1.478-2.296-5.123-1.031-8.946-.016-12.018.934-2.822 1.671-5.051.17-8.402-.564-1.26-.001-2.739 1.259-3.304 1.261-.565 2.738-.001 3.304 1.259 2.296 5.123 1.031 8.946.016 12.018-.934 2.822-1.671 5.051-.17 8.402.564 1.26.001 2.739-1.259 3.304-.333.149-.68.219-1.022.219z"/></g><g><path d="m181.841 224c-.955 0-1.866-.55-2.282-1.478-2.296-5.123-1.031-8.945-.016-12.017.934-2.822 1.671-5.051.169-8.403-.564-1.26-.001-2.739 1.259-3.304 1.261-.565 2.738-.001 3.304 1.259 2.296 5.123 1.032 8.946.016 12.018-.933 2.822-1.67 5.051-.169 8.402.564 1.26.001 2.739-1.259 3.304-.333.149-.68.219-1.022.219z"/></g><g><path d="m101.174 224c-.955 0-1.867-.55-2.283-1.478-2.295-5.123-1.031-8.946-.015-12.018.934-2.822 1.671-5.051.169-8.402-.565-1.26-.001-2.739 1.259-3.304 1.259-.565 2.739-.001 3.304 1.259 2.295 5.123 1.031 8.946.015 12.018-.934 2.822-1.671 5.051-.169 8.402.565 1.26.001 2.739-1.259 3.304-.332.149-.679.219-1.021.219z"/></g><g><path d="m74.008 224c-.955 0-1.867-.55-2.283-1.478-2.295-5.123-1.031-8.946-.016-12.018.934-2.822 1.671-5.051.169-8.402-.565-1.26-.001-2.739 1.259-3.304s2.739-.001 3.304 1.259c2.295 5.123 1.031 8.946.016 12.018-.934 2.822-1.671 5.051-.169 8.402.565 1.26.001 2.739-1.259 3.304-.332.149-.679.219-1.021.219z"/></g><g><path d="m60.841 224c-.955 0-1.867-.55-2.283-1.478-2.295-5.123-1.031-8.946-.016-12.018.934-2.822 1.671-5.051.169-8.402-.565-1.26-.001-2.739 1.259-3.304s2.74-.001 3.304 1.259c2.295 5.123 1.031 8.946.016 12.018-.934 2.822-1.671 5.051-.169 8.402.565 1.26.001 2.739-1.259 3.304-.332.149-.679.219-1.021.219z"/></g><g><path d="m141.508 224c-.955 0-1.866-.55-2.282-1.478-2.296-5.123-1.032-8.946-.016-12.018.933-2.822 1.67-5.051.169-8.402-.564-1.26-.001-2.739 1.259-3.304 1.261-.565 2.738-.001 3.304 1.259 2.296 5.123 1.031 8.945.016 12.017-.934 2.822-1.671 5.051-.169 8.403.564 1.26.001 2.739-1.259 3.304-.333.149-.68.219-1.022.219z"/></g><g><path d="m195.008 224c-.955 0-1.866-.55-2.282-1.478-2.296-5.123-1.032-8.946-.016-12.018.933-2.822 1.67-5.051.169-8.402-.564-1.26-.001-2.739 1.259-3.304 1.261-.565 2.738-.001 3.304 1.259 2.296 5.123 1.031 8.945.016 12.017-.934 2.822-1.671 5.051-.169 8.403.564 1.26.001 2.739-1.259 3.304-.333.149-.68.219-1.022.219z"/></g><g><path d="m109.13 113.922c-.83 0-1.641-.413-2.117-1.167-.737-1.167-.388-2.711.78-3.448 42.871-27.054 56.27-64.699 56.4-65.077.452-1.304 1.873-2 3.18-1.546 1.306.451 1.997 1.875 1.547 3.18-.556 1.607-14.117 39.689-58.458 67.671-.415.262-.876.387-1.332.387z"/></g><g><path d="m133.366 94.078c-.858 0-1.694-.443-2.16-1.238-6.284-10.741-3.995-22.484-3.894-22.979.275-1.353 1.594-2.226 2.948-1.952 1.352.274 2.225 1.591 1.953 2.942-.021.103-1.987 10.412 3.31 19.463.697 1.192.296 2.723-.896 3.42-.397.234-.832.344-1.261.344z"/></g><g><path d="m168.602 71.906c-.049 0-.099-.001-.148-.004l-12.883-.756c-1.378-.081-2.43-1.264-2.35-2.642.081-1.378 1.243-2.437 2.643-2.349l12.883.756c1.378.081 2.43 1.264 2.35 2.642-.079 1.328-1.181 2.353-2.495 2.353z"/></g><g><path d="m105.443 33.386h-4.367c-4.388 0-7.958-3.57-7.958-7.959v-17.468c0-4.389 3.57-7.959 7.958-7.959h4.367c4.388 0 7.958 3.57 7.958 7.959 0 1.381-1.119 2.5-2.5 2.5s-2.5-1.119-2.5-2.5c0-1.632-1.327-2.959-2.958-2.959h-4.367c-1.631 0-2.958 1.327-2.958 2.959v17.468c0 1.632 1.327 2.959 2.958 2.959h4.367c1.631 0 2.958-1.327 2.958-2.959 0-1.381 1.119-2.5 2.5-2.5s2.5 1.119 2.5 2.5c0 4.388-3.57 7.959-7.958 7.959z"/></g><g><g><path d="m87.529 33.386h-13.155c-1.381 0-2.5-1.119-2.5-2.5v-28.386c0-1.381 1.119-2.5 2.5-2.5h13.155c1.381 0 2.5 1.119 2.5 2.5s-1.119 2.5-2.5 2.5h-10.655v23.386h10.655c1.381 0 2.5 1.119 2.5 2.5s-1.119 2.5-2.5 2.5z"/></g><g><path d="m84.2 18.047h-9.826c-1.381 0-2.5-1.119-2.5-2.5s1.119-2.5 2.5-2.5h9.826c1.381 0 2.5 1.119 2.5 2.5s-1.119 2.5-2.5 2.5z"/></g></g><g><path d="m129.88 33.386h-4.367c-4.389 0-7.959-3.57-7.959-7.959v-17.468c0-4.389 3.57-7.959 7.959-7.959h4.367c4.388 0 7.958 3.57 7.958 7.959v17.468c0 4.388-3.57 7.959-7.958 7.959zm-4.367-28.386c-1.631 0-2.959 1.327-2.959 2.959v17.468c0 1.632 1.328 2.959 2.959 2.959h4.367c1.631 0 2.958-1.327 2.958-2.959v-17.468c0-1.632-1.327-2.959-2.958-2.959z"/></g><g><path d="m222.736 189.394h-189.473c-8.655 0-15.696-7.042-15.696-15.697v-16.477c0-1.381 1.119-2.5 2.5-2.5h215.867c1.381 0 2.5 1.119 2.5 2.5v16.478c0 8.655-7.042 15.696-15.698 15.696zm-200.169-29.674v13.978c0 5.898 4.798 10.697 10.696 10.697h189.473c5.898 0 10.697-4.798 10.697-10.697v-13.978z"/></g><g><path d="m217.177 189.394h-178.354c-1.381 0-2.5-1.119-2.5-2.5v-29.674c0-1.381 1.119-2.5 2.5-2.5h178.354c1.381 0 2.5 1.119 2.5 2.5v29.674c0 1.381-1.119 2.5-2.5 2.5zm-175.854-5h173.354v-24.674h-173.354z"/></g><g><path d="m141.503 118.136c-12.584 0-24.298-6.333-31.172-17.066-5.594-8.735-7.272-19.494-4.604-29.519 2.65-9.957 9.395-18.393 18.503-23.145 20.902-10.904 34.575-30.059 42.364-44.208 1.67-3.031 4.971-4.702 8.387-4.267 3.425.438 6.188 2.887 7.039 6.239 7.562 29.758 5.446 59.673-6.284 88.913-5.219 13.009-16.692 21.564-30.691 22.884-1.186.114-2.368.169-3.542.169zm-14.96-65.297c-7.983 4.165-13.66 11.267-15.984 19.999-2.309 8.672-.857 17.979 3.982 25.535 6.599 10.305 17.837 15.769 30.034 14.618 12.099-1.141 22.013-8.531 26.521-19.768 11.328-28.236 13.374-57.11 6.079-85.821-.523-2.061-2.297-2.443-2.828-2.511-.529-.068-2.346-.144-3.372 1.719-8.121 14.753-22.423 34.749-44.432 46.229z"/></g></g></g></svg>