<svg id="Layer_1" height="512" viewBox="0 0 512 512" width="512" xmlns="http://www.w3.org/2000/svg" data-name="Layer 1"><path d="m173 326.82v40.18h131v-40.14z" fill="#5e6572"/><path d="m102.17 75 26.57 33.59 28.09 180.045 162.135.137 29.035-213.772z" fill="#a0eaea"/><path d="m313.54 44v3.63h-177.18v-3.63a28 28 0 0 1 28-28h121.18a28 28 0 0 1 28 28z" fill="#716a82"/><path d="m203 326.829-30-.009v40.18h30z" fill="#474d56"/><path d="m313.72 365h-150.18c-24.3 0-43.54 19.91-43.54 44.21v52.79h238v-52.79a44.42 44.42 0 0 0 -44.28-44.21z" fill="#7d8595"/><path d="m238.63 399.17a20.135 20.135 0 1 1 -20.14 20.14 20.142 20.142 0 0 1 20.14-20.14z" fill="#e87187"/><path d="m193.54 365h-30c-24.3 0-43.54 19.91-43.54 44.21v52.79h30v-52.79c0-24.3 19.24-44.21 43.54-44.21z" fill="#606875"/><path d="m318.1 288.68-160.87-.04-.4.06 6.1 39.12 150.61.04 5.29-39.08z" fill="#86bdce"/><path d="m360.01 461h-242.77a20.281 20.281 0 0 0 -20.24 20.38v14.62h283v-14.62a20.07 20.07 0 0 0 -19.99-20.38z" fill="#5e6572"/><path d="m147.24 461h-30a20.281 20.281 0 0 0 -20.24 20.38v14.62h30v-14.62a20.281 20.281 0 0 1 20.24-20.38z" fill="#474d56"/><path d="m194.36 16h-30c-15.47 0-28.36 12.54-28.36 28v4h30v-4c0-15.46 12.89-28 28.36-28z" fill="#605c6d"/><path d="m330.95 46h-212.18a27.5 27.5 0 0 0 -27.77 27.63v1.37h268v-1.37a27.734 27.734 0 0 0 -28.05-27.63z" fill="#978cac"/><path d="m148.77 46h-30a27.5 27.5 0 0 0 -27.77 27.63v1.37h30v-1.37a27.5 27.5 0 0 1 27.77-27.63z" fill="#787189"/><g fill="#284268"><path d="m166.254 146.479a6 6 0 0 0 -11.853 1.876l11.852 74.875a6 6 0 1 0 11.852-1.876z"/><path d="m158.079 133.214a6 6 0 0 0 4.988-6.864l-.756-4.775a6 6 0 0 0 -11.852 1.876l.756 4.775a6 6 0 0 0 5.919 5.063 6.086 6.086 0 0 0 .945-.075z"/><path d="m238.625 445.44a26.133 26.133 0 1 0 -26.133-26.132 26.163 26.163 0 0 0 26.133 26.132zm0-40.266a14.133 14.133 0 1 1 -14.133 14.134 14.151 14.151 0 0 1 14.133-14.134z"/><path d="m90.771 81h8.5l23.784 30.082 33.945 217.6a6.09 6.09 0 0 0 5.927 5.176h4.074v25.142h-3.464c-27.571 0-49.537 22.641-49.537 50.211v47.089a26.5 26.5 0 0 0 -23 26.08v13.62a5.913 5.913 0 0 0 5.9 6h283.453a5.708 5.708 0 0 0 5.647-6v-13.619c0-13.27-10-24.274-22-26.08v-47.09a50.482 50.482 0 0 0 -50.285-50.211h-3.715v-25h3.542a6.111 6.111 0 0 0 5.946-5.32l7.25-53.68h48.906a51.351 51.351 0 0 0 51.356-51.471v-106.072c0-3.314-2.458-6.457-5.771-6.457h-72.341l4.087-30h6.153a5.675 5.675 0 0 0 5.872-5.74v-1.63a33.614 33.614 0 0 0 -33.872-33.63h-11.875a34.1 34.1 0 0 0 -33.709-30h-121.188a34.1 34.1 0 0 0 -33.709 30h-11.876a33.529 33.529 0 0 0 -33.771 33.63v1.63a5.591 5.591 0 0 0 5.771 5.74zm283.229 401.381v7.619h-271v-7.619a14.3 14.3 0 0 1 14.239-14.381h242.773a14.092 14.092 0 0 1 13.988 14.381zm-60.285-111.381a38.469 38.469 0 0 1 38.285 38.211v46.789h-226v-46.789c0-20.953 16.582-38.211 37.536-38.211zm-134.715-12v-25.127l119 .112v25.015zm129.3-37.138-140.237-.038-4.242-27.184 148.158.039zm5.3-39.313-151.654.026-27.279-174.811a6.416 6.416 0 0 0 -1.229-2.92l-18.844-23.844h226.271zm101.4-159.549v100.529a39.338 39.338 0 0 1 -39.356 39.471h-47.282l18.9-140zm-250.644-101h121.188c10.635 0 19.53 8 21.562 18h-164.312c2.032-10 10.927-18 21.562-18zm-45.585 30h212.357c10.636 0 19.532 7 21.565 17h-255.486c2.033-10 10.929-17 21.564-17z"/></g></svg>