<svg height="512" viewBox="0 0 64 64" width="512" xmlns="http://www.w3.org/2000/svg"><g id="Color"><g clip-rule="evenodd" fill-rule="evenodd"><path d="m52.352 24.006h5.301c1.305 0 2.354 1.049 2.354 2.324v.34c0 1.275-1.049 2.324-2.354 2.324-1.672 0-5.301 0-5.301 0z" fill="#6595cd"/><path d="m11.648 24.006s-3.629 0-5.301 0c-1.305 0-2.354 1.049-2.354 2.324v.34c0 1.275 1.049 2.324 2.354 2.324h5.301z" fill="#6595cd"/><g fill="#534d48"><path d="m21.002 53.855c-1.105 0-1.984.879-1.984 1.984v2.154c0 1.105.879 2.012 1.984 2.012 1.105 0 2.012-.906 2.012-2.012v-2.153c0-1.106-.907-1.985-2.012-1.985z"/><path d="m42.998 53.855c1.105 0 2.014.879 2.014 1.984v2.154c0 1.105-.908 2.012-2.014 2.012-1.105 0-1.984-.906-1.984-2.012v-2.153c0-1.106.879-1.985 1.984-1.985z"/></g><path d="m53.998 24.006-21.998-3.004-21.996 3.004v23.867c0 2.154.85 4.225 2.381 5.756 1.531 1.502 3.6 2.381 5.754 2.381h27.723c2.154 0 4.225-.879 5.754-2.381 1.531-1.531 2.383-3.602 2.383-5.756-.001-9.496-.001-23.867-.001-23.867z" fill="#ffc357"/><path d="m24.998 41.156c0-1.73 1.418-3.146 3.176-3.146h7.682c1.729 0 3.146 1.416 3.146 3.146v5.668c0 1.758-1.418 3.176-3.146 3.176-2.297 0-5.385 0-7.682 0-1.758 0-3.176-1.418-3.176-3.176 0-1.728 0-3.91 0-5.668z" fill="#6595cd"/><g><path d="m53.998 15.189c0-1.898-.738-3.74-2.098-5.072-1.361-1.361-3.176-2.127-5.074-2.127-8.193 0-21.459 0-29.623 0-1.898 0-3.742.766-5.102 2.127-1.332 1.332-2.098 3.174-2.098 5.072v2.807l21.997 3.006 21.998-3.006s0-1.219 0-2.807z" fill="#6595cd"/><g fill="#5e5955"><path d="m41.014 6.459c0-.652-.254-1.275-.736-1.729-.453-.482-1.076-.736-1.758-.736-3.43 0-9.609 0-13.039 0-.652 0-1.275.254-1.758.736-.453.453-.709 1.076-.709 1.729v1.531h18s0-.709 0-1.531z"/><path d="m57.002 22.078c0 .51-.199.992-.566 1.361-.34.367-.852.566-1.361.566-7.938 0-38.182 0-46.148 0-.51 0-.992-.199-1.359-.566-.369-.369-.568-.852-.568-1.361 0-.68 0-1.475 0-2.154 0-.51.199-.992.568-1.359.367-.369.85-.568 1.359-.568h46.148c.51 0 1.021.199 1.361.568.367.367.566.85.566 1.359z"/></g></g></g></g><g id="Outline"><g><path d="m59.997 24.056c-.559-.592-1.338-.942-2.169-1.019.107-.306.174-.627.174-.959v-2.154c0-.778-.305-1.513-.831-2.037-.521-.565-1.285-.891-2.097-.891h-.076v-1.807c0-2.185-.874-4.293-2.391-5.779-1.561-1.561-3.613-2.42-5.781-2.42h-4.813v-.531c0-.947-.373-1.82-1.008-2.413-.637-.679-1.52-1.052-2.486-1.052h-13.039c-.926 0-1.801.365-2.465 1.029-.637.637-1.002 1.524-1.002 2.436v.531h-4.811c-2.156 0-4.273.882-5.809 2.42-1.52 1.52-2.391 3.626-2.391 5.779v1.807h-.076c-.78 0-1.515.307-2.064.859-.557.554-.863 1.288-.863 2.068v2.154c0 .328.065.644.17.945-1.765.095-3.174 1.534-3.174 3.307v.34c0 1.833 1.504 3.324 3.354 3.324h2.656v17.879c0 2.443.949 4.738 2.681 6.47 1.698 1.666 4 2.628 6.333 2.661v.99c0 1.661 1.339 3.012 2.984 3.012 1.661 0 3.012-1.351 3.012-3.012v-.983h16v.984c0 1.661 1.339 3.012 2.984 3.012 1.662 0 3.014-1.351 3.014-3.012v-.992c2.324-.04 4.615-1.001 6.311-2.666 1.726-1.726 2.676-4.021 2.676-6.463v-17.879h2.514c.952 0 1.859-.384 2.442-1.008.668-.627 1.052-1.534 1.052-2.486-.002-.95-.385-1.855-1.011-2.444zm-35.983-17.597c0-.385.151-.757.416-1.021.29-.29.653-.443 1.051-.443h13.039c.414 0 .771.146 1.073.465.271.255.421.61.421 1v.53h-16zm-13.01 8.73c0-1.627.658-3.218 1.806-4.365 1.163-1.166 2.765-1.834 4.394-1.834h29.623c1.634 0 3.185.651 4.374 1.841 1.143 1.12 1.798 2.708 1.798 4.358v1.807h-41.995zm-3.006 4.735c0-.247.095-.473.277-.654.178-.179.403-.273.65-.273h46.148c.246 0 .486.094.654.275.179.179.273.404.273.652v2.154c0 .248-.096.475-.301.682-.14.152-.38.246-.627.246h-1.076-45.07c-.248 0-.474-.095-.652-.273-.18-.181-.275-.406-.275-.654v-2.155zm-1.65 8.07c-.746 0-1.354-.594-1.354-1.324v-.34c0-.73.607-1.324 1.354-1.324h2.578.078v2.988zm15.666 30c0 .558-.454 1.012-1.012 1.012-.543 0-.984-.454-.984-1.012v-.984h1.996zm20.984 1.012c-.543 0-.984-.454-.984-1.012v-.984h1.998v.984c0 .549-.464 1.012-1.014 1.012zm10-11.133c0 1.908-.742 3.701-2.084 5.042-1.354 1.331-3.196 2.095-5.053 2.095h-27.722c-1.854 0-3.696-.764-5.047-2.088-1.347-1.347-2.088-3.14-2.088-5.049v-22.867h41.994zm5.543-20.3c-.248.264-.633.421-1.029.421h-2.514v-2.988h.076 2.438c.396 0 .781.158 1.071.464.269.253.423.629.423 1.03 0 .396-.157.781-.465 1.073z"/><path d="m35.855 37.01h-7.682c-2.303 0-4.176 1.86-4.176 4.146v5.668c0 2.303 1.873 4.176 4.176 4.176h7.682c2.286 0 4.146-1.873 4.146-4.176v-5.668c.001-2.286-1.859-4.146-4.146-4.146zm2.147 9.814c0 1.2-.963 2.176-2.146 2.176h-7.682c-1.2 0-2.176-.976-2.176-2.176v-1.834h9.004c.553 0 1-.447 1-1s-.447-1-1-1h-9.004v-1.834c0-1.184.976-2.146 2.176-2.146h7.682c1.184 0 2.146.963 2.146 2.146z"/><path d="m30.016 39.986h-1.02c-.553 0-1 .447-1 1s.447 1 1 1h1.02c.553 0 1-.447 1-1s-.448-1-1-1z"/><path d="m35.006 39.986h-.992c-.553 0-1 .447-1 1s.447 1 1 1h.992c.553 0 1-.447 1-1s-.447-1-1-1z"/></g></g></svg>