<?xml version="1.0" encoding="iso-8859-1"?>
<!-- Generator: Adobe Illustrator 19.0.0, SVG Export Plug-In . SVG Version: 6.00 Build 0)  -->
<svg version="1.1" id="Capa_1" xmlns="http://www.w3.org/2000/svg" xmlns:xlink="http://www.w3.org/1999/xlink" x="0px" y="0px"
	 viewBox="0 0 512.001 512.001" style="enable-background:new 0 0 512.001 512.001;" xml:space="preserve">
<path style="fill:#4A94CC;" d="M436.03,213.821c-61.468-16.45-112.276,5.456-136.039,19.115
	c-6.111-11.676-16.709-20.617-29.527-24.516c10.436-70.101,79.165-70.55,79.165-70.55l0.016-0.043
	c12.745,0.758,25.828-2.495,37.175-10.273c33.323-22.83,34.84-71.755,2.51-96.474l0.014-0.033
	C353.2-2.854,236.851-9.708,213.943,75.894c-16.451,61.465,5.453,112.272,19.11,136.036c-11.675,6.11-20.616,16.708-24.512,29.527
	c-70.105-10.433-70.554-79.164-70.554-79.164l-0.043-0.016c0.759-12.747-2.497-25.829-10.271-37.176
	c-22.831-33.323-71.76-34.838-96.474-2.509l-0.035-0.016c-33.9,36.146-40.754,152.497,44.848,175.402
	c61.468,16.452,112.273-5.452,136.036-19.111c6.111,11.676,16.71,20.619,29.529,24.512c-10.435,70.107-79.165,70.556-79.165,70.556
	l-0.016,0.043c-12.744-0.758-25.827,2.497-37.175,10.273c-33.321,22.829-34.843,71.739-2.51,96.474l-0.012,0.035
	c36.14,33.895,152.489,40.754,175.397-44.85c16.452-61.472-5.454-112.274-19.112-136.036c11.677-6.112,20.62-16.712,24.513-29.531
	c70.105,10.437,70.556,79.164,70.556,79.164l0.042,0.016c-3.441,57.983,70.823,86.646,106.749,39.687l0.033,0.014
	C514.776,353.081,521.631,236.73,436.03,213.821z M256.02,276.648c-11.458,0-20.746-9.287-20.746-20.746
	c0-11.457,9.288-20.746,20.746-20.746c11.458,0,20.746,9.289,20.746,20.746C276.766,267.361,267.478,276.648,256.02,276.648z"/>
<g>
	<path style="fill:#3587AF;" d="M142.696,472.762l0.012-0.035c-32.998-25.245-30.656-75.531,4.364-97.687
		c-49.943,9.979-65.006,74.59-24.359,105.686l-0.012,0.035c24.791,23.251,87.323,33.775,131.548,10.463
		C212.856,503.249,163.931,492.679,142.696,472.762z"/>
	<path style="fill:#3587AF;" d="M197.757,286.267c-26.437,8.902-61.841,14.393-101.75,3.712
		c-85.602-22.905-78.748-139.257-44.848-175.4l0.035,0.016c4.257-5.569,9.344-10.303,15.609-14.253
		c-13.8,2.759-26.563,10.425-35.604,22.251l-0.035-0.016c-33.9,36.144-40.754,152.495,44.848,175.4
		C127.098,311.651,170.803,298.829,197.757,286.267z"/>
	<path style="fill:#3587AF;" d="M245.199,188.688c-0.011-0.025-0.018-0.049-0.028-0.074c-12.404-27.031-24.733-70.28-11.234-120.718
		c7.194-26.882,23.604-44.64,43.849-55.312c-29.053,8.44-54.397,28.007-63.844,63.31c-16.451,61.465,5.453,112.272,19.11,136.036
		C233.053,211.93,251.583,204.351,245.199,188.688z"/>
	<path style="fill:#3587AF;" d="M394.091,341.523l-0.042-0.016c0,0-0.451-68.726-70.556-79.164
		c-19.097-2.165-19.996,7.998-19.996,7.998c8.205,1.222,16.399,3.412,24.034,6.793c46.17,20.424,46.522,72.371,46.522,72.371
		l0.042,0.016c-2.868,48.339,50.234,79.687,91.136,53.939C426.805,411.141,391.784,380.403,394.091,341.523z"/>
</g>
<path d="M502.65,338.944c-4.043-0.897-8.045,1.661-8.939,5.704c-3.593,16.265-10.087,30.417-17.862,38.969
	c-1.365,1.219-4.794,6.838-12.876,12.375c-35.379,24.242-83.973-2.501-81.389-46.027c0.089-1.502-0.488-20.069-9.757-39.373
	c-8.884-18.503-27.757-41.792-67.222-47.667c-3.68-0.544-7.2,1.682-8.279,5.238c-3.251,10.707-10.838,19.844-20.815,25.066
	c-1.808,0.946-3.15,2.587-3.722,4.546c-0.57,1.959-0.318,4.065,0.698,5.834c13.571,23.611,34.005,71.944,18.37,130.363
	c-26.121,97.605-198.544,72.201-183.157-10.129c4.797-25.68,27.803-43.933,54.256-42.381c11.089,0.65,76.62-6.956,87.042-76.979
	c0.548-3.677-1.682-7.199-5.237-8.279c-10.708-3.251-19.844-10.839-25.065-20.814c-1.972-3.768-6.689-5.146-10.38-3.023
	c-23.611,13.57-71.946,34.005-130.363,18.368c-36.968-9.893-52.056-37.648-58.204-59.191
	c-10.966-38.426-3.117-93.511,29.322-115.733c23.696-16.237,56.183-10.167,72.419,13.531c11.167,16.298,8.736,31.761,9.025,33.922
	c0.153,4.036,1.289,20.42,9.703,37.946c8.883,18.503,27.756,41.792,67.221,47.665c3.679,0.554,7.199-1.681,8.278-5.236
	c3.254-10.709,10.841-19.844,20.814-25.064c3.768-1.971,5.145-6.689,3.024-10.38c-13.57-23.613-34.003-71.949-18.368-130.363
	c9.763-36.48,36.974-51.608,58.084-57.874c3.971-1.179,6.234-5.352,5.055-9.321c-1.178-3.97-5.353-6.237-9.321-5.055
	c-24.782,7.356-56.748,25.189-68.304,68.373c-15.719,58.728,1.955,107.961,16.348,135.336c-8.444,5.996-15.172,14.227-19.339,23.681
	c-36.031-7.672-56.195-35.271-58.233-71.088c2.622-55.257-59.353-89.643-104.882-58.447c-9.457,6.479-13.898,13.011-14.898,14.011
	c-37.818,40.325-42.75,163.389,48.379,187.774c46.524,12.451,93.908,5.437,135.336-16.348c5.997,8.444,14.23,15.174,23.683,19.34
	c-7.672,36.033-35.272,56.196-71.089,58.234c-33.412-1.595-62.875,21.601-69.049,54.64c-3.291,17.615,0.474,35.458,10.602,50.239
	c38.941,56.848,176.401,61.379,201.785-33.477c15.719-58.733-1.956-107.963-16.35-135.336c8.447-5.998,15.175-14.23,19.341-23.683
	c36.541,7.782,56.493,36.26,58.233,71.078c-2.623,55.298,59.359,89.65,104.882,58.457c9.465-6.485,13.899-13.012,14.899-14.012
	c9.903-10.56,17.719-27.061,22.007-46.469C509.247,343.84,506.693,339.838,502.65,338.944z"/>
<path d="M437.967,206.577c-58.732-15.717-107.965,1.958-135.338,16.351c-5.997-8.443-14.228-15.172-23.681-19.342
	c7.692-36.12,35.362-56.181,71.088-58.23c55.706,2.641,89.437-59.652,58.448-104.881c-20.157-29.426-60.546-41.129-96.499-40.447
	c-4.141,0.08-7.432,3.501-7.353,7.642c0.08,4.14,3.534,7.427,7.642,7.353c28.406-0.557,57.007,7.894,71.461,21.052
	c0.311,0.347,0.657,0.67,1.038,0.961c28.33,21.662,26.882,64.411-2.195,84.333c-16.306,11.18-31.792,8.737-33.92,9.026
	c-4.035,0.153-20.42,1.289-37.945,9.702c-18.503,8.883-41.793,27.755-47.667,67.218c-0.548,3.675,1.68,7.197,5.234,8.278
	c10.71,3.257,19.846,10.847,25.066,20.819c1.972,3.768,6.69,5.148,10.38,3.023c23.612-13.571,71.944-34.007,130.366-18.372
	c55.051,14.733,62.253,68.122,62.795,90.392c0.1,4.078,3.436,7.315,7.492,7.315c4.231,0,7.602-3.482,7.5-7.681
	C510.579,257.686,482.95,218.616,437.967,206.577z"/>
<path d="M227.776,255.902c0,15.574,12.67,28.244,28.244,28.244s28.244-12.67,28.244-28.244c0-15.574-12.67-28.244-28.244-28.244
	S227.776,240.328,227.776,255.902z M256.02,242.655c7.305,0,13.247,5.943,13.247,13.247c0,7.305-5.943,13.247-13.247,13.247
	c-7.305,0-13.247-5.943-13.247-13.247C242.773,248.598,248.716,242.655,256.02,242.655z"/>
<g>
</g>
<g>
</g>
<g>
</g>
<g>
</g>
<g>
</g>
<g>
</g>
<g>
</g>
<g>
</g>
<g>
</g>
<g>
</g>
<g>
</g>
<g>
</g>
<g>
</g>
<g>
</g>
<g>
</g>
</svg>
