<svg id="Layer_1" enable-background="new 0 0 512 512" height="512" viewBox="0 0 512 512" width="512" xmlns="http://www.w3.org/2000/svg"><g><g><path clip-rule="evenodd" d="m125.51 123.182c0-11.707-9.581-21.288-21.288-21.288h-22.081-22.081c-11.707 0-21.288 9.581-21.288 21.288v21.317l37.105 24.501 49.633-24.501z" fill="#375e7d" fill-rule="evenodd"/></g><g><path clip-rule="evenodd" d="m463.392 28.817h-40.818c-11.82 0-21.486 9.666-21.486 21.487v9.751 9.751c0 11.821 9.666 21.515 21.486 21.515h40.818v-11.254-39.997z" fill="#375e7d" fill-rule="evenodd"/></g><g><path clip-rule="evenodd" d="m463.392 73.547h-40.818c-11.82 0-21.486-9.666-21.486-21.515v8.022 9.751c0 11.821 9.666 21.515 21.486 21.515h40.818v-11.253z" fill="#2b4d66" fill-rule="evenodd"/></g><g><path clip-rule="evenodd" d="m474.078 144.499h-436.156c-16.752 0-30.415 13.691-30.415 30.416v299.169c0 16.724 13.691 30.416 30.415 30.416h436.156c16.724 0 30.415-13.691 30.415-30.416v-299.169c0-16.725-13.691-30.416-30.415-30.416z" fill="#f37c7c" fill-rule="evenodd"/></g><g><path clip-rule="evenodd" d="m142.149 375.778c53.233 0 96.631-43.399 96.631-96.633s-43.397-96.662-96.631-96.662-96.659 43.427-96.659 96.662 43.426 96.633 96.659 96.633z" fill="#375e7d" fill-rule="evenodd"/></g><g><path clip-rule="evenodd" d="m369.851 375.778c53.233 0 96.631-43.399 96.631-96.633s-43.397-96.662-96.631-96.662-96.659 43.427-96.659 96.662 43.425 96.633 96.659 96.633z" fill="#375e7d" fill-rule="evenodd"/></g><g><path clip-rule="evenodd" d="m125.51 123.182c0-11.707-9.581-21.288-21.288-21.288h-22.081-6.264c11.707 0 21.288 9.581 21.288 21.288v21.317h28.346v-21.317z" fill="#2b4d66" fill-rule="evenodd"/></g><g><path clip-rule="evenodd" d="m238.95 438.084c0-18.567-15.052-33.591-33.59-33.591s-33.561 15.024-33.561 33.591c0 18.539 15.023 33.562 33.561 33.562s33.59-15.023 33.59-33.562z" fill="#f9f7f8" fill-rule="evenodd"/></g><g><path clip-rule="evenodd" d="m340.201 438.084c0-18.567-15.023-33.591-33.59-33.591-18.538 0-33.561 15.024-33.561 33.591 0 18.539 15.023 33.562 33.561 33.562 18.567 0 33.59-15.023 33.59-33.562z" fill="#f9f7f8" fill-rule="evenodd"/></g><g><path clip-rule="evenodd" d="m238.95 438.084c0-18.567-15.052-33.591-33.59-33.591-2.835 0-5.612.34-8.249 1.02 2.948.935 5.726 2.268 8.249 3.912 9.156 6.009 15.222 16.356 15.222 28.12 0 15.704-10.771 28.885-25.341 32.542 3.203 1.02 6.605 1.559 10.119 1.559 18.538 0 33.59-15.023 33.59-33.562z" fill="#e5e4ec" fill-rule="evenodd"/></g><g><path clip-rule="evenodd" d="m340.201 438.084c0-18.567-15.023-33.591-33.59-33.591-2.835 0-5.612.34-8.249 1.02 2.948.935 5.726 2.268 8.249 3.912 9.156 6.009 15.222 16.356 15.222 28.12 0 15.704-10.771 28.885-25.341 32.542 3.203 1.02 6.605 1.559 10.119 1.559 18.567 0 33.59-15.023 33.59-33.562z" fill="#e5e4ec" fill-rule="evenodd"/></g><g><path clip-rule="evenodd" d="m504.493 474.084v-299.169-.368c-.198-16.554-13.804-30.047-30.415-30.047h-58.194c16.724 0 30.415 13.691 30.415 30.416v45.099c12.671 16.356 20.182 36.851 20.182 59.131v.227c-.057 22.167-7.568 42.605-20.182 58.876v135.837c0 16.724-13.691 30.416-30.415 30.416h58.194c16.611 0 30.217-13.493 30.415-30.076z" fill="#e6646e" fill-rule="evenodd"/></g><g><path clip-rule="evenodd" d="m200.797 279.145c0-32.4-26.277-58.649-58.647-58.649-.057 0-.085 0-.113 0-32.343.057-58.534 26.277-58.534 58.649s26.248 58.649 58.647 58.649c32.37 0 58.647-26.277 58.647-58.649zm-58.648-20.665c11.395 0 20.636 9.241 20.636 20.665 0 11.395-9.241 20.636-20.636 20.636-11.423 0-20.664-9.241-20.664-20.636 0-11.424 9.241-20.665 20.664-20.665z" fill="#dddaeb" fill-rule="evenodd"/></g><g><path clip-rule="evenodd" d="m369.851 299.781c-11.395 0-20.664-9.241-20.664-20.636 0-11.424 9.269-20.665 20.664-20.665s20.636 9.241 20.636 20.665c0 11.395-9.241 20.636-20.636 20.636zm58.647-20.636c0-32.372-26.191-58.592-58.534-58.649-.028 0-.085 0-.113 0-32.399 0-58.647 26.249-58.647 58.649 0 32.372 26.248 58.649 58.647 58.649 32.371 0 58.647-26.277 58.647-58.649z" fill="#dddaeb" fill-rule="evenodd"/></g><g><path clip-rule="evenodd" d="m466.482 279.145c0-22.28-7.512-42.775-20.182-59.131-13.209-17.065-32.031-29.594-53.687-34.838 13.266 17.49 22.875 39.26 27.325 63.468 5.442 8.872 8.56 19.332 8.56 30.501s-3.118 21.6-8.56 30.501c-4.45 24.18-14.06 45.95-27.325 63.44 21.656-5.216 40.478-17.745 53.687-34.838 12.614-16.271 20.125-36.709 20.182-58.876z" fill="#2b4d66" fill-rule="evenodd"/></g><g><path clip-rule="evenodd" d="m238.78 279.145c0-45.553-31.492-83.736-73.869-93.969 13.266 17.49 22.875 39.26 27.325 63.468 5.414 8.872 8.56 19.332 8.56 30.501s-3.146 21.6-8.56 30.501c-4.45 24.18-14.06 45.95-27.325 63.44 42.377-10.234 73.869-48.417 73.869-93.941z" fill="#2b4d66" fill-rule="evenodd"/></g><g><path d="m98.355 454.14c-4.142 0-7.5 3.357-7.5 7.5s3.358 7.5 7.5 7.5h27.014c4.142 0 7.5-3.357 7.5-7.5s-3.358-7.5-7.5-7.5z"/><path d="m386.631 454.14c-4.142 0-7.5 3.357-7.5 7.5s3.358 7.5 7.5 7.5h26.985c4.142 0 7.5-3.357 7.5-7.5s-3.358-7.5-7.5-7.5z"/><path d="m504.493 72.567h-33.601v-24.997h33.601c4.142 0 7.5-3.357 7.5-7.5s-3.358-7.5-7.5-7.5h-33.601v-21.045c0-4.143-3.358-7.5-7.5-7.5s-7.5 3.357-7.5 7.5v9.791h-33.318c-15.983 0-28.986 13.004-28.986 28.987v2.265l-53.798.099c-15.268.028-29.397 3.475-29.397 28.278 0 12.104-9.847 21.952-21.951 21.952-12.12 0-21.98-9.848-21.98-21.952v-43.993c0-20.375-16.589-36.952-36.98-36.952-20.375 0-36.951 16.577-36.951 36.952v24.945c0 12.104-9.86 21.951-21.979 21.951s-21.979-9.848-21.979-21.951v-24.945c-.001-20.375-16.577-36.952-36.952-36.952-20.391 0-36.98 16.577-36.98 36.952v57.441h-14.581c-15.874 0-28.788 12.915-28.788 28.789v14.412c-17.745 3.154-31.265 18.682-31.265 37.32v299.169c0 20.908 17.009 37.917 37.915 37.917h201.963c4.142 0 7.5-3.357 7.5-7.5s-3.358-7.5-7.5-7.5h-201.963c-12.635 0-22.915-10.28-22.915-22.916v-299.169c0-12.636 10.28-22.916 22.915-22.916h.85 86.738 114.375c4.142 0 7.5-3.357 7.5-7.5s-3.358-7.5-7.5-7.5h-106.875v-13.816c0-15.874-12.914-28.789-28.788-28.789h-14.581v-57.442c0-12.104 9.86-21.952 21.979-21.952 12.104 0 21.952 9.848 21.952 21.952v24.945c0 20.375 16.589 36.951 36.979 36.951s36.979-16.576 36.979-36.951v-24.945c0-12.104 9.847-21.952 21.951-21.952 12.12 0 21.979 9.848 21.979 21.952v43.994c0 20.375 16.589 36.952 36.98 36.952 20.375 0 36.951-16.577 36.951-36.952 0-5.894.885-9.631 2.629-11.11 2.273-1.928 7.821-2.16 11.795-2.168l53.77-.099v2.237c0 15.999 13.003 29.015 28.986 29.015h33.318v9.792c0 4.143 3.358 7.5 7.5 7.5s7.5-3.357 7.5-7.5v-21.046h33.601c4.142 0 7.5-3.357 7.5-7.5s-3.355-7.5-7.497-7.5zm-386.483 50.616v13.816h-71.738v-13.816c0-7.604 6.185-13.789 13.788-13.789h44.163c7.602 0 13.787 6.185 13.787 13.789zm304.564-39.363c-7.712 0-13.986-6.287-13.986-14.015v-19.501c0-7.713 6.274-13.987 13.986-13.987h33.318v47.503z"/><path d="m306.611 479.146c22.657 0 41.09-18.421 41.09-41.063 0-22.657-18.433-41.091-41.09-41.091-22.642 0-41.062 18.434-41.062 41.091.001 22.643 18.421 41.063 41.062 41.063zm-7.5-66.047v13.561c0 4.143 3.358 7.5 7.5 7.5s7.5-3.357 7.5-7.5v-13.563c10.741 3.23 18.59 13.207 18.59 24.987 0 14.371-11.704 26.063-26.09 26.063-14.371 0-26.062-11.691-26.062-26.063.001-11.777 7.837-21.752 18.562-24.985z"/><path d="m205.36 479.146c22.657 0 41.09-18.421 41.09-41.063 0-22.657-18.433-41.091-41.09-41.091-22.642 0-41.062 18.434-41.062 41.091.001 22.643 18.421 41.063 41.062 41.063zm-7.5-66.047v13.561c0 4.143 3.358 7.5 7.5 7.5s7.5-3.357 7.5-7.5v-13.563c10.741 3.23 18.59 13.207 18.59 24.987 0 14.371-11.704 26.063-26.09 26.063-14.371 0-26.062-11.691-26.062-26.063.001-11.777 7.837-21.752 18.562-24.985z"/><path d="m142.149 307.281c15.514 0 28.135-12.622 28.135-28.137 0-15.529-12.622-28.164-28.135-28.164-15.53 0-28.165 12.635-28.165 28.164.001 15.515 12.636 28.137 28.165 28.137zm0-41.301c7.243 0 13.135 5.905 13.135 13.164 0 7.243-5.893 13.137-13.135 13.137-7.259 0-13.165-5.894-13.165-13.137.001-7.258 5.907-13.164 13.165-13.164z"/><path d="m369.851 250.98c-15.53 0-28.164 12.635-28.164 28.164 0 15.515 12.634 28.137 28.164 28.137 15.514 0 28.136-12.622 28.136-28.137-.001-15.529-12.622-28.164-28.136-28.164zm0 41.301c-7.259 0-13.164-5.894-13.164-13.137 0-7.259 5.905-13.164 13.164-13.164 7.243 0 13.136 5.905 13.136 13.164-.001 7.244-5.893 13.137-13.136 13.137z"/><path d="m474.078 136.999h-199.554c-4.142 0-7.5 3.357-7.5 7.5s3.358 7.5 7.5 7.5h199.554c12.635 0 22.915 10.28 22.915 22.916v299.169c0 12.636-10.28 22.916-22.915 22.916h-199.554c-4.142 0-7.5 3.357-7.5 7.5s3.358 7.5 7.5 7.5h199.554c20.906 0 37.915-17.009 37.915-37.916v-299.169c0-20.907-17.009-37.916-37.915-37.916z"/><path d="m473.977 279.501c.006-.124.019-.245.019-.37 0-.128-.013-.253-.019-.38-.213-57.254-46.839-103.768-104.126-103.768-57.433 0-104.159 46.727-104.159 104.161 0 57.316 46.558 103.962 103.848 104.13.104.004.206.016.31.016s.207-.011.31-.016c57.157-.168 103.624-46.62 103.817-103.773zm-15.315-7.87h-23.103c-3.465-30.489-27.73-54.747-58.223-58.199v-23.131c43.18 3.609 77.706 38.139 81.326 81.33zm-88.605 58.658c-.069-.002-.136-.01-.206-.01s-.137.009-.206.01c-28.045-.112-50.835-22.908-50.936-50.957.002-.063.009-.124.009-.187s-.008-.124-.009-.187c.102-28.117 23.002-50.962 51.142-50.962 28.203 0 51.147 22.945 51.147 51.148 0 28.136-22.834 51.033-50.941 51.145zm-7.721-139.986v23.132c-30.483 3.464-54.738 27.723-58.196 58.209h-23.13c3.615-43.188 38.141-77.72 81.326-81.341zm-81.326 96.342h23.13c3.458 30.491 27.72 54.754 58.21 58.212v23.103c-43.19-3.614-77.724-38.137-81.34-81.315zm96.341 81.315v-23.103c30.495-3.459 54.759-27.728 58.212-58.226h23.102c-3.609 43.184-38.133 77.714-81.314 81.329z"/><path d="m142.135 383.29c.103 0 .203-.011.305-.015 57.284-.158 103.84-46.807 103.84-104.13 0-.004 0-.007 0-.011 0-.001 0-.002 0-.003s0-.003 0-.005c-.01-57.426-46.719-104.143-104.13-104.143-57.434 0-104.159 46.727-104.159 104.161 0 57.31 46.547 103.951 103.829 104.13.105.005.208.016.315.016zm.014-155.294c28.203 0 51.147 22.945 51.147 51.148 0 28.138-22.838 51.038-50.951 51.144-.071-.002-.14-.011-.211-.011-.068 0-.134.008-.201.01-28.103-.117-50.932-23.012-50.932-51.144.001-28.202 22.946-51.147 51.148-51.147zm7.486 139.965v-23.103c30.502-3.453 54.773-27.725 58.226-58.228h23.102c-3.609 43.19-38.141 77.722-81.328 81.331zm81.325-96.33h-23.103c-3.465-30.494-27.738-54.755-58.237-58.201v-23.13c43.186 3.602 77.72 38.135 81.34 81.331zm-96.339-81.327v23.133c-30.477 3.471-54.724 27.726-58.181 58.208h-23.131c3.614-43.184 38.133-77.713 81.312-81.341zm-81.312 96.341h23.13c3.458 30.486 27.712 54.746 58.196 58.21v23.104c-43.185-3.621-77.711-38.141-81.326-81.314z"/></g></g></svg>