<?xml version="1.0" encoding="iso-8859-1"?>
<!-- Generator: Adobe Illustrator 19.0.0, SVG Export Plug-In . SVG Version: 6.00 Build 0)  -->
<svg version="1.1" id="Layer_1" xmlns="http://www.w3.org/2000/svg" xmlns:xlink="http://www.w3.org/1999/xlink" x="0px" y="0px"
	 viewBox="0 0 511.998 511.998" style="enable-background:new 0 0 511.998 511.998;" xml:space="preserve">
<path style="fill:#FFCE54;" d="M444.996,167.498l-27.5-9.5l-30.999,14l-26-10.5l-32.999,7.5l-35.5-7.5l-36,5.25l-26-5.25l-28.5,5.25
	l-37.219-5.25l-33.28,10.5l-28-10.5l-24.5,5v36.5v275.998l24.5,18.5l28.5-11.5l32.781,9.5l41.719-10.5l27,12l36-12
	c0,0,29.5,15,32.5,16.5s24-13.5,24-13.5l43.562,10l24.438-10l33.499,10l31.5-19.5V196.998L444.996,167.498z"/>
<rect x="31.338" y="196.668" style="fill:#ED5564;" width="42" height="58.656"/>
<path d="M501.34,117.343c-5.906,0-10.688,4.766-10.688,10.656v85.343H469.34v-21.344c0-23.531-19.156-42.656-42.688-42.656
	c-12.718,0-24.155,5.594-31.999,14.484c-7.812-8.89-19.25-14.484-32-14.484c-12.718,0-24.155,5.594-31.999,14.484
	c-7.812-8.89-19.25-14.484-32-14.484c-12.719,0-24.156,5.594-31.992,14.484c-7.82-8.89-19.258-14.484-32-14.484
	c-12.726,0-24.171,5.594-32,14.484c-7.82-8.89-19.258-14.484-32-14.484c-12.726,0-24.171,5.594-32,14.484
	c-7.82-8.89-19.258-14.484-32-14.484c-19.835,0-36.57,13.609-41.32,32H32c-5.891,0-10.664,4.766-10.664,10.656v21.344H10.664
	C4.773,213.342,0,218.108,0,223.998c0,5.891,4.773,10.656,10.664,10.656h10.672v21.344c0,5.891,4.773,10.656,10.664,10.656h32
	v202.686c0,23.516,19.141,42.656,42.664,42.656c12.742,0,24.18-5.625,32-14.5c7.828,8.875,19.273,14.5,32,14.5
	c12.742,0,24.18-5.625,32-14.5c7.828,8.875,19.273,14.5,32,14.5c12.742,0,24.18-5.625,32-14.5c7.836,8.875,19.273,14.5,31.992,14.5
	c12.75,0,24.188-5.625,32-14.5c7.844,8.875,19.281,14.5,31.999,14.5c12.75,0,24.188-5.625,32-14.5
	c7.844,8.875,19.281,14.5,31.999,14.5c23.531,0,42.688-19.141,42.688-42.656V234.654h32c5.875,0,10.656-4.766,10.656-10.656V128
	C511.996,122.108,507.215,117.343,501.34,117.343z M42.664,245.342v-42.687H64v42.687H42.664z M106.663,490.652
	c-11.757,0-21.328-9.562-21.328-21.312V255.998v-64c0-11.75,9.57-21.344,21.328-21.344c11.773,0,21.336,9.594,21.336,21.344V469.34
	C127.999,481.091,118.436,490.652,106.663,490.652z M170.663,490.652c-11.757,0-21.328-9.562-21.328-21.312V191.998
	c0-11.75,9.57-21.344,21.328-21.344c11.773,0.001,21.335,9.594,21.335,21.344V469.34
	C191.998,481.091,182.436,490.652,170.663,490.652z M234.662,490.652c-11.757,0-21.328-9.562-21.328-21.312V191.998
	c0-11.75,9.57-21.344,21.328-21.344c11.774,0.001,21.336,9.594,21.336,21.344V469.34
	C255.998,481.091,246.436,490.652,234.662,490.652z M298.654,490.652c-11.75,0-21.312-9.562-21.312-21.312V191.998
	c0-11.75,9.562-21.344,21.312-21.344c11.782,0.001,21.344,9.594,21.344,21.344V469.34
	C319.998,481.091,310.436,490.652,298.654,490.652z M362.653,490.652c-11.749,0-21.312-9.562-21.312-21.312V191.998
	c0-11.75,9.562-21.344,21.312-21.344c11.781,0,21.344,9.594,21.344,21.344V469.34C383.997,481.091,374.435,490.652,362.653,490.652z
	 M447.996,469.341c0,11.75-9.562,21.312-21.344,21.312c-11.749,0-21.312-9.562-21.312-21.312V191.998
	c0-11.75,9.562-21.344,21.312-21.344c11.781,0,21.344,9.594,21.344,21.344V469.341z"/>
<path d="M336.357,109.562c2.328,8.094,6.828,13.844,7.328,14.469l0,0c1.969,2.406,4.953,3.969,8.312,3.969
	c5.891,0,10.656-4.781,10.656-10.656c0-2.547-0.875-4.875-2.344-6.703l0,0c-0.031-0.031-2.344-3.078-3.438-6.969
	c-1.312-4.547-0.5-7.843,2.688-11.046c8.656-8.703,11.531-20,8.062-31.812c-2.312-7.938-6.812-13.562-7.375-14.25
	c-0.031,0-0.031-0.016-0.031-0.016v-0.016l0,0c-1.969-2.359-4.906-3.875-8.219-3.875c-5.89,0-10.655,4.781-10.655,10.688
	c0,2.578,0.906,4.953,2.438,6.797l0,0c0.031,0.016,2.281,2.938,3.375,6.656c1.266,4.359,0.469,7.578-2.719,10.766
	C335.81,86.249,332.92,97.608,336.357,109.562z"/>
<path d="M248.186,102.655c3.172,11.938,9.305,20.234,9.984,21.141l0.016-0.016c1.945,2.562,5.016,4.219,8.477,4.219
	c5.898,0,10.68-4.781,10.68-10.656c0-2.422-0.812-4.641-2.156-6.422l0,0c-0.047-0.062-4.492-6.109-6.531-14.312
	c-2.461-9.828-0.492-18.203,6-25.546c11.406-12.891,15.031-28.688,10.5-45.718c-3.188-11.938-9.312-20.234-10-21.141V4.22
	c-1.969-2.562-5.023-4.219-8.492-4.219c-5.893-0.001-10.666,4.78-10.666,10.655c0,2.422,0.805,4.641,2.156,6.422h-0.016
	c0.047,0.062,4.492,6.109,6.547,14.328c2.453,9.812,0.484,18.187-6.016,25.531C247.279,69.828,243.654,85.624,248.186,102.655z"/>
<path d="M165.694,109.562c2.328,8.094,6.828,13.844,7.336,14.469l0,0c1.961,2.406,4.945,3.969,8.305,3.969
	c5.891,0,10.664-4.781,10.664-10.656c0-2.547-0.891-4.875-2.367-6.703h0.008c-0.023-0.031-2.328-3.078-3.445-6.969
	c-1.305-4.547-0.5-7.843,2.695-11.046c8.664-8.703,11.523-20,8.062-31.812c-2.32-7.938-6.789-13.531-7.391-14.25
	c0,0,0-0.016-0.008-0.016l-0.008-0.016l0,0c-1.961-2.359-4.906-3.875-8.211-3.875c-5.891,0-10.672,4.781-10.672,10.688
	c0,2.578,0.922,4.953,2.453,6.797l0,0c0.023,0.016,2.273,2.938,3.359,6.656c1.281,4.359,0.469,7.578-2.703,10.766
	C165.131,86.249,162.256,97.608,165.694,109.562z"/>
<g>
</g>
<g>
</g>
<g>
</g>
<g>
</g>
<g>
</g>
<g>
</g>
<g>
</g>
<g>
</g>
<g>
</g>
<g>
</g>
<g>
</g>
<g>
</g>
<g>
</g>
<g>
</g>
<g>
</g>
</svg>
