<svg viewBox="0 -78 511.998 511" xmlns="http://www.w3.org/2000/svg"><path d="m135.394531 169.007812h-24.804687v-22.621093c0-7.101563 3.226562-13.820313 8.769531-18.257813l7.5625-6.050781c3.414063-2.734375 8.472656-.300781 8.472656 4.070313zm0 0" fill="#c7cfe2"/><path d="m456.664062 108.179688-38.089843 5.957031c-6.714844 1.050781-13.007813-3.539063-14.058594-10.253907l-.066406-.4375c-1.050781-6.714843 3.542969-13.007812 10.253906-14.058593l38.089844-5.957031c6.714843-1.050782 13.011719 3.542968 14.058593 10.253906l.070313.4375c1.046875 6.714844-3.542969 13.007812-10.257813 14.058594zm0 0" fill="#afb9d2"/><path d="m380.441406 347.28125h-348.933594c-13.257812 0-24.003906-10.746094-24.003906-24.003906v-.433594h396.941406v.433594c0 13.257812-10.746093 24.003906-24.003906 24.003906zm0 0" fill="#afb9d2"/><path d="m333.867188 322.84375c0 13.496094-10.9375 24.4375-24.429688 24.4375h70.578125c13.492187 0 24.429687-10.941406 24.429687-24.4375zm0 0" fill="#a1a8c6"/><path d="m497.292969 261.066406-59.363281-143.265625-2.605469-6.28125c-7.886719-19.03125-27.277344-30.671875-47.765625-28.675781l-101.828125 9.898438c-98.292969 9.5625-185.757813 66.460937-234.359375 152.472656l-7.992188 14.144531-35.878906 63.484375h396.945312c7.550782-8.683594 20.539063-21.453125 40-31.5625 16.171876-8.402344 31.511719-12.230469 43.617188-13.960938 7.640625-1.09375 12.191406-9.117187 9.230469-16.253906zm-98.953125-65.164062c0 19.683594-15.953125 35.640625-35.625 35.640625h-99.449219c-19.675781 0-35.625-15.957031-35.625-35.640625 0-19.679688 15.949219-35.636719 35.625-35.636719h99.449219c19.671875 0 35.625 15.953125 35.625 35.636719zm0 0" fill="#40cb7f"/><path d="m497.292969 261.066406-59.363281-143.265625-2.605469-6.28125c-7.886719-19.03125-27.277344-30.671875-47.765625-28.675781l-45.136719 4.386719c10.152344 4.871093 18.480469 13.355469 23.011719 24.289062l2.605468 6.28125 23.949219 57.800781c2.847657 4.101563 4.851563 8.828126 5.773438 13.929688l29.636719 71.535156c2.964843 7.136719-1.585938 15.160156-9.230469 16.25-12.101563 1.734375-27.441407 5.558594-43.617188 13.960938-19.460937 10.113281-32.449219 22.878906-40 31.566406h69.890625c7.554688-8.6875 20.542969-21.453125 40.003906-31.566406 16.171876-8.398438 31.511719-12.226563 43.613282-13.960938 7.644531-1.089844 12.195312-9.113281 9.234375-16.25zm0 0" fill="#40bc79"/><path d="m437.929688 117.800781c-33.679688-.4375-63.175782.730469-87.636719 2.414063-42.363281 2.890625-73.671875 7.5625-98.640625 14.355468-24.964844 6.78125-43.613282 15.679688-60.652344 27.054688-58.3125 38.875-58.699219 87.265625-115.351562 97.070312-11.644532 2.015626-22.578126 1.863282-32.269532.660157l7.992188-14.140625c48.601562-86.011719 136.066406-142.914063 234.359375-152.472656l101.828125-9.898438c20.488281-1.996094 39.878906 9.640625 47.765625 28.671875zm0 0" fill="#e4eaf7"/><path d="m387.558594 82.84375-45.136719 4.386719c10.152344 4.871093 18.480469 13.355469 23.011719 24.285156l2.605468 6.285156.546876 1.316407c20.433593-1.050782 43.667968-1.652344 69.34375-1.316407l-1.300782-3.140625-1.304687-3.140625c-2.710938-6.542969-6.78125-12.210937-11.789063-16.753906-3.1875-2.890625-6.75-5.324219-10.585937-7.234375-7.675781-3.824219-16.429688-5.5625-25.390625-4.6875zm0 0" fill="#d7deed"/><path d="m346.597656 231.542969h-67.519531v-13.234375c0-6.394532 5.183594-11.578125 11.578125-11.578125h44.363281c6.394531 0 11.578125 5.183593 11.578125 11.578125zm0 0" fill="#409f7f"/><path d="m465.144531 163.882812c-1.585937-3.824218-5.972656-5.644531-9.800781-4.058593-3.828125 1.585937-5.644531 5.976562-4.058594 9.804687l39.078125 94.3125c.710938 1.714844.15625 3.128906-.238281 3.820313-.390625.683593-1.3125 1.871093-3.128906 2.128906-16.164063 2.3125-31.644532 7.269531-46.007813 14.730469-15.023437 7.804687-28.433593 18.128906-39.910156 30.722656h-133.871094c-4.140625 0-7.5 3.359375-7.5 7.5 0 4.144531 3.359375 7.503906 7.5 7.503906h128.144531c-2.652343 5.570313-8.339843 9.433594-14.910156 9.433594h-348.933594c-6.570312 0-12.257812-3.863281-14.910156-9.433594h218.601563c4.144531 0 7.503906-3.359375 7.503906-7.503906 0-4.140625-3.359375-7.5-7.503906-7.5h-214.84375l27.144531-48.035156c3.339844.277344 6.667969.429687 9.972656.429687 6.59375 0 13.097656-.550781 19.453125-1.652343 16.597657-2.871094 29.929688-8.96875 41.949219-19.183594 3.15625-2.683594 3.542969-7.417969.859375-10.574219-2.683594-3.160156-7.417969-3.542969-10.574219-.859375-9.894531 8.40625-20.949218 13.4375-34.796875 15.835938-6.058593 1.046874-12.289062 1.523437-18.621093 1.414062l2.15625-3.816406c47.351562-83.792969 132.792968-139.378906 228.554687-148.691406l101.828125-9.898438c8.335938-.8125 16.386719 1.011719 23.246094 4.910156.410156.300782.84375.5625 1.308594.777344 5.480468 3.40625 10.125 8.171875 13.425781 14.011719.007812.019531.019531.039062.03125.054687.023437.046875.046875.097656.074219.144532-25.65625-.0625-51.355469.785156-76.585938 2.519531-42.277344 2.882812-74.085938 7.523437-100.097656 14.601562-23.953125 6.503907-43.921875 15.417969-62.847656 28.050781-26.152344 17.4375-40.960938 36.523438-54.027344 53.367188-2.328125 2.996094-4.527344 5.828125-6.746094 8.597656-2.589844 3.234375-2.070312 7.957032 1.164062 10.546875 3.234376 2.589844 7.957032 2.070313 10.546876-1.164062 2.292968-2.859375 4.523437-5.738281 6.886718-8.785157 12.363282-15.9375 26.378906-33.996093 50.5-50.078124 17.78125-11.867188 35.808594-19.902344 58.460938-26.054688 25.035156-6.8125 55.914062-11.296875 97.183594-14.113281 27.039062-1.855469 54.632812-2.664063 82.09375-2.433594l6.929687 16.722656c1.585937 3.828125 5.972656 5.644531 9.800781 4.058594s5.644532-5.976563 4.0625-9.804687l-7.789062-18.785157 11.921875-1.867187c8.546875-1.335938 14.953125-7.988282 16.414062-16.054688l15.148438-4.546875c13.523437-4.054687 22.609375-16.269531 22.609375-30.390625 0-17.5-14.230469-31.730468-31.71875-31.730468h-92.027344c-9.21875 0-16.714844-7.503907-16.714844-16.730469v-8.136719c0-4.140625-3.359375-7.5-7.503906-7.5-4.140625 0-7.5 3.359375-7.5 7.5v8.136719c0 17.496093 14.230469 31.734375 31.71875 31.734375h92.027344c9.214844 0 16.714844 7.5 16.714844 16.726562 0 7.445313-4.789063 13.882813-11.917969 16.019532l-13.816407 4.144531c-4.136718-6.308594-11.703124-9.980469-19.625-8.742188l-34.148437 5.347657c-9.152344-4.832032-19.726563-7.050782-30.65625-5.988282l-101.824219 9.898438c-51.519531 5.011718-100.195312 22.773437-142.109375 50.726562v-9.847656c0-4.941406-2.769531-9.335938-7.222656-11.472656-4.449219-2.132813-9.605469-1.539063-13.4375 1.542968l-7.566406 6.054688c-7.363281 5.898438-11.585938 14.6875-11.585938 24.109375v21.140625c-22.796875 21.308594-42.519531 46.167969-58.246093 73.996094l-43.867188 77.625c-.011719.023437-.023438.046875-.035156.070312-.054688.101563-.101563.203125-.152344.308594-.0625.121094-.125.242188-.175781.363281-.035157.082031-.0625.167969-.09375.25-.0625.148438-.121094.300781-.167969.457031-.011719.042969-.023438.085938-.035156.128907-.058594.199219-.113282.398437-.15625.597656 0 .015625-.003906.027344-.003906.042969-.046876.234375-.085938.46875-.1093755.703125 0 .015625 0 .027343-.0039063.042969-.0195312.234374-.03124995.46875-.0351562.707031v.023437.429688c0 17.375 14.132812 31.507812 31.507812 31.507812h348.933594c16.515625 0 30.09375-12.777344 31.394532-28.960937 10.355468-11.449219 22.476562-20.824219 36.066406-27.886719 12.863281-6.679688 26.730468-11.117188 41.214844-13.191406 5.949218-.847656 11.066406-4.328125 14.042968-9.554688 2.984375-5.234375 3.371094-11.429687 1.0625-16.992187zm-11.1875-73.042968c1.265625-.195313 2.53125.109375 3.566407.863281 1.035156.757813 1.714843 1.871094 1.914062 3.136719.007812.0625.019531.121094.03125.183594l.019531.121093c.007813.046875.015625.09375.019531.136719.410157 2.613281-1.386718 5.074219-4 5.484375l-15.851562 2.480469c-1.808594-3.3125-3.929688-6.378906-6.3125-9.179688zm-335.867187 55.546875c0-4.84375 2.171875-9.363281 5.957031-12.398438l3.84375-3.074219v15.746094c-3.316406 2.507813-6.585937 5.085938-9.800781 7.726563zm0 0"/><path d="m405.839844 196.53125v-1.257812c0-23.441407-19.070313-42.511719-42.511719-42.511719h-100.675781c-23.441406 0-42.511719 19.070312-42.511719 42.511719v1.257812c0 23.441406 19.070313 42.511719 42.511719 42.511719h100.675781c23.441406 0 42.511719-19.070313 42.511719-42.511719zm-119.257813 27.507812v-5.730468c0-2.246094 1.828125-4.074219 4.074219-4.074219h44.363281c2.246094 0 4.074219 1.828125 4.074219 4.074219v5.730468zm104.253907-27.507812c0 15.167969-12.339844 27.507812-27.507813 27.507812h-9.230469v-5.730468c0-10.519532-8.558594-19.078125-19.078125-19.078125h-44.363281c-10.519531 0-19.078125 8.558593-19.078125 19.078125v5.730468h-8.925781c-15.167969 0-27.507813-12.339843-27.507813-27.507812v-1.257812c0-15.167969 12.339844-27.507813 27.507813-27.507813h100.675781c15.167969 0 27.507813 12.339844 27.507813 27.507813zm0 0"/><path d="m143.027344 285.679688c0 4.214843-3.417969 7.632812-7.632813 7.632812-4.214843 0-7.632812-3.417969-7.632812-7.632812 0-4.21875 3.417969-7.636719 7.632812-7.636719 4.214844 0 7.632813 3.417969 7.632813 7.636719zm0 0"/><path d="m175.089844 285.679688c0 4.214843-3.417969 7.632812-7.632813 7.632812-4.214843 0-7.632812-3.417969-7.632812-7.632812 0-4.21875 3.417969-7.636719 7.632812-7.636719 4.214844 0 7.632813 3.417969 7.632813 7.636719zm0 0"/><path d="m342.527344 285.679688c0 4.214843-3.417969 7.632812-7.632813 7.632812-4.214843 0-7.632812-3.417969-7.632812-7.632812 0-4.21875 3.417969-7.636719 7.632812-7.636719 4.214844 0 7.632813 3.417969 7.632813 7.636719zm0 0"/><path d="m374.589844 285.679688c0 4.214843-3.417969 7.632812-7.632813 7.632812-4.214843 0-7.632812-3.417969-7.632812-7.632812 0-4.21875 3.417969-7.636719 7.632812-7.636719 4.214844 0 7.632813 3.417969 7.632813 7.636719zm0 0"/></svg>