<svg id="Industry_icon" height="512" viewBox="0 0 128 128" width="512" xmlns="http://www.w3.org/2000/svg"><g><g><path d="m25.5 60.219h8v5.75h-8z" fill="#32965d"/><path d="m88.25 96.5h17.75v6.5h-17.75z" fill="#ccd3eb"/><path d="m25.5 72.406h8v5.75h-8z" fill="#32965d"/><path d="m25.5 48.031h8v5.75h-8z" fill="#32965d"/><path d="m43.75 88.25h59v-40.25h-59zm39.962-5.798 13-18.969c.156-.228.467-.287.695-.13.228.156.286.467.13.694l-13 18.969c-.097.142-.254.218-.413.218-.097 0-.196-.028-.282-.088-.227-.156-.285-.466-.13-.694zm-2.714-26.524c.228.156.286.467.13.694l-18.09 26.395c-.097.142-.254.218-.413.218-.097 0-.196-.028-.282-.088-.228-.156-.286-.467-.13-.694l18.09-26.395c.156-.229.466-.287.695-.13zm-31.786 17.04 13-18.969c.156-.229.467-.287.695-.13.228.156.286.467.13.694l-13 18.969c-.097.142-.254.218-.413.218-.097 0-.196-.028-.282-.088-.227-.156-.285-.467-.13-.694z" fill="#52f293"/><path d="m29.375 28.5h26.875v7.5h-26.875z" fill="#32965d"/></g><g fill="#28283d"><path d="m72.255 95h-32.005-18.75-3.25v-41.518c0-.553-.448-1-1-1s-1 .447-1 1v42.518c0 .553.448 1 1 1h3.25v6.5c0 .553.448 1 1 1h18.75c.552 0 1-.447 1-1v-6.5h31.005c.552 0 1-.447 1-1s-.447-1-1-1zm-33.005 7.5h-16.75v-5.5h16.75z"/><path d="m110.75 36h-49.125v-11.5c0-.553-.448-1-1-1h-35.625c-.552 0-1 .447-1 1v11.5h-6.75c-.552 0-1 .447-1 1v9.6c0 .553.448 1 1 1s1-.447 1-1v-8.6h5.75v2c0 .553.448 1 1 1h35.625c.552 0 1-.447 1-1v-2h48.125v57h-3.25-18.75-8.611c-.552 0-1 .447-1 1s.448 1 1 1h7.611v6.5c0 .553.448 1 1 1h18.75c.552 0 1-.447 1-1v-6.5h3.25c.552 0 1-.447 1-1v-59c0-.553-.448-1-1-1zm-51.125 3h-33.625v-13.5h33.625zm45.875 63.5h-16.75v-5.5h16.75z"/><path d="m103.25 89.75c.552 0 1-.447 1-1v-41.25c0-.553-.448-1-1-1h-60c-.552 0-1 .447-1 1v41.25c0 .553.448 1 1 1zm-59-41.25h58v39.25h-58z"/><path d="m24 66.469c0 .553.448 1 1 1h9c.552 0 1-.447 1-1v-6.75c0-.553-.448-1-1-1h-9c-.552 0-1 .447-1 1zm2-5.75h7v4.75h-7z"/><path d="m25 55.281h9c.552 0 1-.447 1-1v-6.75c0-.553-.448-1-1-1h-9c-.552 0-1 .447-1 1v6.75c0 .553.448 1 1 1zm1-6.75h7v4.75h-7z"/><path d="m24 78.656c0 .553.448 1 1 1h9c.552 0 1-.447 1-1v-6.75c0-.553-.448-1-1-1h-9c-.552 0-1 .447-1 1zm2-5.75h7v4.75h-7z"/><path d="m56.75 27h-27.875c-.552 0-1 .447-1 1v8.5c0 .553.448 1 1 1h27.875c.552 0 1-.447 1-1v-8.5c0-.553-.448-1-1-1zm-1 8.5h-25.875v-6.5h25.875z"/><path d="m63.19 53.456c-.455-.312-1.079-.194-1.39.26l-13 18.969c-.313.456-.196 1.078.259 1.391.173.118.37.175.564.175.319 0 .632-.152.826-.435l13-18.969c.313-.456.197-1.078-.259-1.391z"/><path d="m96.3 63.2-13 18.969c-.313.456-.196 1.078.259 1.391.173.118.37.175.564.175.319 0 .632-.152.826-.435l13-18.969c.313-.456.196-1.078-.259-1.391-.455-.31-1.078-.194-1.39.26z"/><path d="m79.89 55.774-18.09 26.395c-.313.456-.196 1.078.259 1.391.173.118.37.175.564.175.319 0 .632-.152.826-.435l18.09-26.395c.313-.456.196-1.078-.259-1.391-.455-.31-1.077-.194-1.39.26z"/></g></g></svg>