<?xml version="1.0" encoding="iso-8859-1"?>
<!-- Generator: Adobe Illustrator 19.0.0, SVG Export Plug-In . SVG Version: 6.00 Build 0)  -->
<svg xmlns="http://www.w3.org/2000/svg" xmlns:xlink="http://www.w3.org/1999/xlink" version="1.1" id="Layer_1" x="0px" y="0px" viewBox="0 0 512 512" style="enable-background:new 0 0 512 512;" xml:space="preserve" width="512" height="512">
<g id="XMLID_715_">
	<path id="XMLID_716_" style="fill:#568AB1;" d="M391.67,20.84v157.03c0,8.12-6.58,14.7-14.7,14.7H135.03   c-8.12,0-14.7-6.58-14.7-14.7V20.84c0-7.37,5.97-13.34,13.34-13.34h244.66C385.7,7.5,391.67,13.47,391.67,20.84z"/>
	<path id="XMLID_717_" style="fill:#4173A0;" d="M391.67,20.84v157.03c0,8.12-6.58,14.7-14.7,14.7H344.9c8.12,0,14.7-6.58,14.7-14.7   V20.84c0-7.37-5.97-13.34-13.34-13.34h32.07C385.7,7.5,391.67,13.47,391.67,20.84z"/>
	<path id="XMLID_718_" style="fill:#52D6FF;" d="M157.99,96.99v95.58h-22.96c-8.12,0-14.7-6.58-14.7-14.7V52.34l32.72,32.72   C156.21,88.22,157.99,92.52,157.99,96.99z"/>
	<path id="XMLID_719_" style="fill:#C4E7E5;" d="M120.327,206.47v257.305c0,8.111,6.575,14.685,14.685,14.685h241.974   c8.111,0,14.685-6.575,14.685-14.685V206.47c0-8.119-6.581-14.7-14.7-14.7H135.027C126.909,191.77,120.327,198.351,120.327,206.47z   "/>
	<path id="XMLID_720_" style="fill:#ACC6C4;" d="M391.67,206.47v257.3c0,8.12-6.58,14.69-14.69,14.69h-30.43   c8.11,0,14.69-6.57,14.69-14.69v-257.3c0-6.44-4.14-11.91-9.91-13.9c-0.27-0.09-0.54-0.18-0.82-0.26   c-1.26-0.35-2.59-0.54-3.96-0.54h30.43c1.37,0,2.7,0.19,3.96,0.54c0.28,0.08,0.55,0.17,0.82,0.26   C387.53,194.56,391.67,200.03,391.67,206.47z"/>
	<path id="XMLID_721_" style="fill:#4173A0;" d="M366.927,504.5H145.073c-5.523,0-10-4.477-10-10v-16.04h241.855v16.04   C376.927,500.023,372.45,504.5,366.927,504.5z"/>
	<path id="XMLID_722_" style="fill:#31A7FF;" d="M157.99,191.77v136.357c0,4.477-1.779,8.771-4.944,11.937L120.33,372.78V206.47   c0-6.74,4.54-12.42,10.73-14.16c1.26-0.35,2.59-0.54,3.96-0.54H157.99z"/>
	<g id="XMLID_723_">
		<path id="XMLID_724_" d="M391.672,304.762c-4.142,0-7.5,3.357-7.5,7.5v151.514c0,3.962-3.223,7.185-7.185,7.185H135.013    c-3.962,0-7.185-3.223-7.185-7.185v-41.514c0-4.143-3.358-7.5-7.5-7.5s-7.5,3.357-7.5,7.5v41.514    c0,9.623,6.161,17.832,14.745,20.897v9.827c0,9.649,7.851,17.5,17.5,17.5h221.854c9.649,0,17.5-7.851,17.5-17.5v-9.827    c8.584-3.065,14.745-11.274,14.745-20.897V312.262C399.172,308.119,395.814,304.762,391.672,304.762z M366.927,497H145.073    c-1.378,0-2.5-1.121-2.5-2.5v-8.54h226.854v8.54C369.427,495.879,368.306,497,366.927,497z"/>
		<path id="XMLID_727_" d="M393.934,192.168c3.263-3.866,5.236-8.855,5.236-14.298v-58.608c0-4.143-3.358-7.5-7.5-7.5    s-7.5,3.357-7.5,7.5v58.608c0,2.944-1.778,5.478-4.316,6.593c-0.944-0.123-1.905-0.193-2.882-0.193H165.49V96.992    c0-6.512-2.536-12.635-7.142-17.24l-30.157-30.157c-0.116-0.116-0.24-0.22-0.361-0.326V20.84c0-3.22,2.62-5.84,5.84-5.84h244.66    c3.22,0,5.84,2.62,5.84,5.84v63.898c0,4.143,3.358,7.5,7.5,7.5s7.5-3.357,7.5-7.5V20.84C399.17,9.349,389.821,0,378.33,0H133.67    c-11.491,0-20.84,9.349-20.84,20.84v157.03c0,5.443,1.973,10.432,5.236,14.298c-3.265,3.866-5.239,8.856-5.239,14.301v181.269    c0,4.143,3.358,7.5,7.5,7.5s7.5-3.357,7.5-7.5v-11.884c0.122-0.107,0.247-0.212,0.364-0.329l30.157-30.157    c4.605-4.605,7.142-10.729,7.142-17.24V199.27h208.122c1.011,0.508,2.149,0.801,3.358,0.801c0.978,0,1.94-0.07,2.886-0.194    c2.538,1.115,4.317,3.649,4.317,6.593v71.269c0,4.143,3.358,7.5,7.5,7.5s7.5-3.357,7.5-7.5V206.47    C399.172,201.025,397.199,196.035,393.934,192.168z M147.742,90.359c1.772,1.771,2.748,4.128,2.748,6.633v87.277h-15.463    c-0.977,0-1.938,0.07-2.882,0.193c-2.537-1.115-4.316-3.649-4.316-6.593V70.447L147.742,90.359z M150.49,328.128    c0,2.505-0.976,4.861-2.748,6.633l-19.915,19.915V206.47c0-2.944,1.779-5.479,4.317-6.593c0.945,0.123,1.907,0.194,2.886,0.194    c1.209,0,2.347-0.293,3.358-0.801h12.102V328.128z"/>
		<path id="XMLID_731_" d="M346.55,237.297c4.142,0,7.5-3.357,7.5-7.5s-3.358-7.5-7.5-7.5h-19.217c-4.142,0-7.5,3.357-7.5,7.5    s3.358,7.5,7.5,7.5H346.55z"/>
	</g>
</g>















</svg>
