<svg id="Capa_1" enable-background="new 0 0 512 512" height="512" viewBox="0 0 512 512" width="512" xmlns="http://www.w3.org/2000/svg"><g><g><path d="m21.5 504h204.996l-2.962-11.405c-3.556-13.694-15.916-23.255-30.064-23.255h-127.16c-21.087 0-39.51 14.25-44.81 34.66z" fill="#909ba5"/><path d="m220.971 486h-190.22c-4.274 5.124-7.49 11.219-9.251 18h204.996l-2.962-11.405c-.604-2.331-1.483-4.53-2.563-6.595z" fill="#808b95"/><path d="m99.26 469.34h70.187v-23.176c0-5.523-4.477-10-10-10h-50.187c-5.523 0-10 4.477-10 10z" fill="#dc4955"/><path d="m99.26 451.34h70.187v18h-70.187z" fill="#d82f3c"/><path d="m296.893 36.043c7.61-17.035 24.581-28.043 43.239-28.043 26.112 0 47.355 21.243 47.355 47.356v108.292h-30v-108.292c0-9.569-7.785-17.356-17.355-17.356-6.837 0-13.058 4.034-15.847 10.277l-173.26 387.887h-32.856z" fill="#808b95"/><path d="m118.169 436.164h32.856l8.04-18h-32.856z" fill="#5e6b75"/><path d="m387.683 207.765c2.563 0 5.048.33 7.418.947v-45.064h-46.396v49.469c12.445-3.488 25.526-5.352 38.978-5.352z" fill="#f6e080"/><path d="m357.487 145.648h30v18h-30z" fill="#5e6b75"/><path d="m387.683 189.765c-13.453 0-26.533 1.863-38.978 5.352v18c12.445-3.488 25.526-5.352 38.978-5.352 2.563 0 5.048.33 7.418.947v-18c-2.369-.616-4.855-.947-7.418-.947z" fill="#eccd61"/><path d="m417.055 504h-119.087c-44.489 0-78.036-40.418-69.841-84.146l17.68-94.332c12.796-68.277 72.41-117.756 141.876-117.756 16.221 0 29.371 13.15 29.371 29.371v266.863z" fill="#dc4955"/><path d="m227.466 424.07c-5.358 42.075 27.447 79.93 70.502 79.93h119.086v-18h-119.086c-36.788 0-66.093-27.638-70.502-61.93z" fill="#d82f3c"/><path d="m348.705 318.152v-105.035c-51.818 14.525-92.579 57.35-102.898 112.404l-2.367 12.631h85.265c11.046 0 20-8.954 20-20z" fill="#f6e080"/><path d="m328.705 320.152h-81.782c-.403 1.777-.777 3.566-1.116 5.369l-2.367 12.631h85.265c11.046 0 20-8.954 20-20v-18c0 11.046-8.954 20-20 20z" fill="#eccd61"/><ellipse cx="417.055" cy="430.555" fill="#909ba5" rx="73.445" ry="73.445" transform="matrix(.707 -.707 .707 .707 -182.296 421.009)"/><path d="m417.055 486c-37.514 0-68.436-28.131-72.877-64.445-.361 2.952-.569 5.951-.569 9 0 40.563 32.883 73.445 73.445 73.445 40.563 0 73.445-32.883 73.445-73.445 0-3.049-.208-6.048-.569-9-4.439 36.314-35.362 64.445-72.875 64.445z" fill="#808b95"/><ellipse cx="417.055" cy="430.555" fill="#f6e080" rx="26.187" ry="26.187" transform="matrix(.831 -.556 .556 .831 -169.05 304.882)"/><path d="m417.055 438.742c-11.301 0-20.929-7.158-24.6-17.187-1.027 2.806-1.588 5.838-1.588 9 0 14.463 11.725 26.187 26.187 26.187 14.463 0 26.187-11.724 26.187-26.187 0-3.162-.561-6.194-1.588-9-3.669 10.029-13.298 17.187-24.598 17.187z" fill="#eccd61"/></g><g><path d="m424.885 350.154v-42.673c0-4.15-3.365-7.515-7.515-7.515s-7.515 3.365-7.515 7.515v42.673c-41.209 3.806-73.589 38.557-73.589 80.743 0 27.235 13.508 51.359 34.16 66.074h-72.376c-19.004 0-36.865-8.387-49.001-23.01-12.138-14.623-17.091-33.723-13.59-52.402l14.193-75.73h79.195c15.193 0 27.554-12.361 27.554-27.554v-99.413c10.162-2.402 20.725-3.675 31.541-3.675 12.083 0 21.914 9.831 21.914 21.914v40.322c0 4.15 3.365 7.515 7.515 7.515s7.515-3.365 7.515-7.515v-40.323c0-15.052-9.053-28.021-21.997-33.773v-39.86c0-4.15-3.365-7.515-7.515-7.515h-.114v-100.989c-.001-30.307-24.657-54.963-54.963-54.963-21.654 0-41.352 12.775-50.185 32.548l-42.72 95.641c-1.693 3.789.007 8.233 3.796 9.926 3.79 1.695 8.233-.007 9.926-3.796l42.72-95.641c6.417-14.366 20.73-23.648 36.462-23.648 22.02 0 39.934 17.914 39.934 39.933v100.99h-15.03v-100.99c0-13.732-11.172-24.904-24.904-24.904-9.811 0-18.736 5.788-22.739 14.748l-171.611 384.195h-16.46l119.366-267.232c1.693-3.789-.007-8.233-3.797-9.926-3.791-1.696-8.233.007-9.926 3.796l-122.103 273.362h-4.052c-9.668 0-17.534 7.866-17.534 17.534v15.706h-25.502c-24.548 0-46.001 16.594-52.171 40.354-.585 2.251-.093 4.646 1.329 6.486 1.423 1.839 3.618 2.917 5.944 2.917h118.178c4.15 0 7.515-3.364 7.515-7.515s-3.365-7.515-7.515-7.515h-107.098c6.776-11.952 19.575-19.699 33.818-19.699h127.41c10.751 0 20.148 7.268 22.85 17.675l.526 2.024h-47.446c-4.15 0-7.515 3.365-7.515 7.515s3.365 7.515 7.515 7.515h57.161c2.326 0 4.521-1.077 5.944-2.917s1.914-4.235 1.329-6.487l-2.968-11.427c-4.422-17.032-19.8-28.927-37.397-28.927h-16.555v-15.706c0-8.636-6.281-15.816-14.511-17.255l168.998-378.344c1.587-3.553 5.127-5.848 9.017-5.848 5.445 0 9.874 4.43 9.874 9.875v100.99h-1.285c-4.15 0-7.515 3.364-7.515 7.515v43.987c-51.977 16.734-92.469 60.79-102.97 116.819l-17.714 94.517c-4.327 23.087 1.796 46.695 16.797 64.769 15.003 18.074 37.078 28.44 60.567 28.44h119.32c44.721 0 81.104-36.383 81.104-81.104 0-42.186-32.38-76.936-73.589-80.742zm-318.417 112.089v-15.706c0-1.381 1.124-2.505 2.505-2.505h50.285c1.381 0 2.505 1.124 2.505 2.505v15.706zm249.933-291.261h31.458v29.176c-10.75.006-21.276 1.146-31.458 3.302zm-15.03 52.354v94.938c0 6.906-5.618 12.524-12.525 12.524h-76.378l.704-3.756c9.153-48.828 43.58-87.565 88.199-103.706zm75.999 273.635c-36.434 0-66.074-29.641-66.074-66.074s29.641-66.074 66.074-66.074 66.074 29.641 66.074 66.074-29.641 66.074-66.074 66.074z"/><path d="m417.37 397.143c-18.612 0-33.753 15.142-33.753 33.753 0 18.612 15.142 33.753 33.753 33.753s33.753-15.142 33.753-33.753-15.142-33.753-33.753-33.753zm0 52.477c-10.324 0-18.724-8.4-18.724-18.724s8.4-18.724 18.724-18.724 18.724 8.4 18.724 18.724c0 10.325-8.4 18.724-18.724 18.724z"/></g></g></svg>