<svg height="512" viewBox="0 0 100 100" width="512" xmlns="http://www.w3.org/2000/svg"><g id="Layer_54" fill="#03c4a1" data-name="Layer 54"><path d="m84.915 13.684v12.3h-69.654v-12.3a7.658 7.658 0 0 1 7.652-7.651h54.351a7.657 7.657 0 0 1 7.651 7.651z"/><path d="m65.792 57.811a15.7 15.7 0 0 1 -30.26 5.88 5.876 5.876 0 0 0 5.5-5.88 5.893 5.893 0 0 0 -5.5-5.87 15.7 15.7 0 0 1 30.26 5.87z"/><path d="m41.033 57.811a5.876 5.876 0 0 1 -5.5 5.88 2.352 2.352 0 0 1 -.4.023h-6.818a5.9 5.9 0 1 1 0-11.8h6.816a2.458 2.458 0 0 1 .4.022 5.893 5.893 0 0 1 5.502 5.875z"/></g><g id="object"><g id="_16" data-name="16"><path d="m77.176 5.114h-54.352a8.661 8.661 0 0 0 -8.651 8.651v68.317a8.66 8.66 0 0 0 8.651 8.651h1.881a5.158 5.158 0 0 0 5.051 4.153h1.535a5.158 5.158 0 0 0 5.051-4.153h27.316a5.158 5.158 0 0 0 5.051 4.153h1.535a5.158 5.158 0 0 0 5.056-4.153h1.881a8.66 8.66 0 0 0 8.651-8.651v-68.317a8.661 8.661 0 0 0 -8.656-8.651zm-54.352 2h54.352a6.658 6.658 0 0 1 6.651 6.651v11.3h-67.654v-11.3a6.658 6.658 0 0 1 6.651-6.651zm8.467 85.772h-1.535a3.158 3.158 0 0 1 -2.99-2.153h7.515a3.158 3.158 0 0 1 -2.99 2.153zm38.953 0h-1.535a3.158 3.158 0 0 1 -2.99-2.153h7.515a3.158 3.158 0 0 1 -2.99 2.153zm6.932-4.153h-54.352a6.658 6.658 0 0 1 -6.651-6.651v-55.021h67.654v55.021a6.658 6.658 0 0 1 -6.651 6.651zm-27.176-53.86a23.166 23.166 0 0 0 -21.969 16.137 6.889 6.889 0 0 0 0 13.774 23.026 23.026 0 1 0 21.969-29.911zm-26.677 23.019a4.894 4.894 0 0 1 4.904-4.892h6.815a1.885 1.885 0 0 1 .336.02 4.892 4.892 0 0 1 3.134 8.341 4.833 4.833 0 0 1 -3.129 1.413.955.955 0 0 0 -.106.012 1.522 1.522 0 0 1 -.235.008h-6.815a4.908 4.908 0 0 1 -4.904-4.902zm13.577-6.642a14.708 14.708 0 1 1 -.008 13.28 6.853 6.853 0 0 0 5.054-6.638 6.907 6.907 0 0 0 -5.046-6.642zm13.1 27.671a21.157 21.157 0 0 1 -19.851-14.127h4.651a16.708 16.708 0 1 0 0-13.794h-4.652a21.023 21.023 0 1 1 19.852 27.921zm.4-55a7.831 7.831 0 1 0 -7.831-7.831 7.839 7.839 0 0 0 7.831 7.828zm0-13.661a5.831 5.831 0 1 1 -5.831 5.83 5.837 5.837 0 0 1 5.831-5.833zm-29.077 11.66a1 1 0 0 1 1-1h13.12a1 1 0 0 1 0 2h-13.12a1 1 0 0 1 -1-1zm0-5.833a1 1 0 0 1 1-1h6.561a1 1 0 0 1 0 2h-6.561a1 1 0 0 1 -1-1zm49.707-5.832a1 1 0 0 1 1-1h3.985a1 1 0 0 1 0 2h-3.985a1 1 0 0 1 -1-1zm-8.319 0a1 1 0 0 1 1-1h3.989a1 1 0 0 1 0 2h-3.989a1 1 0 0 1 -1-1zm-12.311 10.006a4.174 4.174 0 1 0 -4.173-4.174 4.178 4.178 0 0 0 4.173 4.174zm0-6.347a2.174 2.174 0 1 1 -2.173 2.173 2.176 2.176 0 0 1 2.173-2.173z"/></g></g></svg>