<svg id="Layer_3" enable-background="new 0 0 64 64" height="512" viewBox="0 0 64 64" width="512" xmlns="http://www.w3.org/2000/svg"><path d="m57 58h6v5h-6z" fill="#b4d3e0"/><path d="m60 58h3v5h-3z" fill="#77848c"/><path d="m63 52v6h-6-8c-2.21 0-4-1.79-4-4v-2h8 4c1.1 0 2-.9 2-2v-14h4z" fill="#a0a0a0"/><path d="m54 48v3c0 .55-.45 1-1 1h-8-2c-.55 0-1-.45-1-1v-3c0-.55.45-1 1-1h5 5c.55 0 1 .45 1 1z" fill="#b4d3e0"/><path d="m54 48v3c0 .55-.45 1-1 1h-10c-.55 0-1-.45-1-1v-1h7c.55 0 1-.45 1-1v-2h3c.55 0 1 .45 1 1z" fill="#77848c"/><path d="m48 44c.55 0 1-.45 1-1s-.45-1-1-1-1 .45-1 1 .45 1 1 1zm3.87-2c.55 2.14-.74 4.32-2.87 4.87-.33.09-.67.13-1 .13-1.78 0-3.41-1.2-3.87-3-.55-2.14.74-4.32 2.87-4.87 2.14-.55 4.32.74 4.87 2.87z" fill="#77848c"/><path d="m52.79 33.51c.55 2.14-.74 4.32-2.88 4.87l-2.91.75-2.9.74c-2.14.55-4.32-.74-4.87-2.88l-.5-1.93 13.56-3.48z" fill="#b1b1b1"/><path d="m49.91 38.38-2.91.75-2.9.74c-.49.13-.99.16-1.47.1l2.28-.59c2.14-.55 3.43-2.73 2.88-4.87l-.43-1.66 4.93-1.27.5 1.93c.55 2.14-.74 4.32-2.88 4.87z" fill="#787878"/><path d="m27.12 1.9.99 3.88-7.74 1.99-1-3.88z" fill="#77848c"/><path d="m28.11 5.78-7.74 1.99c-.271-1.049.361-2.119 1.41-2.39l1.366-.352c.533-.137.855-.68.72-1.213l-.256-1.015 3.51-.9z" fill="#596369"/><path d="m10.72 18c.96 1.75 2 4.23 2.85 7.52 1.18 4.6 1.25 8 1.02 10.01-1.17-1.65-2.75-4.66-3.93-9.27-.89-3.46-1.15-6.24-1.13-8.26l-.05-.21 1.11-.28z" fill="#1de9b6"/><path d="m16.42 40.72c-.14.08-.29.14-.45.18-2.94.76-7.05-5.35-9.18-13.64-.76-2.96-1.17-5.8-1.24-8.26l.08-.62c.63.1 1.29.07 1.95-.1l1.9-.49.05.21c-.02 2.02.24 4.8 1.13 8.26 1.18 4.61 2.76 7.62 3.93 9.27.23-2.01.16-5.41-1.02-10.01-.85-3.29-1.89-5.77-2.85-7.52l-.13-.49 3.98-1.03.13.52c1.06 2.13 2.02 4.7 2.74 7.52 2.02 7.85 1.53 14.84-1.02 16.2z" fill="#a0a0a0"/><path d="m28.1 21.78c2.12 8.28 1.47 15.6-1.45 16.38-.01.01-.01.01-.02.01l-10.17 2.61-.04-.06c2.55-1.36 3.04-8.35 1.02-16.2-.72-2.82-1.68-5.39-2.74-7.52l-.13-.52 10.6-2.72.06.24c1.11 2.18 2.11 4.85 2.87 7.78z" fill="#686868"/><path d="m15.597 18.988c3.783-.186 7.555-.589 11.329-.996-.52-1.449-1.089-2.798-1.697-3.991l-.06-.24-10.6 2.72.131.519c.31.623.608 1.294.897 1.988z" fill="#4f565a"/><path d="m17.276 23.938c.053.196.114.383.164.582.153.594.286 1.181.411 1.763 3.6-.696 7.254-1.087 10.881-1.627-.107-.578-.232-1.165-.366-1.757-3.697.397-7.389.798-11.09 1.039z" fill="#586267"/><path d="m18.594 31.284c.376 4.802-.397 8.488-2.174 9.435l.04.06 10.17-2.61c.01 0 .01 0 .02-.01 1.93-.515 2.861-3.896 2.663-8.513-3.578.514-7.178.918-10.719 1.638z" fill="#4f565a"/><path d="m52.29 31.58-13.56 3.48-12.08 3.1c2.92-.78 3.57-8.1 1.45-16.38-.76-2.93-1.76-5.6-2.87-7.78l-.06-.24 2.75-.71c.41-.11.83-.16 1.24-.16 2.23 0 4.27 1.5 4.85 3.76.68 2.68 3.41 4.29 6.08 3.6l18.41-4.73v.01l1.49 5.81c1.1 4.28-1.48 8.64-5.76 9.74z" fill="#dee2e8"/><path d="m57.69 29.19c.11-.93.05-1.89-.2-2.85l-.496-1.936c-.549-2.14-2.728-3.43-4.868-2.881l-14.536 3.727c-2.67.69-5.4-.92-6.08-3.6-.56-2.18-2.48-3.65-4.61-3.75-.51-1.42-1.07-2.73-1.67-3.9l-.06-.24 2.75-.71c.41-.11.83-.16 1.24-.16 2.23 0 4.27 1.5 4.85 3.76.68 2.68 3.41 4.29 6.08 3.6l18.41-4.73v.01l1.49 5.81c.76 2.94-.22 5.92-2.3 7.85z" fill="#a2adb3"/><path d="m61.62 11.62.75 2.91-3.87.99-18.41 4.73c-2.67.69-5.4-.92-6.08-3.6-.58-2.26-2.62-3.76-4.85-3.76-.41 0-.83.05-1.24.16l-2.75.71-10.6 2.72-3.98 1.03-1.11.28-1.9.49c-.66.17-1.32.2-1.95.1-1.95-.27-3.62-1.69-4.14-3.7l-.49-1.94 19.37-4.97 7.74-1.99 16.47-4.23c7.49-1.93 15.12 2.59 17.04 10.07z" fill="#b6ebff"/><path d="m62.37 14.53-3.87.99-18.41 4.73c-2.56.66-5.17-.79-5.98-3.26l17.39-4.47.959-.245c1.607-.411 2.575-2.048 2.161-3.655-.78-3.03-2.49-5.57-4.76-7.4 5.5.71 10.3 4.7 11.76 10.4z" fill="#3cf"/><g fill="#fff"><path d="m20 20.667c-1.287 0-1.289 2 0 2 1.287 0 1.289-2 0-2z"/><path d="m21.5 23.167c-.643 0-.645 1 0 1 .643 0 .645-1 0-1z"/></g><g fill="#333"><circle cx="48" cy="43" r="1"/><g><path d="m50.999 18.451c.083 0 .166-.01.25-.031l2-.514c.534-.138.856-.683.72-1.217-.138-.536-.682-.854-1.218-.72l-2 .514c-.534.138-.856.683-.72 1.217.116.451.523.751.968.751z"/><path d="m63 35h-4c-.553 0-1 .448-1 1v14c0 .551-.448 1-1 1h-2v-3c0-1.103-.897-2-2-2h-1.029c.113-.15.236-.291.333-.455.68-1.15.871-2.495.539-3.789-.292-1.135-.965-2.062-1.834-2.72 2.148-.992 3.358-3.402 2.75-5.775l-.249-.968.969-.249c2.328-.599 4.284-2.067 5.508-4.137s1.567-4.491.97-6.819l-1.244-4.843 2.906-.746c.534-.138.856-.683.72-1.217l-.746-2.906c-2.06-8.011-10.254-12.854-18.262-10.797l-15.496 3.98-.746-2.905c-.138-.536-.684-.852-1.218-.72l-7.749 1.99c-.257.066-.477.231-.611.46-.136.228-.174.5-.108.758l.746 2.905-18.403 4.726c-.534.138-.856.683-.72 1.217l.497 1.938c.536 2.087 2.115 3.629 4.035 4.228.087 2.581.52 5.463 1.261 8.35 1.058 4.117 2.63 7.855 4.426 10.524 2.102 3.122 3.902 3.936 5.208 3.936.278 0 .535-.037.767-.096.105-.027.212-.063.321-.104.055-.005.109-.007.164-.021l10.169-2.612h.001s.001 0 .001 0l11.137-2.86.248.968c.579 2.254 2.616 3.757 4.845 3.757.115 0 .232-.014.347-.022-.459 1.027-.579 2.162-.296 3.267.169.659.475 1.244.862 1.756h-1.019c-1.103 0-2 .897-2 2v3c0 1.103.897 2 2 2h1v1c0 2.757 2.243 5 5 5h7v4c0 .552.447 1 1 1h6c.553 0 1-.448 1-1v-5-21.999c0-.552-.447-1-1-1zm-17.582 6.473c.407-.69 1.06-1.179 1.836-1.378.249-.064.501-.096.752-.096.529 0 1.053.142 1.521.418.69.408 1.18 1.06 1.379 1.836s.085 1.583-.323 2.273c-.407.69-1.06 1.179-1.836 1.378-.774.198-1.583.085-2.272-.323-.69-.408-1.18-1.06-1.379-1.836-.2-.775-.086-1.582.322-2.272zm-24.829-36.861 5.811-1.492.497 1.937-5.811 1.493zm-18.128 9.819-.249-.969 18.402-4.726h.001l7.749-1.99c.001 0 .002-.001.003-.001l16.462-4.228c6.938-1.786 14.042 2.415 15.825 9.357l.498 1.938-2.905.746h-.001s0 0-.001 0l-1.847.474c-.535.138-.857.683-.72 1.218.139.536.686.854 1.218.72l.879-.226 1.243 4.843c.961 3.738-1.3 7.561-5.038 8.521l-1.935.497c-.001 0-.002 0-.003 0s-.001.001-.002.001l-13.556 3.482s0 0-.001 0 0 0-.001 0l-8.993 2.31c1.339-3.424.979-9.399-.424-14.862-.656-2.551-1.529-4.969-2.528-7.093l1.631-.419c2.136-.55 4.32.743 4.869 2.878.398 1.552 1.378 2.857 2.758 3.672.938.554 1.982.838 3.044.838.5 0 1.005-.063 1.503-.191l6.907-1.774c.534-.138.856-.683.72-1.217-.138-.535-.683-.856-1.218-.72l-6.907 1.774c-1.035.267-2.11.113-3.031-.431-.92-.543-1.572-1.413-1.838-2.448-.824-3.205-4.103-5.14-7.305-4.318l-20.34 5.223c-2.137.547-4.32-.744-4.869-2.879zm16.399 24.696c.344-.88.611-2.018.744-3.5.288-3.205-.136-7.237-1.193-11.354-.654-2.545-1.527-4.972-2.525-7.095l8.681-2.23c1.015 2.088 1.901 4.515 2.561 7.085 2.234 8.701 1.069 14.695-.751 15.164zm-6.956-2.213c-1.672-2.485-3.146-6.003-4.147-9.905-.674-2.624-1.071-5.228-1.178-7.581.414-.017.832-.074 1.249-.181l.723-.186c.06 1.77.327 4.277 1.142 7.45 1.347 5.242 3.136 8.264 4.083 9.599.19.269.496.421.815.421.083 0 .166-.01.249-.031.401-.103.697-.443.744-.854.187-1.625.299-5.133-1.048-10.379-.679-2.641-1.579-5.055-2.602-7.075l1.983-.509c1.014 2.085 1.897 4.524 2.556 7.087 1.003 3.902 1.407 7.694 1.139 10.678-.227 2.525-.951 4.244-1.891 4.485-.937.245-2.401-.915-3.817-3.019zm-1.302-16.916c.641 1.401 1.367 3.312 1.998 5.767.621 2.42.915 4.431 1.032 6.027-.667-1.455-1.38-3.359-2.001-5.778-.627-2.44-.913-4.459-1.029-6.016zm29.596 16.746-.248-.968 11.623-2.985.249.968c.411 1.603-.558 3.241-2.16 3.652l-5.811 1.493c-1.602.409-3.242-.558-3.653-2.16zm2.802 11.256h4.995.006.008 4.991l.001 3h-8.001-2zm3 6v-1h7 4c1.654 0 3-1.346 3-3v-13h2v20h-5-8c-1.654 0-3-1.346-3-3zm16 8h-4v-3h4z"/></g></g></svg>