<?xml version="1.0" encoding="iso-8859-1"?>
<!-- Generator: Adobe Illustrator 19.0.0, SVG Export Plug-In . SVG Version: 6.00 Build 0)  -->
<svg version="1.1" id="Layer_1" xmlns="http://www.w3.org/2000/svg" xmlns:xlink="http://www.w3.org/1999/xlink" x="0px" y="0px"
	 viewBox="0 0 511.999 511.999" style="enable-background:new 0 0 511.999 511.999;" xml:space="preserve">
<path style="fill:#333E48;" d="M474.453,55.626c0-9.18-7.511-16.69-16.69-16.69H120.987c-9.18,0-16.69,7.511-16.69,16.69v27.817
	c0,9.18,7.511,16.689,16.69,16.689h336.776c9.18,0,16.69-7.51,16.69-16.689V55.626z"/>
<rect x="104.298" y="58.966" style="opacity:0.1;enable-background:new    ;" width="370.151" height="15.021"/>
<path style="fill:#7D868C;" d="M503.897,96.239c0-12.239-10.015-22.254-22.254-22.254H97.107c-12.239,0-22.254,10.015-22.254,22.254
	v289.882c0,12.24,10.015,22.254,22.254,22.254h384.537c12.239,0,22.254-10.014,22.254-22.254V96.239H503.897z"/>
<path style="fill:#333E48;" d="M503.897,96.239c0-12.239-10.015-22.254-22.254-22.254H295.199
	c-12.238,0-22.253,10.015-22.253,22.254v186.445c0,12.239,10.015,22.253,22.253,22.253h186.445
	c12.239,0,22.254-10.014,22.254-22.253V96.239z"/>
<path style="opacity:0.2;enable-background:new    ;" d="M481.643,73.985H295.199c-12.238,0-22.253,10.015-22.253,22.254v186.445
	c0,12.239,10.015,22.253,22.253,22.253h186.445c12.239,0,22.254-10.014,22.254-22.253V96.239
	C503.897,84,493.882,73.985,481.643,73.985z M484.099,266.7c0,10.141-8.298,18.437-18.438,18.437H311.183
	c-10.142,0-18.438-8.297-18.438-18.437V112.223c0-10.141,8.297-18.438,18.438-18.438h154.476c10.141,0,18.438,8.298,18.438,18.438
	V266.7H484.099z"/>
<circle style="opacity:0.2;enable-background:new    ;" cx="388.42" cy="189.462" r="73.376"/>
<circle style="opacity:0.2;enable-background:new    ;" cx="388.42" cy="189.462" r="42.393"/>
<circle style="opacity:0.2;enable-background:new    ;" cx="388.42" cy="189.462" r="12.751"/>
<path style="fill:#333E48;" d="M127.593,275.338c-12.239,0-22.254-10.014-22.254-22.253V135.251
	c0-12.238,10.015-22.253,22.254-22.253h95.689c12.239,0,22.254,10.015,22.254,22.253v117.834c0,12.239-10.015,22.253-22.254,22.253
	H127.593L127.593,275.338z"/>
<rect x="129.816" y="137.475" style="fill:#61B4E4;" width="91.236" height="113.383"/>
<g>
	<path style="fill:#333E48;" d="M454.055,365.336h-164.68c-4.476,0-8.103-3.627-8.103-8.103s3.627-8.103,8.103-8.103h164.681
		c4.476,0,8.103,3.627,8.103,8.103S458.531,365.336,454.055,365.336z"/>
	<rect x="36.255" y="408.374" style="fill:#333E48;" width="351.656" height="43.538"/>
</g>
<g>
	<rect x="245.532" y="408.374" style="fill:#7D868C;" width="27.41" height="43.538"/>
	<rect x="305.805" y="408.374" style="fill:#7D868C;" width="27.409" height="43.538"/>
</g>
<polygon style="opacity:0.2;enable-background:new    ;" points="36.255,408.38 36.255,451.921 74.852,451.921 74.852,430.151 
	387.91,430.151 387.91,408.38 "/>
<path style="fill:#333E48;" d="M8.103,463.405c0,6.119,4.957,10.416,11.013,9.548l27.896-3.998
	c6.058-0.869,11.013-6.587,11.013-12.706v-52.195c0-6.119-4.957-11.837-11.013-12.706l-27.896-3.998
	c-6.058-0.869-11.013,3.429-11.013,9.548V463.405z"/>
<path style="fill:#7D868C;" d="M387.91,413.164h26.903c9.381,0,16.987,7.607,16.987,16.988s-7.607,16.988-16.987,16.988H387.91
	V413.164z"/>
<rect x="387.913" y="413.16" style="opacity:0.2;enable-background:new    ;" width="12.878" height="33.974"/>
<circle style="fill:#333E48;" cx="175.439" cy="342.764" r="36.645"/>
<path style="fill:#1E252B;" d="M482.556,65.905v-10.28c0-13.671-11.122-24.793-24.793-24.793H120.987
	c-13.671,0-24.793,11.122-24.793,24.793v10.28C79.876,66.39,66.75,79.806,66.75,96.238V386.12c0,5.109,1.275,9.923,3.512,14.152
	h-4.499c-1.658-8.568-8.796-15.684-17.601-16.945l-27.896-3.998c-0.896-0.129-1.802-0.194-2.694-0.194
	C7.718,379.135,0,386.937,0,396.897v66.508c0,9.96,7.718,17.761,17.573,17.762c0,0,0.001,0,0.002,0c0.889,0,1.794-0.065,2.691-0.194
	l27.896-3.998c8.807-1.263,15.946-8.379,17.602-16.95h322.145c3.292,0,6.118-1.965,7.386-4.784h19.517
	c13.835,0,25.09-11.255,25.09-25.09c0-5.042-1.501-9.737-4.07-13.673h45.809c16.738,0,30.357-13.618,30.357-30.357V96.239
	C512,79.807,498.874,66.391,482.556,65.905z M49.923,456.248c0,2.071-2.011,4.391-4.061,4.685l-27.895,3.998
	c-0.136,0.019-0.269,0.029-0.393,0.029c-0.338,0-1.369-0.001-1.369-1.557v-66.508c0-1.557,1.028-1.557,1.367-1.557
	c0.125,0,0.258,0.011,0.394,0.029l27.896,3.998c2.049,0.294,4.061,2.614,4.061,4.686C49.923,404.053,49.923,456.248,49.923,456.248z
	 M112.399,55.626c0-4.735,3.853-8.588,8.588-8.588h336.776c4.735,0,8.588,3.853,8.588,8.588v10.256H112.399V55.626z
	 M379.808,443.819H66.129v-27.342h313.679L379.808,443.819L379.808,443.819z M414.813,439.035h-18.8v-17.769h18.8
	c4.898,0,8.885,3.985,8.885,8.885C423.698,435.049,419.712,439.035,414.813,439.035z M495.795,386.121
	c0,7.803-6.348,14.152-14.152,14.152H97.107c-7.803,0-14.152-6.348-14.152-14.152V96.239c0-7.803,6.348-14.152,14.152-14.152
	h171.249c-2.238,4.229-3.512,9.043-3.512,14.152v186.445c0,16.738,13.617,30.356,30.356,30.356h186.445
	c5.109,0,9.923-1.275,14.152-3.512v76.594H495.795z M495.795,282.684c0,7.802-6.348,14.15-14.152,14.15H295.199
	c-7.802,0-14.15-6.348-14.15-14.15V96.239c0-7.803,6.348-14.152,14.15-14.152h186.445c7.803,0,14.152,6.348,14.152,14.152V282.684z
	 M175.437,298.02c-24.674,0-44.747,20.073-44.747,44.747c0,24.674,20.073,44.748,44.747,44.748s44.747-20.074,44.747-44.748
	C220.184,318.093,200.111,298.02,175.437,298.02z M175.437,371.311c-15.738,0-28.542-12.804-28.542-28.543
	c0-15.738,12.804-28.542,28.542-28.542s28.542,12.804,28.542,28.542C203.979,358.506,191.174,371.311,175.437,371.311z
	 M223.283,104.895h-95.689c-16.738,0-30.357,13.617-30.357,30.356v117.834c0,16.738,13.618,30.356,30.357,30.356h95.689
	c16.738,0,30.357-13.617,30.357-30.356V135.251C253.638,118.513,240.02,104.895,223.283,104.895z M237.433,253.085
	c0,7.802-6.348,14.15-14.152,14.15h-95.689c-7.803,0-14.152-6.348-14.152-14.15V135.251c0-7.802,6.348-14.15,14.152-14.15h95.689
	c7.803,0,14.152,6.348,14.152,14.15V253.085z"/>
<g>
</g>
<g>
</g>
<g>
</g>
<g>
</g>
<g>
</g>
<g>
</g>
<g>
</g>
<g>
</g>
<g>
</g>
<g>
</g>
<g>
</g>
<g>
</g>
<g>
</g>
<g>
</g>
<g>
</g>
</svg>
