<svg id="Layer_1" enable-background="new 0 0 66 66" height="512" viewBox="0 0 66 66" width="512" xmlns="http://www.w3.org/2000/svg"><g><g><g><path d="m56.1433 59.1135c0 10.7916-7.7471.7465-18.6163-1.3575-1.2023-.2424-2.4434-.3782-3.7233-.3782-1.4835 0-2.9573.1842-4.3825.4945-10.8401 2.3562-19.5568 11.8292-19.5568 1.2412 0-3.3451.8048-6.506 2.2495-9.3372 3.7136-7.3011 11.6643-12.343 20.8754-12.343s17.1716 5.0419 20.8948 12.343c1.4447 2.8312 2.2592 5.9921 2.2592 9.3372z" fill="#0e4a77"/></g></g><g><g><path d="m53.8841 49.7763c-4.4214 4.1693-10.0741 7.0296-16.3571 7.9798-1.4738.2133-2.9864.3296-4.528.3296-1.212 0-2.4046-.0678-3.5778-.2133-6.6611-.7757-12.6726-3.7233-17.3073-8.0961 3.7136-7.3011 11.6643-12.343 20.8754-12.343s17.1716 5.0419 20.8948 12.343z" fill="#073d6f"/></g></g><g><g><path d="m58.6264 27.6113c0 14.1508-11.4753 25.6261-25.6261 25.6261-14.1507 0-25.6261-11.4753-25.6261-25.6261 0-14.1662 11.4754-25.6416 25.6261-25.6416 14.1508.0001 25.6261 11.4754 25.6261 25.6416z" fill="#dfe9f4"/></g></g><g><g><ellipse cx="33" cy="28.052" fill="#afa7d4" rx="16.454" ry="16.454" transform="matrix(.924 -.383 .383 .924 -8.223 14.764)"/></g></g><g><g><path d="m49.453 28.0476c0 9.0948-7.3689 16.4541-16.454 16.4541-4.8674 0-9.2403-2.1137-12.246-5.4685 2.6857 1.9101 5.963 3.0251 9.502 3.0251 9.0851 0 16.454-7.3689 16.454-16.4541 0-4.2274-1.5901-8.0767-4.208-10.9855 4.208 2.9767 6.952 7.8829 6.952 13.4289z" fill="#9a95c4"/></g></g><g><ellipse cx="33" cy="28.052" fill="#0e4a77" rx="9.268" ry="9.268" transform="matrix(.924 -.383 .383 .924 -8.223 14.764)"/></g><g><g><path d="m36.6373 28.0517c0 2.014-1.6224 3.6364-3.6364 3.6364-1.8181 0-3.31-1.3147-3.5804-3.049-.0373-.1958-.0559-.3916-.0559-.5874 0-2.014 1.6224-3.6363 3.6363-3.6363.1399 0 .2798.0093.4103.0279 1.8182.1959 3.2261 1.7344 3.2261 3.6084z" fill="#dfe9f4"/></g><g fill="#003"><path d="m56.1396 58.1461c-.5359 0-.9696.4341-.9696.9696 0 2.8226-.57 3.5929-.909 3.8012-.9308.5695-3.3775-.678-5.9672-1.9998-3.9342-2.0069-8.8305-4.5047-14.489-4.5047-5.5108 0-10.6533 2.4122-14.7854 4.3509-3.0991 1.453-6.023 2.8245-7.1905 2.0855-.6533-.4152-.999-1.7063-.999-3.733 0-4.4705 1.5474-8.5936 4.1403-11.9752 4.7433 4.3823 11.0779 7.0665 18.0298 7.0665 6.9686 0 13.3163-2.6975 18.0634-7.0986 1.5957 2.0932 2.8017 4.4843 3.4837 7.1085.1354.5189.6638.828 1.1826.6945.5179-.1345.8285-.6638.6941-1.1822-.7706-2.9658-2.1481-5.661-3.9761-8.0028 4.4301-4.7526 7.1481-11.1209 7.1481-18.1153 0-10.2134-5.9577-19.6504-15.1784-24.0415-.4848-.2306-1.0614-.0237-1.2925.4583-.2301.4839-.0246 1.0624.4592 1.2925 8.5484 4.0711 14.0724 12.8211 14.0724 22.2908 0 13.5957-11.0604 24.6565-24.6565 24.6565s-24.6565-11.0608-24.6565-24.6564c0-13.6042 11.0604-24.6722 24.6565-24.6722 1.8303 0 3.6549.2012 5.4237.5984.5198.1169 1.0406-.2116 1.158-.7334.1174-.5227-.2112-1.0411-.7338-1.1585-1.908-.4284-3.8756-.6457-5.8479-.6457-14.6651 0-26.5957 11.9377-26.5957 26.6114 0 7.0147 2.7343 13.3994 7.1873 18.1564-2.9389 3.7439-4.7008 8.3467-4.7008 13.3479 0 2.8406.6032 4.5469 1.8975 5.3697 2.0651 1.31 5.1481-.1345 9.0549-1.9667 3.957-1.8568 8.8826-4.1672 13.9616-4.1672 5.1926 0 9.8588 2.3804 13.6075 4.2931 2.5727 1.3124 4.6179 2.3554 6.2598 2.3554.5823 0 1.1154-.1316 1.6021-.4294 1.2688-.7779 1.835-2.46 1.835-5.4549 0-.5355-.4336-.9696-.9696-.9696z"/><path d="m19.5014 35.6422c-.2632-.4654-.8531-.632-1.3209-.3683-.4659.2628-.6316.8541-.3683 1.3209 3.0877 5.4776 8.9072 8.8802 15.1878 8.8802 9.607 0 17.4234-7.816 17.4234-17.4234s-7.8164-17.4233-17.4234-17.4233-17.4234 7.816-17.4234 17.4234c0 1.8123.2774 3.5981.8247 5.3086.1629.5094.7054.7906 1.2186.6283.5104-.1633.7916-.7092.6278-1.2191-.4857-1.5188-.7319-3.1062-.7319-4.7178 0-8.5379 6.9463-15.4842 15.4842-15.4842s15.4842 6.9463 15.4842 15.4842-6.9463 15.4841-15.4842 15.4841c-5.5818 0-10.7546-3.0247-13.4986-7.8936z"/><path d="m43.2376 28.0516c0-5.6452-4.5923-10.2376-10.2376-10.2376s-10.2376 4.5923-10.2376 10.2376 4.5924 10.2381 10.2376 10.2381 10.2376-4.5928 10.2376-10.2381zm-18.536 0c0-4.5758 3.7231-8.2984 8.2984-8.2984s8.2984 3.7226 8.2984 8.2984c0 4.5762-3.7231 8.2989-8.2984 8.2989s-8.2984-3.7226-8.2984-8.2989z"/><path d="m37.6065 28.0516c0-2.3558-1.7593-4.321-4.0564-4.5677-.1752-.0251-.3617-.0379-.5492-.0379-2.5395 0-4.6056 2.0661-4.6056 4.6056 0 .2594.0246.5194.0672.7367.3494 2.2422 2.2573 3.8694 4.5384 3.8694 2.5396 0 4.6056-2.0661 4.6056-4.6061zm-7.2341.4034c-.0256-.1345-.0379-.2689-.0379-.4034 0-1.4705 1.1959-2.6664 2.6664-2.6664.0928 0 .1846.0052.3068.0223 1.3446.1449 2.3596 1.2816 2.3596 2.6441 0 1.4705-1.1959 2.6669-2.6664 2.6669-1.318 0-2.4211-.9374-2.6285-2.2635z"/></g></g><g><g><path d="m33.7469 25.8327c0 1.7062-1.38 3.0769-3.077 3.0769-.4382 0-.8671-.0933-1.2494-.2704-.0373-.1958-.0559-.3916-.0559-.5874 0-2.014 1.6224-3.6363 3.6363-3.6363.1399 0 .2798.0093.4103.0279.2145.4196.3357.8858.3357 1.3893z" fill="#003"/></g></g></g></svg>