<svg id="Layer_1" enable-background="new 0 0 512 512" viewBox="0 0 512 512" xmlns="http://www.w3.org/2000/svg"><path d="m256 236.215c-16.833 0-30.527-13.694-30.527-30.527s13.694-30.528 30.527-30.528 30.527 13.694 30.527 30.527-13.694 30.528-30.527 30.528z" fill="#3a3a56"/><path d="m279.949 173.028c-4.672-3.436-9.898-5.783-15.536-6.979l-1.101-.233-.372-1.062c-6.578-18.784-21.889-36.222-42.005-47.843-7.799-4.505-16.051-7.976-24.528-10.315l-4.559-1.258 4.078-2.395c18.176-10.671 38.949-16.312 60.074-16.312 3.532 0 7.167.167 10.803.496l.859.078.532.677c7.264 9.229 12.839 20.584 16.124 32.838 4.732 17.647 4.255 36.379-1.31 51.392l-.922 2.489z" fill="#c1c0e0"/><path d="m221.936 115.179c20.729 11.975 36.134 29.618 42.892 48.914 5.997 1.271 11.529 3.811 16.306 7.323 5.401-14.574 5.949-32.665 1.252-50.179-3.231-12.053-8.661-23.095-15.764-32.119-3.5-.316-7.042-.487-10.623-.487-21.528 0-41.713 5.851-59.06 16.037 8.563 2.363 17.008 5.897 24.997 10.511z" fill="#c1c0e0"/><path d="m296.055 199.52c-.873-5.688-2.925-11.038-6.099-15.904l-.616-.944.489-1.016c8.645-17.953 10.154-41.106 4.143-63.523-2.345-8.746-5.735-17.059-10.078-24.709l-2.341-4.123 4.587 1.201c24.07 6.303 45.276 19.81 61.325 39.061l.553.664-.104.857c-1.413 11.673-5.501 23.618-11.822 34.544-9.127 15.814-22.695 28.719-37.225 35.406l-2.41 1.109z" fill="#3a3a56"/><path d="m151.336 499.506v-17.326c0-9.538 7.76-17.298 17.297-17.298h174.734c9.554 0 17.326 7.773 17.326 17.327v17.298h-209.357z" fill="#c1c0e0"/><path d="m150.028 482.179v15.82h211.972v-15.79c0-8.723-7.096-15.82-15.819-15.82h-180.363c-8.707-.001-15.79 7.083-15.79 15.79z" fill="#4e5076"/><path d="m140.843 175.542c6.302-24.066 19.804-45.271 39.048-61.319l.664-.553.857.104c11.676 1.412 23.614 5.489 34.524 11.791 15.827 9.144 28.738 22.723 35.422 37.254l1.108 2.412-2.623.401c-5.686.87-11.034 2.918-15.9 6.089l-.944.616-1.017-.49c-10.583-5.104-23.13-7.803-36.281-7.803-9.006 0-18.179 1.235-27.261 3.671-8.725 2.344-17.027 5.732-24.676 10.073l-4.123 2.338z" fill="#3a3a56"/><g fill="#c1c0e0"><path d="m186.248 454.887-.014-1.986c-.096-14.224-3.566-28.451-10.037-41.146l-1.482-2.908h18.391l.523 1.198c5.873 13.426 9.022 28.236 9.107 42.83l.012 2.012z"/><path d="m309.243 454.887.009-2.009c.063-14.616 3.214-29.428 9.11-42.836l.525-1.195h18.415l-1.491 2.912c-6.598 12.885-9.975 26.726-10.036 41.137l-.009 1.991z"/><path d="m316.515 237.241c-9.568 0-18.88-1.575-26.93-4.555l-2.488-.921 1.571-2.139c3.434-4.675 5.78-9.902 6.973-15.537l.233-1.101 1.062-.372c18.784-6.586 36.21-21.891 47.81-41.989 4.521-7.813 8-16.073 10.343-24.551l1.259-4.557 2.394 4.077c10.673 18.179 16.314 38.958 16.314 60.09 0 3.521-.166 7.146-.492 10.774l-.077.858-.678.534c-9.262 7.295-20.618 12.872-32.843 16.125-8.073 2.165-16.299 3.263-24.447 3.263-.002.001-.003.001-.004.001z"/><path d="m153.282 265.761c-10.67-18.174-16.31-38.947-16.31-60.073 0-3.535.167-7.176.497-10.822l.078-.86.68-.533c9.244-7.252 20.588-12.821 32.804-16.103 8.086-2.168 16.32-3.268 24.475-3.268 9.572 0 18.885 1.577 26.93 4.561l2.489.923-1.574 2.138c-3.441 4.676-5.794 9.91-6.989 15.556l-.234 1.102-1.063.372c-18.777 6.561-36.205 21.86-47.815 41.977-4.505 7.814-7.976 16.075-10.314 24.551l-1.258 4.559z"/></g><path d="m88.519 398.852c-14.161 0-25.683-11.534-25.683-25.711v-334.935c0-14.178 11.521-25.712 25.683-25.712h334.963c14.177 0 25.711 11.534 25.711 25.712v334.935c0 14.177-11.534 25.711-25.711 25.711zm167.481-350.969c-86.998 0-157.775 70.791-157.775 157.804 0 86.998 70.777 157.776 157.775 157.776s157.775-70.778 157.775-157.776c0-87.013-70.777-157.804-157.775-157.804z" fill="#4e5076"/><path d="m256 353.469c-81.487 0-147.781-66.294-147.781-147.782 0-81.503 66.294-147.81 147.781-147.81s147.781 66.307 147.781 147.81c0 81.488-66.294 147.782-147.781 147.782zm0-276.832c-71.144 0-129.022 57.892-129.022 129.05 0 71.143 57.879 129.021 129.022 129.021 71.159 0 129.051-57.879 129.051-129.021 0-71.158-57.892-129.05-129.051-129.05z" fill="#c1c0e0"/><path d="m330.61 297.575c-11.66-1.409-23.604-5.487-34.541-11.791-15.821-9.151-28.728-22.72-35.413-37.229l-1.111-2.411 2.624-.403c5.69-.873 11.044-2.926 15.91-6.102l.944-.616 1.016.489c10.592 5.097 23.129 7.791 36.259 7.791 9.006 0 18.173-1.234 27.247-3.667 8.74-2.327 17.057-5.716 24.722-10.073l4.125-2.345-1.202 4.59c-6.301 24.067-19.807 45.271-39.059 61.319l-.663.553z" fill="#3a3a56"/><path d="m225.88 320.85c-24.066-6.299-45.27-19.802-61.318-39.05l-.553-.663.104-.857c1.41-11.667 5.488-23.617 11.795-34.557 9.135-15.827 22.702-28.727 37.226-35.394l2.409-1.106.401 2.621c.871 5.688 2.921 11.039 6.094 15.905l.615.944-.488 1.015c-8.618 17.921-10.126 41.069-4.135 63.51 2.341 8.735 5.738 17.048 10.096 24.708l2.347 4.125z" fill="#3a3a56"/><path d="m256 324.715c-3.521 0-7.146-.166-10.773-.493l-.858-.077-.533-.677c-7.289-9.255-12.874-20.609-16.151-32.833-4.715-17.66-4.241-36.384 1.3-51.374l.921-2.492 2.141 1.574c4.676 3.44 9.909 5.79 15.553 6.985l1.101.233.373 1.062c6.579 18.755 21.888 36.183 42 47.816 7.813 4.504 16.07 7.974 24.54 10.313l4.559 1.258-4.078 2.394c-18.183 10.671-38.962 16.311-60.095 16.311z" fill="#c1c0e0"/><path d="m504.526 106.004c3.852 0 6.974-3.122 6.974-6.974s-3.123-6.974-6.974-6.974h-43.613v-21.617h43.613c3.852 0 6.974-3.122 6.974-6.974s-3.123-6.974-6.974-6.974h-43.613v-18.008c0-20.757-16.887-37.644-37.644-37.644h-334.509c-20.757 0-37.644 16.887-37.644 37.644v18.008h-43.642c-3.852 0-6.974 3.122-6.974 6.974s3.123 6.974 6.974 6.974h43.642v21.616h-43.642c-3.852 0-6.974 3.122-6.974 6.974s3.123 6.974 6.974 6.974h43.642v21.616h-43.642c-3.852 0-6.974 3.122-6.974 6.974s3.123 6.974 6.974 6.974h43.642v21.615h-43.642c-3.852 0-6.974 3.122-6.974 6.974s3.123 6.974 6.974 6.974h43.642v21.616h-43.642c-3.852 0-6.974 3.122-6.974 6.974s3.123 6.974 6.974 6.974h43.642v21.645h-43.642c-3.852 0-6.974 3.122-6.974 6.974s3.123 6.974 6.974 6.974h43.642v21.616h-43.642c-3.852 0-6.974 3.122-6.974 6.974s3.123 6.974 6.974 6.974h43.642v21.615h-43.642c-3.852 0-6.974 3.122-6.974 6.974s3.123 6.974 6.974 6.974h43.642v21.616h-43.642c-3.852 0-6.974 3.122-6.974 6.974s3.123 6.974 6.974 6.974h43.642v18.009c0 20.757 16.887 37.643 37.644 37.643h334.509c20.757 0 37.644-16.886 37.644-37.643v-18.009h43.613c3.852 0 6.974-3.122 6.974-6.974s-3.123-6.974-6.974-6.974h-43.613v-21.616h43.613c3.852 0 6.974-3.122 6.974-6.974s-3.123-6.974-6.974-6.974h-43.613v-21.615h43.613c3.852 0 6.974-3.122 6.974-6.974s-3.123-6.974-6.974-6.974h-43.613v-21.613h43.613c3.852 0 6.974-3.122 6.974-6.974s-3.123-6.974-6.974-6.974h-43.613v-21.645h43.613c3.852 0 6.974-3.122 6.974-6.974s-3.123-6.974-6.974-6.974h-43.613v-21.616h43.613c3.852 0 6.974-3.122 6.974-6.974s-3.123-6.974-6.974-6.974h-43.613v-21.615h43.613c3.852 0 6.974-3.122 6.974-6.974s-3.123-6.974-6.974-6.974h-43.613v-21.616h43.613zm-57.562 266.988c0 13.065-10.63 23.694-23.695 23.694h-334.509c-13.066 0-23.695-10.629-23.695-23.694v-334.509c0-13.066 10.63-23.695 23.695-23.695h334.509c13.066 0 23.695 10.629 23.695 23.695zm-190.964-326.827c-87.981 0-159.558 71.578-159.558 159.558 0 87.997 71.578 159.587 159.558 159.587s159.558-71.59 159.558-159.587c.001-87.98-71.577-159.558-159.558-159.558zm0 305.197c-80.29 0-145.61-65.334-145.61-145.639 0-80.29 65.32-145.61 145.61-145.61s145.61 65.32 145.61 145.61c0 80.305-65.32 145.639-145.61 145.639zm0-276.48c-72.146 0-130.841 58.695-130.841 130.841 0 72.162 58.695 130.87 130.841 130.87 72.162 0 130.869-58.708 130.869-130.87.001-72.146-58.707-130.841-130.869-130.841zm116.434 141.457c-9.013 7.096-20.045 12.522-32.089 15.75-17.527 4.701-35.606 4.153-50.146-1.251 3.517-4.777 6.059-10.312 7.33-16.313 19.25-6.718 36.869-22.089 48.854-42.808 4.614-8.004 8.145-16.455 10.503-25.014 10.184 17.333 16.035 37.505 16.035 59.019 0 3.58-.17 7.119-.487 10.617zm-116.434 17.89c-15.718 0-28.505-12.787-28.505-28.506 0-15.717 12.787-28.505 28.505-28.505s28.505 12.787 28.505 28.505-12.787 28.506-28.505 28.506zm89.831-103.241c-1.377 11.397-5.333 23.011-11.526 33.755-9.087 15.709-22.254 28.096-36.337 34.553-.928-6.085-3.161-11.742-6.39-16.695 8.862-18.412 10.449-41.741 4.262-64.808-2.401-8.957-5.885-17.449-10.273-25.173 23.92 6.254 44.876 19.913 60.264 38.368zm-79.214-41.671c7.096 9.013 12.521 20.044 15.75 32.088 4.691 17.491 4.144 35.56-1.25 50.118-4.779-3.519-10.317-6.062-16.32-7.332-6.752-19.26-22.132-36.868-42.823-48.82-7.989-4.616-16.435-8.148-24.998-10.507 17.334-10.183 37.507-16.034 59.024-16.034 3.579 0 7.119.171 10.617.487zm-85.362 26.606c11.412 1.377 23.017 5.332 33.74 11.527 15.69 9.063 28.081 22.22 34.563 36.308-6.088.931-11.748 3.168-16.7 6.401-18.387-8.861-41.715-10.444-64.819-4.246-8.937 2.401-17.421 5.883-25.147 10.271 6.251-23.919 19.908-44.874 38.363-60.261zm-41.662 79.195c9.034-7.089 20.056-12.508 32.061-15.733 17.522-4.7 35.596-4.158 50.136 1.236-3.519 4.782-6.061 10.324-7.328 16.331-19.265 6.731-36.871 22.102-48.818 42.805-4.613 8.002-8.143 16.451-10.502 25.007-10.185-17.339-16.036-37.518-16.036-59.042.001-3.574.172-7.11.487-10.604zm26.605 85.366c1.378-11.397 5.333-23.01 11.53-33.759 9.06-15.699 22.217-28.084 36.309-34.546.933 6.087 3.172 11.747 6.408 16.698-8.865 18.382-10.449 41.706-4.259 64.791 2.382 8.947 5.864 17.445 10.269 25.189-23.918-6.253-44.871-19.913-60.257-38.373zm79.215 41.676c-7.129-9.05-12.554-20.079-15.751-32.09-4.699-17.521-4.153-35.593 1.245-50.131 4.771 3.509 10.297 6.045 16.287 7.314 6.743 19.254 22.128 36.874 42.84 48.854 8.001 4.612 16.448 8.142 25.003 10.501-17.339 10.186-37.516 16.037-59.037 16.037-3.569 0-7.098-.17-10.587-.485zm85.342-26.607c-11.395-1.378-23.005-5.334-33.746-11.526-15.703-9.083-28.1-22.25-34.577-36.337 6.085-.929 11.743-3.162 16.695-6.393 10.968 5.295 23.693 8 37.087 8 9.058 0 18.422-1.235 27.744-3.735 8.956-2.401 17.448-5.883 25.173-10.272-6.256 23.92-19.917 44.875-38.376 60.263zm12.501 157.098h-5.595c.031-9.078 1.606-18.007 4.759-26.617 1.325-3.617-.534-7.623-4.15-8.948-3.618-1.326-7.622.533-8.947 4.15-3.722 10.162-5.61 20.699-5.638 31.414h-12.477c.025-9.209 1.229-18.328 3.638-27.185 1.011-3.717-1.182-7.549-4.898-8.56-3.715-1.012-7.55 1.181-8.561 4.899-2.736 10.054-4.101 20.401-4.125 30.846h-82.505c-.042-10.393-1.423-20.738-4.17-30.845-1.011-3.718-4.847-5.907-8.56-4.901-3.717 1.011-5.911 4.843-4.9 8.56 2.422 8.91 3.642 18.028 3.684 27.186h-12.502c-.08-10.683-1.99-21.408-5.626-31.401-1.317-3.619-5.321-5.484-8.939-4.169-3.62 1.317-5.486 5.319-4.169 8.939 3.084 8.474 4.682 17.567 4.76 26.63h-5.562c-16.139 0-29.269 13.117-29.269 29.241v22.295c0 3.852 3.123 6.974 6.974 6.974h219.072c3.852 0 6.974-3.122 6.974-6.974v-22.268c.001-16.137-13.129-29.266-29.268-29.266zm15.32 44.561h-205.124v-15.321c0-8.432 6.873-15.292 15.321-15.292h174.483c8.448 0 15.321 6.873 15.321 15.32v15.293zm-272.23-445.027c-2.48-2.48-3.846-5.778-3.846-9.288s1.366-6.808 3.847-9.289c5.122-5.12 13.455-5.121 18.577 0v.001c5.122 5.121 5.122 13.455 0 18.576-2.48 2.481-5.779 3.847-9.289 3.847-3.509 0-6.808-1.367-9.289-3.847zm339.307-18.576c2.481 2.48 3.846 5.778 3.846 9.288s-1.366 6.808-3.847 9.289c-2.479 2.48-5.773 3.846-9.274 3.846s-6.795-1.367-9.275-3.848c-2.479-2.479-3.845-5.777-3.845-9.287s1.366-6.808 3.846-9.288c2.48-2.481 5.774-3.846 9.274-3.846 3.501-.001 6.795 1.365 9.275 3.846zm-320.729 325.68c5.121 5.12 5.121 13.454.001 18.576-2.562 2.562-5.926 3.842-9.291 3.842-3.364 0-6.727-1.28-9.288-3.84-2.481-2.482-3.847-5.78-3.847-9.29s1.366-6.808 3.847-9.289c5.123-5.119 13.456-5.121 18.578.001 0-.001 0-.001 0 0zm320.729-.001c2.481 2.481 3.847 5.779 3.847 9.289s-1.366 6.808-3.846 9.289c-2.481 2.481-5.775 3.846-9.275 3.846s-6.794-1.366-9.274-3.846c-5.121-5.123-5.121-13.457 0-18.577 2.48-2.481 5.774-3.846 9.274-3.846s6.794 1.366 9.274 3.845z"/></svg>