<svg id="Capa_1" enable-background="new 0 0 512 512" height="512" viewBox="0 0 512 512" width="512" xmlns="http://www.w3.org/2000/svg"><g><path d="m396.311 504.498h-280.622c-8.284 0-15-6.716-15-15v-466.996c0-8.284 6.716-15 15-15h280.623c8.284 0 15 6.716 15 15v466.996c-.001 8.284-6.716 15-15.001 15z" fill="#5c5c99"/><path d="m411.311 489.498v-233.498l-62.125 62.246v186.252h47.125c8.285 0 15-6.716 15-15z" fill="#ff6a4d"/><path d="m411.311 22.502c0-8.284-6.716-15-15-15h-31.062c8.284 0 15 6.716 15 15v264.621l31.062-31.123z" fill="#443d66"/><path d="m365.249 504.498h31.062c8.284 0 15-6.716 15-15v-233.498l-31.062 31.123v202.375c0 8.284-6.716 15-15 15z" fill="#e62e6b"/><path d="m100.689 256v233.498c0 8.284 6.716 15 15 15h47.125v-186.252z" fill="#ff6a4d"/><circle cx="256" cy="318.125" fill="#66e6ff" r="62.125"/><path d="m256 256c-5.172 0-10.196.632-15 1.823 27.064 6.71 47.125 31.163 47.125 60.301s-20.061 53.592-47.125 60.302c4.804 1.191 9.828 1.823 15 1.823 34.31 0 62.125-27.814 62.125-62.125s-27.815-62.124-62.125-62.124z" fill="#59c8ff"/><path d="m131.751 38.564h248.498v62.125h-248.498z" fill="#2f2c4c"/><path d="m131.751 131.751h248.498v62.125h-248.498z" fill="#2f2c4c"/><path d="m193.875 442.374h124.249v62.125h-124.249z" fill="#443d66"/><path d="m288.125 442.374h30v62.125h-30z" fill="#2f2c4c"/><g><path d="m271.942 301.43c16.283 14.384 5.81 41.856-15.943 41.747-21.752.107-32.227-27.363-15.942-41.747 3.089-2.759 3.356-7.5.597-10.59-2.759-3.091-7.501-3.357-10.59-.598-26.498 23.41-9.463 68.109 25.935 67.934 35.396.174 52.434-44.53 25.934-67.934-3.089-2.758-7.83-2.491-10.59.598-2.758 3.09-2.49 7.831.599 10.59z"/><path d="m248.5 285.572v23.248c.344 9.931 14.659 9.923 15 0v-23.248c-.344-9.931-14.659-9.923-15 0z"/><path d="m131.751 108.188h248.498c4.142 0 7.5-3.357 7.5-7.5v-62.124c0-4.143-3.358-7.5-7.5-7.5h-248.498c-4.142 0-7.5 3.357-7.5 7.5v62.124c0 4.143 3.358 7.5 7.5 7.5zm7.5-62.124h233.498v47.124h-233.498z"/><path d="m349.187 62.127h-31.062c-9.931.344-9.923 14.659 0 15h31.062c9.93-.344 9.923-14.66 0-15z"/><path d="m387.75 193.88v-62.13c0-4.143-3.358-7.5-7.5-7.5h-248.5c-4.142 0-7.5 3.357-7.5 7.5v62.13c0 4.143 3.358 7.5 7.5 7.5h108.88c9.931-.344 9.923-14.659 0-15h-101.38v-47.13h233.5v47.13h-99.43c-9.931.344-9.923 14.659 0 15h106.93c4.142 0 7.5-3.358 7.5-7.5z"/><path d="m418.81 132.56c-.344-9.931-14.659-9.923-15 0v120.339l-59.932 60.049c-1.403 1.406-2.191 3.312-2.191 5.298v178.754h-16.062v-54.627c0-4.143-3.358-7.5-7.5-7.5h-124.25c-4.142 0-7.5 3.357-7.5 7.5v54.627h-16.065v-76.44c-.344-9.931-14.659-9.923-15 0v76.44h-39.62c-4.136 0-7.5-3.364-7.5-7.5v-215.367l47.12 47.218v66.528c.344 9.931 14.659 9.923 15 0v-69.63c0-1.986-.788-3.892-2.191-5.298l-59.929-60.054v-230.397c0-4.136 3.364-7.5 7.5-7.5h280.62c4.136 0 7.5 3.364 7.5 7.5v77.38c.344 9.931 14.659 9.923 15 0v-77.38c0-12.406-10.093-22.5-22.5-22.5h-280.62c-12.407 0-22.5 10.094-22.5 22.5v467c0 12.406 10.093 22.5 22.5 22.5h280.62c12.407 0 22.5-10.094 22.5-22.5zm-217.435 317.313h109.249v47.125h-109.249zm194.935 47.127h-39.624v-175.651l47.124-47.216v215.367c0 4.136-3.364 7.5-7.5 7.5z"/><path d="m349.187 170.313c9.931-.344 9.923-14.659 0-15h-31.062c-9.931.344-9.923 14.659 0 15z"/><path d="m186.375 318.124c0 38.392 31.233 69.625 69.625 69.625 92.239-3.5 92.215-135.763-.001-139.249-38.39 0-69.624 31.233-69.624 69.624zm124.25 0c0 30.12-24.504 54.625-54.625 54.625-72.367-2.746-72.348-106.514.001-109.249 30.119 0 54.624 24.504 54.624 54.624z"/></g></g></svg>