<svg height="512pt" viewBox="0 -76 512.00102 512" width="512pt" xmlns="http://www.w3.org/2000/svg"><g fill-rule="evenodd"><path d="m262 310h220c11 0 20-9 20-20v-200c0-11-9-20-20-20h-190l-34.640625 60h-187.359375v160c0 11 9 20 20 20zm30-120c0-29.714844 14.402344-56.066406 36.605469-72.457031 14.9375-11.027344 33.40625-17.542969 53.394531-17.542969 12.828125 0 25.027344 2.683594 36.074219 7.523438 28.832031 12.628906 49.777343 39.933593 53.375 72.46875.363281 3.285156.550781 6.628906.550781 10.011718 0 29.714844-14.402344 56.066406-36.605469 72.457032-14.9375 11.023437-33.40625 17.542968-53.394531 17.542968-12.828125 0-25.027344-2.6875-36.074219-7.523437-28.832031-12.628907-49.773437-39.933594-53.375-72.46875-.363281-3.289063-.550781-6.628907-.550781-10.011719zm0 0" fill="#30b6c9"/><path d="m30 130h40v120h-40zm0 0" fill="#f4f4f4"/><path d="m142 310h60v40h-60zm0 0" fill="#ffa754"/><path d="m262 310h120v40h-120zm0 0" fill="#ffa754"/><path d="m202 310h90l-34.640625-60h-187.359375v40c0 11 9 20 20 20zm0 0" fill="#526998"/><path d="m70 130h187.359375l34.640625-60h-222zm0 0" fill="#526998"/><path d="m382 280c49.570312 0 90-40.429688 90-90s-40.429688-90-90-90-90 40.429688-90 90 40.429688 90 90 90zm0 0" fill="#526998"/><path d="m364.679688 180c-1.703126 2.941406-2.679688 6.355469-2.679688 10s.972656 7.0625 2.679688 10c3.457031 5.980469 9.917968 10 17.320312 10s13.863281-4.019531 17.320312-10c1.707032-2.941406 2.679688-6.355469 2.679688-10 0-3.640625-.972656-7.058594-2.679688-10-3.453124-5.976562-9.917968-10-17.320312-10s-13.863281 4.023438-17.320312 10zm0 0" fill="#30b6c9"/></g><path d="m482 60h-312c-5.523438 0-10 4.476562-10 10s4.476562 10 10 10h104.679688l-23.09375 40h-171.585938v-40h21.035156c5.523438 0 10-4.476562 10-10s-4.476562-10-10-10h-21.035156v-50c0-5.523438-4.476562-10-10-10h-60c-5.523438 0-10 4.476562-10 10s4.476562 10 10 10h50v100h-30c-5.523438 0-10 4.476562-10 10v120c0 5.523438 4.476562 10 10 10h30v30c0 16.542969 13.457031 30 30 30h42v30c0 5.523438 4.480469 10 10 10h60c5.523438 0 10-4.476562 10-10v-30h40v30c0 5.523438 4.476562 10 10 10h120c5.523438 0 10-4.476562 10-10v-30h90.003906c16.539063 0 29.996094-13.457031 29.996094-30v-200c0-16.542969-13.457031-30-30-30zm-442 110h20v40h-20zm20-30v10h-20v-10zm-20 90h20v10h-20zm40 60v-30h171.585938l23.09375 40h-184.679688c-5.515625 0-10-4.484375-10-10zm262 30v20h-10v-20zm-30 20h-10v-20h10zm-160-20h10v20h-10zm40 20h-10v-20h10zm80-20h10v20h-10zm100 20h-10v-20h10zm120-50c0 5.515625-4.484375 10-10 10h-184.226562l-31.753907-55c-1.785156-3.09375-5.089843-5-8.660156-5h-177.359375v-100h177.359375c3.570313 0 6.875-1.90625 8.660156-5l31.753907-55h184.226562c5.515625 0 10 4.488281 10 10zm0 0"/><path d="m481.304688 178.238281c-4.1875-35.566406-27.109376-65.480469-58.601563-79.570312-.417969-.21875-.84375-.40625-1.285156-.5625-12.101563-5.210938-25.425781-8.105469-39.417969-8.105469-21.777344 0-41.949219 7.003906-58.386719 18.867188-.640625.371093-1.234375.808593-1.773437 1.304687-24.179688 18.269531-39.839844 47.253906-39.839844 79.828125 0 3.554688.191406 7.066406.554688 10.523438.019531.417968.066406.832031.140624 1.238281 4.191407 35.621093 27.179688 65.570312 58.746094 79.632812.335938.167969.675782.320313 1.023438.449219 12.132812 5.242188 25.5 8.15625 39.535156 8.15625 21.773438 0 41.941406-7 58.378906-18.863281.644532-.371094 1.242188-.816407 1.789063-1.316407 24.175781-18.269531 39.832031-47.25 39.832031-79.820312 0-3.554688-.191406-7.066406-.554688-10.527344-.019531-.414062-.066406-.824218-.140624-1.234375zm-23.695313-14.328125c-19.121094-4.6875-40.167969-2.542968-55.636719 3.730469-2.675781-2.394531-5.789062-4.3125-9.199218-5.628906 2.703124-14.964844 12.371093-32.953125 26.023437-43.011719 18.046875 9.394531 32.078125 25.457031 38.8125 44.910156zm-75.609375 36.089844c-5.515625 0-10-4.484375-10-10 0-5.511719 4.484375-10 10-10s10 4.488281 10 10c0 5.515625-4.484375 10-10 10zm15.214844-88.53125c-13.617188 14.214844-22.289063 33.507812-24.589844 50.039062-3.480469 1.148438-6.679688 2.914063-9.472656 5.175782-11.605469-9.820313-22.351563-27.183594-24.242188-44.035156 12.449219-7.988282 27.230469-12.648438 43.089844-12.648438 5.203125 0 10.285156.515625 15.214844 1.46875zm-75.597656 26.148438c5.503906 18.875 17.863281 36.003906 31.015624 46.253906-.414062 1.980468-.632812 4.027344-.632812 6.128906 0 1.589844.125 3.148438.367188 4.667969-14.320313 5.140625-34.738282 5.761719-50.273438-1.039063-.054688-1.203125-.09375-2.410156-.09375-3.628906 0-20.023438 7.414062-38.335938 19.617188-52.382812zm-15.222657 78.476562c7.074219 1.734375 14.410157 2.542969 21.636719 2.542969 12.296875 0 24.25-2.324219 33.992188-6.277344 2.683593 2.398437 5.792968 4.316406 9.203124 5.632813-2.703124 14.964843-12.371093 32.953124-26.019531 43.011718-18.050781-9.394531-32.082031-25.457031-38.8125-44.910156zm60.390625 52.4375c13.621094-14.210938 22.289063-33.503906 24.589844-50.039062 3.480469-1.148438 6.679688-2.914063 9.46875-5.171876 11.609375 9.820313 22.355469 27.183594 24.246094 44.03125-12.449219 7.992188-27.230469 12.648438-43.089844 12.648438-5.203125 0-10.285156-.515625-15.214844-1.46875zm75.601563-26.144531c-5.507813-18.875-17.867188-36.003907-31.019531-46.253907.414062-1.980468.632812-4.03125.632812-6.132812 0-1.585938-.125-3.144531-.363281-4.667969 14.316406-5.140625 34.738281-5.757812 50.269531 1.042969.054688 1.203125.09375 2.410156.09375 3.625 0 20.023438-7.410156 38.339844-19.613281 52.386719zm0 0"/><path d="m257.359375 210h-41.035156c-5.523438 0-10 4.476562-10 10s4.476562 10 10 10h41.035156c5.523437 0 10-4.476562 10-10s-4.476563-10-10-10zm0 0"/><path d="m187.59375 210.003906h-.234375c-5.523437 0-10 4.476563-10 10 0 5.519532 4.476563 10 10 10h.234375c5.523438 0 10-4.480468 10-10 0-5.523437-4.476562-10-10-10zm0 0"/><path d="m129.765625 80h.269531c5.523438 0 10-4.476562 10-10s-4.476562-10-10-10h-.269531c-5.523437 0-10 4.476562-10 10s4.476563 10 10 10zm0 0"/></svg>