<svg height="512" viewBox="0 0 128 128" width="512" xmlns="http://www.w3.org/2000/svg"><path d="m123.5 40a5.31 5.31 0 0 0 -5.3-5.3h-57.827v-1.775a3.186 3.186 0 0 1 3.182-3.182h21.161a5.309 5.309 0 0 0 5.3-5.3v-3.892a5.309 5.309 0 0 0 -5.3-5.3h-36.424a3.185 3.185 0 0 1 -3.182-3.182v-2.478a1.061 1.061 0 1 0 -2.122 0v2.474a5.309 5.309 0 0 0 5.3 5.3h36.428a3.186 3.186 0 0 1 3.184 3.186v3.889a3.185 3.185 0 0 1 -3.182 3.182h-21.163a5.309 5.309 0 0 0 -5.3 5.3v1.767h-44.27a5.31 5.31 0 0 0 -5.3 5.3v51.523a5.309 5.309 0 0 0 5.3 5.3h5.894v2.913a18.165 18.165 0 0 0 4.948 12.459c.107 1.031.021 4.768-.037 7.3l-.025 1.115a2.988 2.988 0 0 0 2.989 3.052h17.923a2.994 2.994 0 0 0 2.991-2.99v-8.075a20.642 20.642 0 0 0 4.845-5.467l7.609-10.305h9.937l7.584 10.267a20.85 20.85 0 0 0 4.871 5.5v8.076a2.994 2.994 0 0 0 2.991 2.99h17.923a2.986 2.986 0 0 0 2.989-3.052l-.025-1.115c-.058-2.53-.144-6.267-.037-7.3a18.164 18.164 0 0 0 4.945-12.452v-2.913h5.9a5.309 5.309 0 0 0 5.3-5.3z" fill="#e6e7e8"/><rect fill="#6dc9f7" height="60.001" rx="4" width="112.697" x="5.5" y="31.511"/><path d="m114.2 31.511h-104.7a4 4 0 0 0 -4 4v3a4 4 0 0 1 4-4h104.7a4 4 0 0 1 4 4v-3a4 4 0 0 0 -4-4z" fill="#fff"/><g fill="#0089ef"><path d="m17.598 39.182h7.16v7.16h-7.16z"/><path d="m31.155 39.182h7.16v7.16h-7.16z"/><path d="m44.712 39.182h7.16v7.16h-7.16z"/><path d="m58.269 39.182h7.16v7.16h-7.16z"/><path d="m71.825 39.182h7.16v7.16h-7.16z"/><path d="m85.382 39.182h7.16v7.16h-7.16z"/><path d="m98.939 39.182h7.16v7.16h-7.16z"/><path d="m10.82 51.91h7.16v7.16h-7.16z"/><path d="m26.89 57.369a3.606 3.606 0 0 1 3.838 1.7h.808v-7.159h-7.159v7.16h.19a3.509 3.509 0 0 1 2.323-1.701z"/><path d="m37.933 51.91h7.16v7.16h-7.16z"/><path d="m51.49 51.91h7.16v7.16h-7.16z"/><path d="m65.047 51.91h7.16v7.16h-7.16z"/><path d="m78.604 51.91h7.16v7.16h-7.16z"/><path d="m96.807 57.369a3.507 3.507 0 0 1 2.322 1.7h.191v-7.159h-7.16v7.16h.809a3.6 3.6 0 0 1 3.838-1.701z"/><path d="m105.717 51.91h7.16v7.16h-7.16z"/><path d="m16.77 71.66a3.871 3.871 0 0 1 1.21-2.817v-4.2h-7.16v7.157h5.95z"/><path d="m51.49 64.638h7.16v7.16h-7.16z"/><path d="m65.047 64.638h7.16v7.16h-7.16z"/><path d="m105.717 64.638v4.2a3.875 3.875 0 0 1 1.21 2.817v.145h5.95v-7.16z"/><path d="m77.965 77.367h-32.233v7.159h6.968a3.6 3.6 0 0 1 4.042 0h10.22a3.6 3.6 0 0 1 4.043 0h6.964z"/></g><path d="m104.021 67.972a3.623 3.623 0 0 0 -4.332 3.551l-.01-10.473a3.708 3.708 0 0 0 -2.872-3.681 3.623 3.623 0 0 0 -4.366 3.544 3.623 3.623 0 0 0 -4.333-3.551 3.709 3.709 0 0 0 -2.908 3.688v5.465a3.622 3.622 0 0 0 -4.333-3.55 3.709 3.709 0 0 0 -2.905 3.688v26.123l-6.172-7.547a3.619 3.619 0 0 0 -5.623 4.557l9.171 12.414c3.23 4.761 5.067 5.493 5.067 5.493v8.722a1.856 1.856 0 0 0 1.857 1.857h17.923a1.853 1.853 0 0 0 1.857-1.894c-.083-3.746-.227-8.722.045-9a17.079 17.079 0 0 0 4.84-11.894v-23.824a3.709 3.709 0 0 0 -2.906-3.688z" fill="#ffd7e5"/><path d="m19.675 67.972a3.623 3.623 0 0 1 4.333 3.551l.01-10.473a3.707 3.707 0 0 1 2.872-3.681 3.623 3.623 0 0 1 4.366 3.544 3.622 3.622 0 0 1 4.332-3.551 3.71 3.71 0 0 1 2.906 3.688v5.465a3.621 3.621 0 0 1 4.332-3.55 3.709 3.709 0 0 1 2.906 3.688v26.123l6.175-7.547a3.619 3.619 0 1 1 5.623 4.557l-9.171 12.414c-3.231 4.761-5.067 5.493-5.067 5.493v8.722a1.857 1.857 0 0 1 -1.857 1.857h-17.923a1.853 1.853 0 0 1 -1.857-1.894c.082-3.746.227-8.722-.045-9a17.079 17.079 0 0 1 -4.84-11.894v-23.824a3.708 3.708 0 0 1 2.905-3.688z" fill="#ffd7e5"/><path d="m114.2 30.511h-58.13v-1.828a3.247 3.247 0 0 1 3.243-3.244h21.161a5.248 5.248 0 0 0 5.242-5.239v-3.892a5.249 5.249 0 0 0 -5.242-5.243h-36.425a3.246 3.246 0 0 1 -3.242-3.243v-2.474a1 1 0 1 0 -2 0v2.474a5.248 5.248 0 0 0 5.242 5.243h36.425a3.246 3.246 0 0 1 3.242 3.243v3.892a3.245 3.245 0 0 1 -3.242 3.242h-21.161a5.25 5.25 0 0 0 -5.243 5.244v1.828h-44.57a5.006 5.006 0 0 0 -5 5v52a5.006 5.006 0 0 0 5 5h6.2v2.973a18.1 18.1 0 0 0 4.946 12.431c.11 1 .025 4.749-.034 7.283l-.025 1.158a2.92 2.92 0 0 0 2.924 2.988h17.924a2.929 2.929 0 0 0 2.925-2.926v-8.121a20.589 20.589 0 0 0 4.858-5.463l7.626-10.327h10.008l7.6 10.292a20.78 20.78 0 0 0 4.882 5.5v8.117a2.929 2.929 0 0 0 2.926 2.926h17.923a2.923 2.923 0 0 0 2.924-2.987l-.025-1.122c-.059-2.548-.146-6.314-.034-7.319a18.105 18.105 0 0 0 4.952-12.432v-2.973h6.2a5.006 5.006 0 0 0 5-5v-21.762a1 1 0 0 0 -2 0v21.762a3 3 0 0 1 -3 3h-6.2v-17.712h4.882a1 1 0 0 0 1-1v-7.161a1 1 0 0 0 -1-1h-7.16a1 1 0 0 0 -1 1v2.427a4.385 4.385 0 0 0 -.5-.143 4.719 4.719 0 0 0 -3.469.67l-.006-6.542a4.95 4.95 0 0 0 -.427-1.984v-7.157a1 1 0 0 0 -1-1h-7.16a1 1 0 0 0 -1 1v4.949a4.734 4.734 0 0 0 -3.252-.546 4.43 4.43 0 0 0 -1.145.406v-4.809a1 1 0 0 0 -1-1h-7.163a1 1 0 0 0 -1 1v7.16a1 1 0 0 0 1 1h5.64a5.046 5.046 0 0 0 -.1.981v1.532a4.688 4.688 0 0 0 -7.24 4.069v9.714h-30.1v-9.714a4.686 4.686 0 0 0 -7.237-4.069v-1.532a4.97 4.97 0 0 0 -.106-.981h5.636a1 1 0 0 0 1-1v-7.16a1 1 0 0 0 -1-1h-7.159a1 1 0 0 0 -1 1v4.809a4.45 4.45 0 0 0 -1.146-.406 4.731 4.731 0 0 0 -3.252.546v-4.949a1 1 0 0 0 -1-1h-7.159a1 1 0 0 0 -1 1v7.154a4.961 4.961 0 0 0 -.428 1.986l-.006 6.543a4.713 4.713 0 0 0 -3.467-.67 4.359 4.359 0 0 0 -.5.143v-2.427a1 1 0 0 0 -1-1h-7.156a1 1 0 0 0 -1 1v7.161a1 1 0 0 0 1 1h4.88v17.712h-6.2a3 3 0 0 1 -3-3v-52a3 3 0 0 1 3-3h104.7a3 3 0 0 1 3 3v14.071a1 1 0 0 0 2 0v-14.072a5.006 5.006 0 0 0 -5-5zm-67.4 59.273v-4.258h3.484zm11.521.728.039-.054a4.679 4.679 0 0 0 .586-4.932h5.8a4.68 4.68 0 0 0 -.433 1.494 4.63 4.63 0 0 0 .992 3.4l.067.091zm18.579-.728-3.482-4.258h3.482zm34.981-24.145v5.161h-3.956a4.879 4.879 0 0 0 -1.2-2.446v-2.715zm-13.561-12.729v3.912a4.409 4.409 0 0 0 -1.3-.5 4.712 4.712 0 0 0 -3.856.913v-4.325zm-18.716 0h5.159v5.16h-5.163zm-1.28 40.872a1.067 1.067 0 0 0 .709-1.006v-26.124a2.655 2.655 0 0 1 2.037-2.638 2.555 2.555 0 0 1 3.065 2.5v15.058a1.068 1.068 0 1 0 2.136 0v-20.521a2.658 2.658 0 0 1 2.038-2.64 2.553 2.553 0 0 1 3.063 2.5v20.661a1.069 1.069 0 1 0 2.137 0v-20.659a2.554 2.554 0 0 1 3.089-2.5 2.626 2.626 0 0 1 2.012 2.636l.011 10.471v10.052a1.069 1.069 0 1 0 2.137 0v-10.05a2.557 2.557 0 0 1 3.063-2.5 2.659 2.659 0 0 1 2.037 2.64v23.823a15.988 15.988 0 0 1 -4.538 11.151c-.468.483-.551.822-.371 8.65l.026 1.119a.787.787 0 0 1 -.79.8h-17.923a.789.789 0 0 1 -.789-.789v-8.716a1.113 1.113 0 0 0 -.645-.98c-.016-.008-1.7-.823-4.631-5.148l-9.197-12.459a2.548 2.548 0 0 1 1.978-4.155 2.556 2.556 0 0 1 1.989.946l6.175 7.548a1.064 1.064 0 0 0 1.182.33zm-1.424-15.416v5.16h-5.485a4.674 4.674 0 0 0 -4.869 0h-9.39a4.574 4.574 0 0 0 -4.882 0h-5.474v-5.16zm-37.966-25.456h5.159v5.16h-5.159zm-8.4 0v4.325a4.717 4.717 0 0 0 -3.855-.913 4.434 4.434 0 0 0 -1.3.5v-3.912zm-10.658 16.11a2.555 2.555 0 0 1 3.063 2.5v10.05a1.069 1.069 0 1 0 2.137 0v-10.047l.01-10.472a2.627 2.627 0 0 1 2.014-2.635 2.555 2.555 0 0 1 3.089 2.5v20.656a1.068 1.068 0 1 0 2.136 0v-20.659a2.553 2.553 0 0 1 3.064-2.5 2.658 2.658 0 0 1 2.038 2.64v20.519a1.069 1.069 0 1 0 2.137 0v-15.056a2.552 2.552 0 0 1 3.063-2.5 2.655 2.655 0 0 1 2.037 2.638v26.122a1.069 1.069 0 0 0 1.9.677l6.173-7.553a2.552 2.552 0 1 1 3.934 3.251l-9.2 12.453c-2.9 4.279-4.581 5.1-4.579 5.1a1.068 1.068 0 0 0 -.672.992v8.722a.79.79 0 0 1 -.789.789h-17.919a.787.787 0 0 1 -.567-.237.777.777 0 0 1 -.222-.566l.026-1.157c.178-7.791.1-8.128-.371-8.611a15.987 15.987 0 0 1 -4.54-11.152v-23.824a2.658 2.658 0 0 1 2.038-2.64zm-8.056-3.381h5.159v2.713a4.877 4.877 0 0 0 -1.2 2.446h-3.959z" fill="#3a2c60"/><path d="m118.2 52.5a1 1 0 0 0 -1 1v8.012a1 1 0 0 0 2 0v-8.012a1 1 0 0 0 -1-1z" fill="#3a2c60"/><path d="m25.758 46.342v-7.16a1 1 0 0 0 -1-1h-7.158a1 1 0 0 0 -1 1v7.16a1 1 0 0 0 1 1h7.159a1 1 0 0 0 .999-1zm-2-1h-5.158v-5.16h5.159z" fill="#3a2c60"/><path d="m31.155 38.182a1 1 0 0 0 -1 1v7.16a1 1 0 0 0 1 1h7.159a1 1 0 0 0 1-1v-7.16a1 1 0 0 0 -1-1zm6.159 7.16h-5.159v-5.16h5.159z" fill="#3a2c60"/><path d="m52.871 46.342v-7.16a1 1 0 0 0 -1-1h-7.159a1 1 0 0 0 -1 1v7.16a1 1 0 0 0 1 1h7.159a1 1 0 0 0 1-1zm-2-1h-5.159v-5.16h5.159z" fill="#3a2c60"/><path d="m66.428 46.342v-7.16a1 1 0 0 0 -1-1h-7.159a1 1 0 0 0 -1 1v7.16a1 1 0 0 0 1 1h7.159a1 1 0 0 0 1-1zm-2-1h-5.159v-5.16h5.159z" fill="#3a2c60"/><path d="m79.984 46.342v-7.16a1 1 0 0 0 -1-1h-7.159a1 1 0 0 0 -1 1v7.16a1 1 0 0 0 1 1h7.159a1 1 0 0 0 1-1zm-2-1h-5.159v-5.16h5.159z" fill="#3a2c60"/><path d="m85.382 38.182a1 1 0 0 0 -1 1v7.16a1 1 0 0 0 1 1h7.159a1 1 0 0 0 1-1v-7.16a1 1 0 0 0 -1-1zm6.159 7.16h-5.159v-5.16h5.159z" fill="#3a2c60"/><path d="m107.1 46.342v-7.16a1 1 0 0 0 -1-1h-7.162a1 1 0 0 0 -1 1v7.16a1 1 0 0 0 1 1h7.162a1 1 0 0 0 1-1zm-2-1h-5.162v-5.16h5.162z" fill="#3a2c60"/><path d="m10.82 50.91a1 1 0 0 0 -1 1v7.16a1 1 0 0 0 1 1h7.159a1 1 0 0 0 1-1v-7.16a1 1 0 0 0 -1-1zm6.159 7.16h-5.159v-5.16h5.159z" fill="#3a2c60"/><path d="m59.649 51.91a1 1 0 0 0 -1-1h-7.159a1 1 0 0 0 -1 1v7.16a1 1 0 0 0 1 1h7.159a1 1 0 0 0 1-1zm-2 6.16h-5.159v-5.16h5.159z" fill="#3a2c60"/><path d="m73.206 51.91a1 1 0 0 0 -1-1h-7.159a1 1 0 0 0 -1 1v7.16a1 1 0 0 0 1 1h7.159a1 1 0 0 0 1-1zm-2 6.16h-5.159v-5.16h5.159z" fill="#3a2c60"/><path d="m105.717 60.07h7.16a1 1 0 0 0 1-1v-7.16a1 1 0 0 0 -1-1h-7.16a1 1 0 0 0 -1 1v7.16a1 1 0 0 0 1 1zm1-7.16h5.16v5.16h-5.16z" fill="#3a2c60"/><path d="m51.49 72.8h7.159a1 1 0 0 0 1-1v-7.161a1 1 0 0 0 -1-1h-7.159a1 1 0 0 0 -1 1v7.161a1 1 0 0 0 1 1zm1-7.159h5.159v5.159h-5.159z" fill="#3a2c60"/><path d="m65.047 72.8h7.159a1 1 0 0 0 1-1v-7.161a1 1 0 0 0 -1-1h-7.159a1 1 0 0 0 -1 1v7.161a1 1 0 0 0 1 1zm1-7.159h5.159v5.159h-5.159z" fill="#3a2c60"/></svg>