<svg id="Layer_1" height="512" viewBox="0 0 512 512" width="512" xmlns="http://www.w3.org/2000/svg" data-name="Layer 1"><path d="m213.333 341.333h85.333v96h-85.333z" fill="#263f52"/><rect fill="#2d4a60" height="309.333" rx="32" width="469.333" x="21.333" y="64"/><path d="m32.756 71.529a31.932 31.932 0 0 0 -11.423 24.471v245.333a32.035 32.035 0 0 0 32 32h405.334a31.843 31.843 0 0 0 20.577-7.529z" fill="#263f52"/><rect fill="#00aae5" height="245.333" rx="16" width="426.667" x="42.667" y="85.333"/><path d="m54.594 85.922a15.96 15.96 0 0 0 -11.927 15.411v213.334a16 16 0 0 0 16 16h368z" fill="#009ae0"/><path d="m421.333 416h-330.666a26.667 26.667 0 0 0 -26.667 26.667 5.333 5.333 0 0 0 5.333 5.333h373.334a5.333 5.333 0 0 0 5.333-5.333 26.667 26.667 0 0 0 -26.667-26.667z" fill="#2d4a60"/><circle cx="256" cy="352" fill="#eaeff0" r="10.667"/></svg>