<svg id="Capa_1" enable-background="new 0 0 512 512" height="512" viewBox="0 0 512 512" width="512" xmlns="http://www.w3.org/2000/svg"><g><g><g clip-rule="evenodd" fill-rule="evenodd"><path d="m233.5 119.999v75c0 12.376 10.125 22.5 22.5 22.5s22.5-10.124 22.5-22.5v-75c0-12.376-10.125-22.5-22.5-22.5s-22.5 10.125-22.5 22.5z" fill="#adb9c8"/><path d="m233.499 22.5h45.002v30h-45.002z" fill="#f7bd83"/><path d="m233.499 52.5v-45h-45l-59.999 45v324.5l67.501 59.999h119.998l67.501-59.999v-324.5l-59.999-45h-44.999v45zm.001 142.499v-75c0-12.375 10.125-22.5 22.5-22.5s22.5 10.124 22.5 22.5v75c0 12.375-10.125 22.5-22.5 22.5s-22.5-10.124-22.5-22.5z" fill="#faef93"/><path d="m315.999 436.999h-119.998l-67.501-59.999c0 70.125 57.375 127.5 127.5 127.5s127.5-57.375 127.5-127.5z" fill="#adb9c8"/><path d="m383.5 107.813v269.187l52.499-51.689v-179.998c0-13.95-5.065-18.526-15-22.5zm-255 269.187v-269.187l-37.499 15c-9.936 3.974-15 8.55-15 22.5v179.998z" fill="#adb9c8"/><path d="m383.5 339.5v37.5l52.499-51.689v-37.5zm-255 37.5v-37.5l-52.499-51.69v37.5z" fill="#92a2b5"/><path d="m151 35.625-22.5 16.875v324.5l24.36 21.653c-1.218-7.043-1.86-14.276-1.86-21.653z" fill="#f7bd83"/><path d="m152.86 398.653-24.36-21.653c0 70.125 57.375 127.5 127.5 127.5 3.79 0 7.541-.178 11.25-.506-57.689-5.106-104.656-49.054-114.39-105.341z" fill="#92a2b5"/><path d="m233.5 172.499v22.5c0 12.376 10.125 22.5 22.5 22.5s22.5-10.124 22.5-22.5v-22.5c0 12.375-10.125 22.5-22.5 22.5s-22.5-10.124-22.5-22.5z" fill="#92a2b5"/></g><g><path d="m361 112.5h-15v-15h15zm0-30h-15v-15h15z" fill="#fff"/></g></g><g><path d="m443.499 145.313c0-17.907-7.881-24.73-19.715-29.463l-32.784-13.114v-53.986l-64.999-48.75h-55v15h-30.002v-15h-55l-65 48.75v53.986l-32.784 13.114c-11.833 4.733-19.714 11.555-19.714 29.463v30h15v-30c0-10.437 2.821-12.55 10.286-15.536l27.213-10.886v240.199l-37.499-36.92v-131.858h-15v138.139l52.539 51.73c1.697 72.975 61.584 131.819 134.96 131.819s133.264-58.844 134.96-131.82l52.539-51.729zm-172.498-115.313v15h-30.002v-15zm-15.001 179.999c-8.271 0-15-6.729-15-15v-75c0-8.271 6.729-15 15-15s15 6.729 15 15v75c0 8.271-6.729 15-15 15zm0 287.001c-60.091 0-110.003-44.399-118.666-102.113l55.815 49.612h40.351v-15h-34.647l-62.853-55.868v-317.381l55-41.25h35v45h22.5v30.948c-12.925 3.339-22.5 15.097-22.5 29.051v75c0 13.953 9.575 25.711 22.5 29.05v128.451h15v-128.45c12.924-3.339 22.5-15.097 22.5-29.05v-75c0-13.953-9.575-25.712-22.5-29.051v-30.949h22.501v-45h35l54.999 41.25v317.382l-62.853 55.867h-34.647v15h40.351l55.815-49.612c-8.663 57.714-58.575 102.113-118.666 102.113zm172.499-174.83-37.499 36.921v-240.2l27.213 10.885c7.466 2.986 10.286 5.099 10.286 15.536z"/><path d="m248.5 429.499h15v15h-15z"/></g></g></svg>