<?xml version="1.0" encoding="iso-8859-1"?>
<!-- Generator: Adobe Illustrator 19.0.0, SVG Export Plug-In . SVG Version: 6.00 Build 0)  -->
<svg version="1.1" id="Capa_1" xmlns="http://www.w3.org/2000/svg" xmlns:xlink="http://www.w3.org/1999/xlink" x="0px" y="0px"
	 viewBox="0 0 480 480" style="enable-background:new 0 0 480 480;" xml:space="preserve">
<path style="fill:#898890;" d="M216,472h160l-40-40h-64h-24h24v-56h-56V472z"/>
<g>
	<path style="fill:#E0E0E2;" d="M216,344V8H8v464h208V344z M72,376c-8.837,0-16-7.163-16-16s7.163-16,16-16s16,7.163,16,16
		S80.837,376,72,376z M152,376c-8.837,0-16-7.163-16-16s7.163-16,16-16s16,7.163,16,16S160.837,376,152,376z"/>
	<path style="fill:#E0E0E2;" d="M456,104H216v32v208v32h240c8.837,0,16-7.163,16-16V120C472,111.163,464.837,104,456,104z M440,344
		V136V344z"/>
</g>
<g>
	<circle style="fill:#2488FF;" cx="72" cy="360" r="16"/>
	<circle style="fill:#2488FF;" cx="152" cy="360" r="16"/>
	<path style="fill:#2488FF;" d="M216,136h224v208H216V136z"/>
</g>
<g>
	<path style="fill:#231F20;" d="M456,96H224V8c0-4.418-3.582-8-8-8H8C3.582,0,0,3.582,0,8v464c0,4.418,3.582,8,8,8h368
		c4.418-0.001,7.999-3.583,7.998-8.002c0-2.121-0.843-4.154-2.342-5.654l-40-40c-1.5-1.5-3.534-2.344-5.656-2.344h-56v-40h176
		c13.255,0,24-10.745,24-24V120C480,106.745,469.255,96,456,96z M16,16h192v448H16V16z M264,424h-16c-4.418,0-8,3.582-8,8
		s3.582,8,8,8h84.688l24,24H224v-80h40V424z M464,360c0,4.418-3.582,8-8,8H224v-16h32v-16h-32V144h32v-16h-32v-16h232
		c4.418,0,8,3.582,8,8V360z"/>
	<path style="fill:#231F20;" d="M272,144h160v192h-96v16h112V128H272V144z"/>
	<path style="fill:#231F20;" d="M304,336h16v16h-16V336z"/>
	<path style="fill:#231F20;" d="M272,336h16v16h-16V336z"/>
	<path style="fill:#231F20;" d="M40,128h144v16H40V128z"/>
	<path style="fill:#231F20;" d="M40,160h144v16H40V160z"/>
	<path style="fill:#231F20;" d="M72,336c-13.255,0-24,10.745-24,24s10.745,24,24,24s24-10.745,24-24S85.255,336,72,336z M72,368
		c-4.418,0-8-3.582-8-8s3.582-8,8-8s8,3.582,8,8S76.418,368,72,368z"/>
	<path style="fill:#231F20;" d="M176,360c0-13.255-10.745-24-24-24s-24,10.745-24,24s10.745,24,24,24S176,373.255,176,360z M152,368
		c-4.418,0-8-3.582-8-8s3.582-8,8-8s8,3.582,8,8S156.418,368,152,368z"/>
	<path style="fill:#231F20;" d="M40,408h16v32H40V408z"/>
	<path style="fill:#231F20;" d="M72,408h16v32H72V408z"/>
	<path style="fill:#231F20;" d="M104,408h16v32h-16V408z"/>
	<path style="fill:#231F20;" d="M136,408h16v32h-16V408z"/>
	<path style="fill:#231F20;" d="M168,408h16v32h-16V408z"/>
</g>
<g>
</g>
<g>
</g>
<g>
</g>
<g>
</g>
<g>
</g>
<g>
</g>
<g>
</g>
<g>
</g>
<g>
</g>
<g>
</g>
<g>
</g>
<g>
</g>
<g>
</g>
<g>
</g>
<g>
</g>
</svg>
