<svg id="Layer_11" height="512" viewBox="0 0 60 60" width="512" xmlns="http://www.w3.org/2000/svg" data-name="Layer 11"><path d="m59 3v24a4 4 0 0 0 -4-4v-17a1 1 0 0 0 -1-1h-48a1 1 0 0 0 -1 1v17a4 4 0 0 0 -4 4v-24a2.006 2.006 0 0 1 2-2h54a2.006 2.006 0 0 1 2 2z" fill="#607d8b"/><path d="m57 1h-3a2.006 2.006 0 0 1 2 2v20.141a3.989 3.989 0 0 1 3 3.859v-24a2.006 2.006 0 0 0 -2-2z" fill="#37474f"/><path d="m15 35h30v8h-30z" fill="#3f51b5"/><path d="m23 43h14v4h-14z" fill="#00bcd4"/><path d="m42 51h-24l5-4h14z" fill="#3f51b5"/><path d="m42 51v2a2.006 2.006 0 0 1 -2 2h-20a2.006 2.006 0 0 1 -2-2v-2z" fill="#607d8b"/><path d="m11 23h-6a4 4 0 0 0 -4 4v20a4 4 0 0 0 4 4h6a4 4 0 0 0 4-4v-20a4 4 0 0 0 -4-4zm-3 23a4 4 0 1 1 4-4 4 4 0 0 1 -4 4zm0-11a4 4 0 1 1 4-4 4 4 0 0 1 -4 4z" fill="#02a9f4"/><path d="m6 51h4v4h-4z" fill="#3f51b5"/><path d="m13 57v1a1 1 0 0 1 -1 1h-8a1 1 0 0 1 -1-1v-1a2.006 2.006 0 0 1 2-2h6a2.006 2.006 0 0 1 2 2z" fill="#607d8b"/><circle cx="8" cy="31" fill="#3f51b5" r="4"/><circle cx="8" cy="42" fill="#3f51b5" r="4"/><path d="m55 23h-6a4 4 0 0 0 -4 4v20a4 4 0 0 0 4 4h6a4 4 0 0 0 4-4v-20a4 4 0 0 0 -4-4zm-3 23a4 4 0 1 1 4-4 4 4 0 0 1 -4 4zm0-11a4 4 0 1 1 4-4 4 4 0 0 1 -4 4z" fill="#02a9f4"/><path d="m55 23h-3a4 4 0 0 1 4 4v20a4 4 0 0 1 -4 4h3a4 4 0 0 0 4-4v-20a4 4 0 0 0 -4-4z" fill="#0377bc"/><path d="m55 6v17h-6a4 4 0 0 0 -4 4v8h-30v-8a4 4 0 0 0 -4-4h-6v-17a1 1 0 0 1 1-1h48a1 1 0 0 1 1 1z" fill="#00bcd4"/><path d="m50 51h4v4h-4z" fill="#3f51b5"/><path d="m50 51h4v4h-4z" fill="#3f51b5"/><path d="m57 57v1a1 1 0 0 1 -1 1h-8a1 1 0 0 1 -1-1v-1a2.006 2.006 0 0 1 2-2h6a2.006 2.006 0 0 1 2 2z" fill="#607d8b"/><path d="m55 55h-3a2.006 2.006 0 0 1 2 2v1a1 1 0 0 1 -1 1h3a1 1 0 0 0 1-1v-1a2.006 2.006 0 0 0 -2-2z" fill="#545c60"/><circle cx="52" cy="31" fill="#3f51b5" r="4"/><path d="m52 27a3.983 3.983 0 0 0 -1.5.3 3.994 3.994 0 0 1 0 7.408 4 4 0 1 0 1.5-7.708z" fill="#283593"/><circle cx="52" cy="42" fill="#3f51b5" r="4"/><path d="m52 38a3.983 3.983 0 0 0 -1.5.3 3.994 3.994 0 0 1 0 7.408 4 4 0 1 0 1.5-7.708z" fill="#283593"/><path d="m9 12a1 1 0 0 1 -.707-1.707l2-2a1 1 0 0 1 1.414 1.414l-2 2a1 1 0 0 1 -.707.293z" fill="#fff"/><path d="m9 17a1 1 0 0 1 -.707-1.707l7-7a1 1 0 0 1 1.414 1.414l-7 7a1 1 0 0 1 -.707.293z" fill="#fff"/><path d="m57 0h-54a3 3 0 0 0 -3 3v44a5.006 5.006 0 0 0 5 5v2a3 3 0 0 0 -3 3v1a2 2 0 0 0 2 2h8a2 2 0 0 0 2-2v-1a3 3 0 0 0 -3-3v-2a5.006 5.006 0 0 0 5-5v-3h6v2.52l-4.625 3.7a1 1 0 0 0 -.375.78v2a3 3 0 0 0 3 3h20a3 3 0 0 0 3-3v-2a1 1 0 0 0 -.375-.781l-4.625-3.699v-2.52h6v3a5.006 5.006 0 0 0 5 5v2a3 3 0 0 0 -3 3v1a2 2 0 0 0 2 2h8a2 2 0 0 0 2-2v-1a3 3 0 0 0 -3-3v-2a5.006 5.006 0 0 0 5-5v-44a3 3 0 0 0 -3-3zm-54 2h54a1 1 0 0 1 1 1v20.026a4.954 4.954 0 0 0 -2-.925v-16.101a2 2 0 0 0 -2-2h-48a2 2 0 0 0 -2 2v16.1a4.954 4.954 0 0 0 -2 .925v-20.025a1 1 0 0 1 1-1zm46 20a5.006 5.006 0 0 0 -5 5v7h-28v-7a5.006 5.006 0 0 0 -5-5h-5v-16h48v16zm-37 35v1h-8v-1a1 1 0 0 1 1-1h6a1 1 0 0 1 1 1zm-3-3h-2v-2h2zm5-7a3 3 0 0 1 -3 3h-6a3 3 0 0 1 -3-3v-20a3 3 0 0 1 3-3h6a3 3 0 0 1 3 3zm25.149 3h-18.3l2.5-2h13.3zm.851 4h-20a1 1 0 0 1 -1-1v-1h22v1a1 1 0 0 1 -1 1zm-4-8h-12v-2h12zm1-4h-21v-6h28v6zm19 15v1h-8v-1a1 1 0 0 1 1-1h6a1 1 0 0 1 1 1zm-3-3h-2v-2h2zm5-7a3 3 0 0 1 -3 3h-6a3 3 0 0 1 -3-3v-20a3 3 0 0 1 3-3h6a3 3 0 0 1 3 3z"/><path d="m32 38h-4a1 1 0 0 0 0 2h4a1 1 0 0 0 0-2z"/><path d="m8 26a5 5 0 1 0 5 5 5.006 5.006 0 0 0 -5-5zm0 8a3 3 0 1 1 3-3 3 3 0 0 1 -3 3z"/><path d="m8 37a5 5 0 1 0 5 5 5.006 5.006 0 0 0 -5-5zm0 8a3 3 0 1 1 3-3 3 3 0 0 1 -3 3z"/><path d="m52 26a5 5 0 1 0 5 5 5.006 5.006 0 0 0 -5-5zm0 8a3 3 0 1 1 3-3 3 3 0 0 1 -3 3z"/><path d="m52 37a5 5 0 1 0 5 5 5.006 5.006 0 0 0 -5-5zm0 8a3 3 0 1 1 3-3 3 3 0 0 1 -3 3z"/></svg>