<svg height="512" viewBox="0 0 61 59" width="512" xmlns="http://www.w3.org/2000/svg"><g id="Page-1" fill="none" fill-rule="evenodd"><g id="049---Earbud-In-Ear"><path id="Path" d="m40.959 47.532c-.02 5.65-5.21 10.17-10.86 10.45-6.42.33-12.099-3.982-12.09-10.982.01-4.15-2.35-7-4.45-8.95-.8864329-.820449-1.854856-1.547604-2.89-2.17-2.25819154-1.3121933-4.19496107-3.1119644-5.669-5.268-4.07269829-6.2460618-3.99748416-14.326597.19077588-20.4957653 4.18826004-6.16916834 11.67075422-9.22088711 18.97887212-7.74049127 7.308118 1.48039584 13.0131105 7.20348644 14.470352 14.51625657-1.7028747-.8182981-3.6198772-1.0806616-5.48-.75-2.47.46-4.44 2.09-6.18 3.83-2.0548021 2.0038718-3.246044 4.7308113-3.32 7.6-.0049267.3085878.1181576.6054384.34.82l6.94 6.95c.2193707.2134472.5139294.3319891.82.33 1.7970202-.0266084 3.5568916-.5156529 5.11-1.42 2.599 2.44 4.119 6.6 4.089 13.28z" fill="#ffe0b2"/><g fill="#dfc49c"><path id="Path" d="m35.428 16.031c1.1142416.087189 2.2029819.3783559 3.212.859-1.8239313-9.17067702-10.2122059-15.5326262-19.535-14.816 7.8647543.68554898 14.4241672 6.29418253 16.323 13.957z"/><path id="Path" d="m30.16 16.14c-2.47.46-4.44 2.09-6.18 3.83-2.0548021 2.0038718-3.246044 4.7308113-3.32 7.6-.0049267.3085878.1181576.6054384.34.82l6.94 6.95c.2193707.2134472.5139294.3319891.82.33.7553417-.0118287 1.506868-.1097955 2.24-.292-.017-.015-.042-.022-.058-.038l-6.942-6.95c-.2218424-.2145616-.3449267-.5114122-.34-.82.073956-2.8691887 1.2651979-5.5961282 3.32-7.6 1.74-1.74 3.71-3.37 6.18-3.83.021 0 .042 0 .062-.009-1.0133866-.1755284-2.0496628-.1724825-3.062.009z"/><path id="Path" d="m36.87 34.25c-.6781219.3836149-1.3955939.6930667-2.14.923 2.07 2.52 3.257 6.453 3.23 12.357-.019 5.383-4.733 9.732-10.06 10.37.7298767.0873126 1.4658049.1130701 2.2.077 5.65-.28 10.84-4.8 10.86-10.45.03-6.677-1.49-10.837-4.09-13.277z"/><path id="Path" d="m36.737 28.637c-.9199448.9645985-1.1006369 2.4174445-.445 3.578 6.816 11.808-9.292 16.051-9.292 9.785 0-5-10-4-11-12s4-11 4-11 7-6 15 1c4.38 3.832 3.461 6.771 1.737 8.637z"/></g><path id="Path" d="m59.6 33.79-2.81 2.81c-.5380113.5301464-1.4019887.5301464-1.94 0l-2.99-2.99 4.75-4.75 2.99 2.99c.5301464.5380113.5301464 1.4019887 0 1.94z" fill="#ffdc00"/><path id="Path" d="m59.6 31.85-2.99-2.99-1.5 1.5 1.49 1.49c.5301464.5380113.5301464 1.4019887 0 1.94l-2.28 2.28.53.53c.5380113.5301464 1.4019887.5301464 1.94 0l2.81-2.81c.5301464-.5380113.5301464-1.4019887 0-1.94z" fill="#fec108"/><path id="Path" d="m56.61 28.86-4.75 4.75-6.8-6.8c-.294684-.2976544-.6961483-.4651268-1.115-.4651268s-.820316.1674724-1.115.4651268l-2.52 2.52c-.6180843.6102516-1.6119157.6102516-2.23 0l-9.64-9.64c-.2977598-.2966612-.4651322-.6996801-.4651322-1.12s.1673724-.8233388.4651322-1.12l3.64-3.63c3.184476-3.273415 8.3386049-3.5811889 11.89-.71 1.5817665 1.3127788 2.6451215 3.145294 3 5.17.2069462.898266.6894338 1.7094045 1.38 2.32z" fill="#02a9f4"/><path id="Path" d="m42.06 26.81c-.294684-.2976544-.6961483-.4651268-1.115-.4651268s-.820316.1674724-1.115.4651268l-2.13 2.135.385.385c.6180843.6102516 1.6119157.6102516 2.23 0l2.13-2.13z" fill="#0377bc"/><path id="Path" d="m48.35 20.6c-.6905662-.6105955-1.1730538-1.421734-1.38-2.32-.3548785-2.024706-1.4182335-3.8572212-3-5.17-1.9392194-1.615364-4.4950069-2.2874578-6.978-1.835 1.4659138.2459746 2.8393669.8795308 3.978 1.835 1.5817665 1.3127788 2.6451215 3.145294 3 5.17.2069462.898266.6894338 1.7094045 1.38 2.32l8.26 8.26-3.25 3.25 1.5 1.5 4.75-4.75z" fill="#0377bc"/><path id="Rectangle" d="m29.436 21.052h4.478v10.075h-4.478z" fill="#37474f" transform="matrix(.707 -.707 .707 .707 -9.171 30.039)"/><path id="Path" d="m28.4004416 24.289669h.836c1.1045695 0 2 .8954305 2 2v8.313c0 1.1045695-.8954305 2-2 2h-.836c-2.7614238 0-5-2.2385762-5-5v-2.313c0-2.7614237 2.2385762-5 5-5z" fill="#607d8b" transform="matrix(.707 -.707 .707 .707 -13.527 28.235)"/><path id="Path" d="m33.032 30.613-5.879-5.879c-.375096-.375248-.8839266-.5860729-1.4145-.5860729s-1.039404.2108249-1.4145.5860729l-.085.085 5.793 5.794c.7807639.7809997.7807639 2.0470003 0 2.828l-.592.591c-.5699363.5631443-1.2683688.9791149-2.035 1.212 1.7729444.5688282 3.7151165.1013183 5.035-1.212l.592-.591c.7807639-.7809997.7807639-2.0470003 0-2.828z" fill="#37474f"/><path id="Path" d="m26.87 13.433c.4100714.3700308 1.0424692.3375714 1.4125-.0725s.3375714-1.0424692-.0725-1.4125c-3.204081-2.8802937-7.7475849-3.73196748-11.7773062-2.20764042-4.0297212 1.52432702-6.87206442 5.16985322-7.3676938 9.44964042-.05840117.5478583.33734263 1.0397433.885 1.1.03686534.0039927.0739191.0059956.111.006.5097014-.000531.9374428-.3843353.993-.891.4143639-3.5328431 2.7638835-6.5399042 6.0916181-7.7964313 3.3277347-1.256527 7.0784008-.5528491 9.7243819 1.8244313z" fill="#000"/><path id="Path" d="m35 41c.0505011 1.0407813-.3801657 2.0470226-1.168 2.729-.7486539.5982696-1.6817534.918139-2.64.905-1.592 0-3.192-.815-3.192-2.634 0-2.86-2.482-4.131-4.883-5.359-2.773-1.42-5.64-2.887-6.125-6.765-.9-7.187 3.327-9.9 3.527-10.021.4727557-.2855312.6245312-.9002442.339-1.373-.2855312-.4727557-.9002443-.6245312-1.373-.339-.226.135-5.546 3.433-4.477 11.981.616 4.928 4.265 6.8 7.2 8.3 2.421 1.237 3.792 2.015 3.792 3.576 0 3.042 2.612 4.634 5.192 4.634 1.4307807.017957 2.8220531-.4692893 3.929-1.376 1.2433497-1.0581851 1.9353308-2.6262828 1.879-4.258 0-.5522847-.4477153-1-1-1s-1 .4477153-1 1z" fill="#000"/><path id="Shape" d="m49.06 19.9c-.5470975-.4661662-.9348361-1.0916526-1.109-1.789-.3976058-2.2548951-1.578713-4.2969533-3.335-5.766-2.1008767-1.7379709-4.843555-2.496855-7.539-2.086-3.6474859-6.06967136-10.2987856-9.68493026-17.3760239-9.44459397s-13.46795615 4.29848973-16.69527333 10.60162287c-3.22731717 6.3031331-2.78393714 13.8604672 1.15829723 19.7429711 1.10545656 1.6511723 2.48697331 3.0996676 4.084 4.282.61090392.4665712 1.24721439.8989018 1.906 1.295.9754041.5877699 1.8884436 1.2733034 2.725 2.046 1.778 1.651 4.14 4.3 4.131 8.217-.077364 3.2425946 1.2128602 6.3681671 3.555 8.612 2.4128353 2.2192537 5.583038 3.4317373 8.861 3.389.24 0 .482-.007.725-.019 4.7099877-.2374058 8.9073247-3.0470314 10.922-7.311 1.2035594-3.0788725 1.3879219-6.4625893.526-9.654-.4773132-1.867194-1.1636491-3.6746121-2.046-5.388-.5712461-1.152672-1.0747679-2.3376847-1.508-3.549-.3115816-.9357574-.477518-1.9138381-.492-2.9 1.0202098.8541866 2.5232964.7900225 3.467-.148l2.514-2.514c.1086706-.109249.2564071-.1706732.4105-.1706732s.3018294.0614242.4105.1706732l9.791 9.791c.9253413.9206616 2.4206587.9206616 3.346 0l2.817-2.817c.9213251-.9254575.9213251-2.4215425 0-3.347zm-9.414 22.549c.7664394 2.7763337.6262997 5.7248725-.4 8.416-1.7036036 3.5770291-5.2365074 5.9271748-9.194 6.116-2.9734741.2058611-5.9018958-.8125476-8.106-2.819-1.9403959-1.8695131-3.0057975-4.4684255-2.936-7.162.011-4.7-2.717-7.779-4.769-9.684-.9342836-.8671571-1.9560978-1.634942-3.049-2.291-.5976062-.3599133-1.1751311-.7521629-1.73-1.175-1.41697914-1.0454316-2.64324836-2.3271789-3.625-3.789-5.32651027-8.0658426-3.10584263-18.9224897 4.96-24.249 8.0658426-5.32651027 18.9224897-3.10584263 24.249 4.96-1.3814428.5010228-2.6364783 1.2983475-3.677 2.336l-3.637 3.637c-1.0051343 1.0090718-1.0051343 2.6409282 0 3.65l.55.549-2.233 2.235c-.8973882-.0987435-1.7914014.2128567-2.433.848l-.59.591c-1.1254381 1.1252475-1.7577187 2.651525-1.7577187 4.243s.6322806 3.1177525 1.7577187 4.243l1.636 1.635c2.3442549 2.340201 6.1407451 2.340201 8.485 0l.591-.591c.636162-.6397301.948015-1.5333654.848-2.43l.977-.977c.065437 1.0135429.2624226 2.0142701.586 2.977.4586 1.283589.9908163 2.5396727 1.594 3.762.8189848 1.579586 1.4573464 3.2464377 1.903 4.969zm-4.24-14.38-1.752 1.752-5.71-5.71 1.756-1.753zm-3.082 4.665-.591.591c-1.5634816 1.5588888-4.0935184 1.5588888-5.657 0l-1.636-1.636c-.750496-.750192-1.1721459-1.7678533-1.1721459-2.829s.4216499-2.078808 1.1721459-2.829l.59-.59c.3904999-.3903819 1.0235001-.3903819 1.414 0l5.879 5.879c.3906582.3902237.3911059 1.0232241.001 1.414zm11.62-7.384c-.6839906-.0007924-1.3402148.2704757-1.824.754l-2.52 2.515c-.2278134.2230885-.5921866.2230885-.82 0l-9.639-9.64c-.108751-.1081749-.1693133-.2556153-.168-.409-.0007317-.1538603.0597018-.3017066.168-.411l1.342-1.342 8.792 8.792c.3909994.3805981 1.0149177.3774961 1.4021134-.006971.3871957-.384467.39471-1.0083477.0168866-1.402029l-8.794-8.8.881-.881c2.8274872-2.8930086 7.3867026-3.1739614 10.548-.65 1.3947828 1.1670917 2.3328834 2.7890248 2.649 4.58.2488817 1.1010608.8305326 2.0988748 1.666 2.858l7.55 7.55-3.333 3.343-6.091-6.1c-.4851162-.4822687-1.1419557-.7520549-1.826-.75zm14.956 7.728-2.822 2.822c-.1446408.1400877-.3743592.1400877-.519 0l-2.284-2.284 3.335-3.337 2.284 2.284c.1392161.1425161.141858.3692792.006.515z" fill="#000" fill-rule="nonzero"/><path id="Path" d="m36.293 14.293c-.2860606.2859742-.3716717.7161158-.2169084 1.0898272.1547633.3737115.5194187.6173863.9239084.6173863s.7691451-.2436748.9239084-.6173863c.1547633-.3737114.0691522-.803853-.2169084-1.0898272-.3904999-.3903819-1.0235001-.3903819-1.414 0z" fill="#000"/></g></g></svg>