<svg height="512" viewBox="0 0 60 52" width="512" xmlns="http://www.w3.org/2000/svg"><g id="Page-1" fill="none" fill-rule="evenodd"><g id="017---Bluetooth-Speaker" fill-rule="nonzero" transform="translate(-1)"><path id="Shape" d="m6 35c-.08195017 4.0606225.48519345 8.1082725 1.68 11.99-.05961961.0083116-.11982661.0116565-.18.01-3.04 0-5.5-5.37-5.5-12s2.46-12 5.5-12c.06017339-.0016565.12038039.0016884.18.01-1.19480655 3.8817275-1.76195017 7.9293775-1.68 11.99z" fill="#0377bc"/><path id="Shape" d="m60 35c0 6.63-2.46 12-5.5 12-.0601734.0016565-.1203804-.0016884-.18-.01 1.1948065-3.8817275 1.7619502-7.9293775 1.68-11.99.0819502-4.0606225-.4851935-8.1082725-1.68-11.99.0596196-.0083116.1198266-.0116565.18-.01 3.04 0 5.5 5.37 5.5 12z" fill="#0377bc"/><path id="Shape" d="m56 35c.0819502 4.0606225-.4851935 8.1082725-1.68 11.99-.89 2.49-2.05 4.01-3.32 4.01h-40c-1.27 0-2.43-1.52-3.32-4.01-1.19480655-3.8817275-1.76195017-7.9293775-1.68-11.99-.08195017-4.0606225.48519345-8.1082725 1.68-11.99.89-2.49 2.05-4.01 3.32-4.01h40c1.27 0 2.43 1.52 3.32 4.01 1.1948065 3.8817275 1.7619502 7.9293775 1.68 11.99z" fill="#02a9f4"/><path id="Shape" d="m54.32 23.01c-.89-2.49-2.05-4.01-3.32-4.01h-3c1.27 0 2.43 1.52 3.32 4.01 1.1948065 3.8817275 1.7619502 7.9293775 1.68 11.99.0819502 4.0606225-.4851935 8.1082725-1.68 11.99-.89 2.49-2.05 4.01-3.32 4.01h3c1.27 0 2.43-1.52 3.32-4.01 1.1948065-3.8817275 1.7619502-7.9293775 1.68-11.99.0819502-4.0606225-.4851935-8.1082725-1.68-11.99z" fill="#0377bc"/><circle id="Oval" cx="19" cy="35" fill="#607d8b" r="8"/><path id="Shape" d="m19 27c-.5034323.0013583-1.005629.049904-1.5.145 3.7641632.7265899 6.4837629 4.0213519 6.4837629 7.855s-2.7195997 7.1284101-6.4837629 7.855c2.9873733.5766142 6.0432406-.5912461 7.8846263-3.0132663s2.1495108-5.6789024.795012-8.4032768-4.1371319-4.4446-7.1796383-4.4384569z" fill="#37474f"/><circle id="Oval" cx="43" cy="35" fill="#607d8b" r="8"/><path id="Shape" d="m43 27c-.5034323.0013583-1.005629.049904-1.5.145 3.7641632.7265899 6.4837629 4.0213519 6.4837629 7.855s-2.7195997 7.1284101-6.4837629 7.855c2.9873733.5766142 6.0432406-.5912461 7.8846263-3.0132663s2.1495108-5.6789024.795012-8.4032768-4.1371319-4.4446-7.1796383-4.4384569z" fill="#37474f"/><circle id="Oval" cx="51.001" cy="8.562" fill="#a4c400" r="2"/><circle id="Oval" cx="6.374" cy="15" fill="#a4c400" r="2"/><path id="Shape" d="m43 7.264c-.2755651.00010978-.5389623-.11349837-.728-.314-2.8991151-3.15465164-6.9875286-4.9500668-11.272-4.9500668s-8.3728849 1.79541516-11.272 4.9500668c-.2450842.26008935-.6103073.36967096-.9580934.28746649-.3477861-.08220446-.6252981-.34370618-.728-.686-.1027019-.34229381-.0149908-.71337714.2300934-.97346649 3.2774413-3.55530961 7.8925219-5.57776784 12.728-5.57776784s9.4505587 2.02245823 12.728 5.57776784c.2738415.29044822.3487132.71593412.1904699 1.08241523-.1582433.36648112-.5192841.60374386-.9184699.60358477z" fill="#ef314c"/><path id="Shape" d="m40.333 10.092c-.2755651.0001098-.5389623-.11349837-.728-.314-2.2127274-2.40903787-5.3339717-3.78021413-8.605-3.78021413s-6.3922726 1.37117626-8.605 3.78021413c-.3788673.4020633-1.0119367.4208673-1.414.042-.4020633-.37886734-.4208673-1.0119367-.042-1.414 2.591054-2.80969536 6.2389653-4.40791426 10.061-4.40791426s7.469946 1.5982189 10.061 4.40791426c.2738415.29044822.3487132.71593412.1904699 1.08241523-.1582433.36648112-.5192841.60374387-.9184699.60358477z" fill="#ef314c"/><path id="Shape" d="m37.667 12.92c-.2755651.0001098-.5389623-.1134984-.728-.314-1.526855-1.6632464-3.6811969-2.6100166-5.939-2.6100166s-4.412145.9467702-5.939 2.6100166c-.2450842.2600893-.6103073.369671-.9580934.2874665s-.6252981-.3437062-.728-.686-.0149908-.7133772.2300934-.9734665c1.9050235-2.06418374 4.5860911-3.23819641 7.395-3.23819641s5.4899765 1.17401267 7.395 3.23819641c.2738415.2904482.3487132.7159341.1904699 1.0824152-.1582433.3664812-.5192841.6037439-.9184699.6035848z" fill="#ef314c"/><path id="Shape" d="m35 15.749c-.2755651.0001098-.5389623-.1134984-.728-.314-.8395099-.9193216-2.0270385-1.4430614-3.272-1.4430614s-2.4324901.5237398-3.272 1.4430614c-.3788673.4020633-1.0119367.4208673-1.414.042s-.4208673-1.0119367-.042-1.414c1.2176996-1.3202334 2.9319464-2.0711927 4.728-2.0711927s3.5103004.7509593 4.728 2.0711927c.2738415.2904482.3487132.7159341.1904699 1.0824152-.1582433.3664812-.5192841.6037439-.9184699.6035848z" fill="#ef314c"/><g fill="#000"><path id="Shape" d="m55.024 22.049c-1.335-3.325-2.909-4.049-4.024-4.049h-40c-1.114 0-2.688.724-4.024 4.049-3.441.502-5.976 5.895-5.976 12.951s2.535 12.449 5.976 12.951c1.335 3.325 2.909 4.049 4.024 4.049h40c1.114 0 2.688-.724 4.024-4.049 3.441-.502 5.976-5.895 5.976-12.951s-2.535-12.449-5.976-12.951zm-52.024 12.951c0-5.14 1.491-9.034 3.179-10.433-.81415331 3.4170709-1.21005502 6.9204148-1.179 10.433-.0308608 3.5153306.36571449 7.0213785 1.181 10.441-1.681-1.389-3.181-5.29-3.181-10.441zm48 15h-40c-.545 0-1.495-.876-2.377-3.341-1.15291075-3.7763256-1.70069126-7.7113675-1.623-11.659-.07783911-3.9455277.46926207-7.8785136 1.621-11.653.884-2.471 1.834-3.347 2.379-3.347h40c.545 0 1.495.876 2.377 3.341 1.1529107 3.7763256 1.7006913 7.7113675 1.623 11.659.0778391 3.9455277-.4692621 7.8785136-1.621 11.653-.879 2.471-1.834 3.347-2.379 3.347zm4.821-4.567c.8141533-3.4170709 1.210055-6.9204148 1.179-10.433.0308608-3.5153306-.3657145-7.0213785-1.181-10.441 1.681 1.389 3.181 5.29 3.181 10.441s-1.492 9.034-3.179 10.433z"/><path id="Shape" d="m12.588 26.069c3.829573-2.758715 8.994427-2.758715 12.824 0 .2890279.2100722.6681728.2499924.9946146.104723s.5505861-.4536585.588-.809c.0374139-.3553416-.1175867-.7036508-.4066146-.913723-4.5308416-3.2680826-10.6451584-3.2680826-15.176 0-.2890279.2100722-.4440285.5583814-.4066146.9137229.0374139.3553416.2615583.6637307.588.8090001.3264418.1452694.7055867.1053492.9946146-.104723z"/><path id="Shape" d="m25.412 43.931c-3.829573 2.758715-8.994427 2.758715-12.824 0-.4467984-.3247434-1.0722566-.2257984-1.397.221s-.2257984 1.0722566.221 1.397c4.5308416 3.2680826 10.6451584 3.2680826 15.176 0 .2890279-.2100722.4440285-.5583814.4066146-.913723-.0374139-.3553415-.2615582-.6637306-.588-.809s-.7055867-.1053492-.9946146.104723z"/><path id="Shape" d="m19 26c-4.9705627 0-9 4.0294373-9 9s4.0294373 9 9 9 9-4.0294373 9-9c-.0055111-4.9682782-4.0317218-8.9944889-9-9zm0 16c-3.8659932 0-7-3.1340068-7-7s3.1340068-7 7-7 7 3.1340068 7 7c-.0044086 3.8641657-3.1358343 6.9955914-7 7z"/><circle id="Oval" cx="17" cy="32" r="1"/><circle id="Oval" cx="15" cy="35" r="1"/><circle id="Oval" cx="19" cy="35" r="1"/><circle id="Oval" cx="23" cy="35" r="1"/><circle id="Oval" cx="21" cy="32" r="1"/><circle id="Oval" cx="17" cy="38" r="1"/><circle id="Oval" cx="21" cy="38" r="1"/><path id="Shape" d="m36.588 26.069c3.829573-2.758715 8.994427-2.758715 12.824 0 .2890279.2100722.6681728.2499923.9946146.1047229.3264417-.1452694.550586-.4536584.588-.809.0374139-.3553415-.1175867-.7036507-.4066146-.9137229-4.5308416-3.2680826-10.6451584-3.2680826-15.176 0-.2890279.2100722-.4440285.5583814-.4066146.9137229.037414.3553416.2615583.6637306.588.809.3264418.1452694.7055867.1053493.9946146-.1047229z"/><path id="Shape" d="m49.412 43.931c-3.829573 2.758715-8.994427 2.758715-12.824 0-.2890279-.2100722-.6681728-.2499923-.9946146-.1047229-.3264417.1452694-.550586.4536584-.588.809-.0374139.3553415.1175867.7036507.4066146.9137229 4.5308416 3.2680826 10.6451584 3.2680826 15.176 0 .2890279-.2100722.4440285-.5583814.4066146-.9137229-.037414-.3553416-.2615583-.6637306-.588-.809-.3264418-.1452694-.7055867-.1053493-.9946146.1047229z"/><path id="Shape" d="m43 26c-4.9705627 0-9 4.0294373-9 9s4.0294373 9 9 9 9-4.0294373 9-9c-.0055111-4.9682782-4.0317218-8.9944889-9-9zm0 16c-3.8659932 0-7-3.1340068-7-7s3.1340068-7 7-7 7 3.1340068 7 7c-.0044086 3.8641657-3.1358343 6.9955914-7 7z"/><circle id="Oval" cx="41" cy="32" r="1"/><circle id="Oval" cx="39" cy="35" r="1"/><circle id="Oval" cx="43" cy="35" r="1"/><circle id="Oval" cx="47" cy="35" r="1"/><circle id="Oval" cx="45" cy="32" r="1"/><circle id="Oval" cx="41" cy="38" r="1"/><circle id="Oval" cx="45" cy="38" r="1"/><path id="Shape" d="m49.816 11.319c.7311874.3141499 1.5572359.3249034 2.2963533.0298941.7391175-.2950093 1.3307329-.8716054 1.6446467-1.6028941l2.189-5.1c.413372.56998686.97359 1.01719358 1.621 1.294.508102.21787633 1.0966237-.01739803 1.3145-.5255s-.017398-1.09662367-.5255-1.3145c-.7847947-.4495136-1.2954307-1.2591133-1.363-2.161-.0268921-.4629143-.3684847-.8466175-.8251764-.92690184-.4566916-.08028434-.9086664.16391328-1.0918236.58990184l-2.045 4.762c-.8746137-.82275679-2.1555711-1.04473125-3.2560238-.56422961-1.1004526.48050165-1.8083753 1.57090072-1.7994454 2.77164968.0089299 1.20074897.7329918 2.28049853 1.8404692 2.74457993zm.266-3.152c.1344655-.33792826.4418008-.57620723.8025741-.62224063.3607734-.0460334.7180946.10743773.9331072.40077384.2150125.2933361.2538112.68028123.1013187 1.01046679-.1367778.33474853-.4436223.56957584-.8024804.61413616s-.7138166-.10808923-.9283113-.39921935c-.2144948-.29113012-.2551056-.67538027-.1062083-1.00491681z"/><path id="Shape" d="m6.215 6.516c-.39751921-.38262657-1.02982621-.37099177-1.413.026-.69672645.57494095-1.63315515.76709612-2.5.513-.4433134-.1410395-.92533424.04225576-1.16292393.44221832-.2375897.39996256-.16798684.91093876.16792393 1.23278168l3.733 3.6c-1.24060314.6203195-1.89245993 2.0117434-1.57502438 3.3619757.31743555 1.3502322 1.52098227 2.3054563 2.90802438 2.3080243h.058c1.21336904-.0227889 2.29349156-.7743642 2.73657047-1.9041716.44307891-1.1298075.16182783-2.4152754-.71257047-3.2568284l-3.995-3.848c.67851406-.18651591 1.29392375-.5531356 1.781-1.061.1840647-.19095361.28473242-.44720701.27985644-.71238491-.00487597-.26517791-.1148962-.51755727-.30585644-.70161509zm.879 9.178c-.18319034.1912672-.4351964.3014298-.7.306-.3572656.0035727-.68929862-.183725-.87102543-.4913397-.18172682-.3076148-.1855388-.6888126-.01-1.0000001.17553879-.3111874.50375983-.5050876.86102543-.5086602.40112605-.00001.76344021.2396716.92034614.6088364.15690593.3691647.07803534.7963629-.20034614 1.0851636z"/></g></g></g></svg>