<svg height="512" viewBox="0 0 512 512" width="512" xmlns="http://www.w3.org/2000/svg"><g id="Layer_18" data-name="Layer 18"><path d="m240 464a32 32 0 0 0 32 32 32 32 0 0 0 32-32v-138.778a112.235 112.235 0 0 0 87.354 3.649c24.653-9.28 40.646-33.3 40.646-59.643v-90.554c0-25.4-14.71-49.128-38.27-58.619a111.778 111.778 0 0 0 -48.814-7.836c-59.537 3.673-104.916 55.174-104.916 114.824z" fill="#c8cded"/><path d="m343.71 112.354a111.258 111.258 0 0 1 34.02 7.7c23.56 9.491 38.27 33.22 38.27 58.619v90.554c0 26.342-15.993 50.363-40.646 59.643a111.242 111.242 0 0 1 -30.511 6.728 111.415 111.415 0 0 1 -40.843-10.376v5.97a111.431 111.431 0 0 1 -16-5.97v138.778a31.926 31.926 0 0 1 -24 30.869 31.926 31.926 0 0 1 -24-30.869v-236.957c0-59.243 44.775-110.391 103.71-114.689z" fill="#e3e8f6"/><rect fill="#2b66ba" height="16" rx="8" width="64" x="240" y="424"/><path d="m240.144 223.993c1.223-46.778 30.216-88.044 71.856-104.432v32.439a72 72 0 0 1 -71.856 71.993z" fill="#1b499c"/><path d="m241.747 207.677c6.175-36.848 29.6-68.5 62.109-84.5v13.258a71.952 71.952 0 0 1 -62.109 71.242z" fill="#2b66ba"/><path d="m400 264a8 8 0 0 0 8-8v-64a8 8 0 0 0 -16 0v64a8 8 0 0 0 8 8z" fill="#2b66ba"/><path d="m208 464a32 32 0 0 1 -32 32 32 32 0 0 1 -32-32v-138.778a112.235 112.235 0 0 1 -87.354 3.649c-24.653-9.28-40.646-33.301-40.646-59.643v-90.554c0-25.4 14.71-49.128 38.27-58.619a111.778 111.778 0 0 1 48.814-7.836c59.537 3.673 104.916 55.174 104.916 114.824z" fill="#c8cded"/><path d="m104.29 112.354a111.258 111.258 0 0 0 -34.02 7.7c-23.56 9.492-38.27 33.221-38.27 58.62v90.554c0 26.342 15.993 50.363 40.646 59.643a111.242 111.242 0 0 0 30.511 6.728 111.415 111.415 0 0 0 40.843-10.377v5.97a111.431 111.431 0 0 0 16-5.97v138.778a31.926 31.926 0 0 0 24 30.869 31.926 31.926 0 0 0 24-30.869v-236.957c0-59.243-44.775-110.391-103.71-114.689z" fill="#e3e8f6"/><rect fill="#2b66ba" height="16" rx="8" width="64" x="144" y="424"/><path d="m207.856 223.993c-1.223-46.778-30.216-88.044-71.856-104.432v32.439a72 72 0 0 0 71.856 71.993z" fill="#1b499c"/><path d="m206.253 207.677c-6.175-36.848-29.6-68.5-62.109-84.5v13.258a71.952 71.952 0 0 0 62.109 71.242z" fill="#2b66ba"/><path d="m48 264a8 8 0 0 1 -8-8v-64a8 8 0 0 1 16 0v64a8 8 0 0 1 -8 8z" fill="#2b66ba"/><circle cx="392" cy="120" fill="#e78438" r="104"/><ellipse cx="404" cy="120" fill="#eeab46" rx="92" ry="103.254"/><path d="m392 200a8 8 0 0 1 -8-8v-54.391l-34.937 28.582a8 8 0 1 1 -10.125-12.382l41.32-33.809-41.32-33.809a8 8 0 1 1 10.125-12.382l34.937 28.582v-54.391a8 8 0 0 1 13.656-5.656l40 40a7.991 7.991 0 0 1 -.593 11.847l-31.54 25.809 31.54 25.809a7.991 7.991 0 0 1 .593 11.847l-40 40a8 8 0 0 1 -5.656 2.344zm8-63.844v36.532l20.094-20.094zm0-68.844v36.532l20.094-16.438z" fill="#2b66ba"/></g></svg>