<?xml version="1.0" encoding="iso-8859-1"?>
<!-- Generator: Adobe Illustrator 19.0.0, SVG Export Plug-In . SVG Version: 6.00 Build 0)  -->
<svg version="1.1" id="Capa_1" xmlns="http://www.w3.org/2000/svg" xmlns:xlink="http://www.w3.org/1999/xlink" x="0px" y="0px"
	 viewBox="0 0 512.001 512.001" style="enable-background:new 0 0 512.001 512.001;" xml:space="preserve">
<g>
	<path style="fill:#E85454;" d="M84.965,79.461c-0.737-0.913-2.095-0.975-2.918-0.14c-7.729,7.84-41.567,44.403-38.804,81.04
		c1.619,30.383,23.896,48.75,25.138,49.751c1.007,0.812,33.681,35.779,151.031,94.215c0.303,0.066,1.409,0.447,2.056-0.356
		c0,0,0.909-0.725,0.435-1.878C167.972,184.289,95.733,92.806,84.965,79.461z"/>
	<path style="fill:#E85454;" d="M207.289,335.503c-0.381-1.305-1.977-1.305-1.977-1.305v-0.079l-149.513,5.222
		c-1.496,0.052-2.38,1.691-1.615,2.978c16.734,28.158,43.788,49.399,71.878,42.535c20.073-4.961,65.516-36.689,80.509-47.429h-0.04
		C207.664,336.332,207.289,335.503,207.289,335.503z"/>
	<path style="fill:#E85454;" d="M209.027,319.545C146.919,277.638,30.95,215.009,13.976,205.889
		c-1.088-0.585-2.449-0.032-2.797,1.153C-5.94,265.211,38.342,321.405,93.432,322.891c2.272,0.422,90.839,0.066,114.583-0.053
		c1.013-0.025,1.534-1.007,1.534-1.007C210.32,320.613,209.027,319.545,209.027,319.545z"/>
	<path style="fill:#E85454;" d="M195.14,16.478c-40.517,10.517-62.729,51.61-49.832,95.608c0.01,0.032,0.017,0.061,0.024,0.094
		c13.52,59.906,79.921,158.302,94.201,178.944c0.994,1.015,1.806,0.585,1.806,0.585c1.528-0.388,1.409-1.882,1.409-1.882
		l0.034,0.019c20.361-203.575-16.786-268.589-22.376-277.072c-0.409-0.62-1.131-0.953-1.868-0.859
		C211.178,12.854,195.14,16.478,195.14,16.478z"/>
	<path style="fill:#E85454;" d="M366.941,63.707c-9.295-25.967-27.574-41.58-50.533-47.169c0,0-10.919-2.763-22.833-4.576
		c-4.923-0.749-45.319,69.981-24.45,278.049c0.187,1.363,1.174,1.681,1.174,1.681c1.469,0.591,2.2-0.833,2.2-0.833l0.008,0.021
		c14.691-21.207,80.726-119.135,94.164-178.752C366.672,112.127,373.945,83.273,366.941,63.707z"/>
	<path style="fill:#E85454;" d="M306.454,334.251c0,0-0.1,0.014-0.253,0.054c-1.143,0.299-1.815,1.582-1.301,2.645
		c0.093,0.192,0.225,0.375,0.41,0.528v0.019c14.612,10.49,58.964,41.499,80.323,47.497c0,0,38.201,13.02,72.076-42.613
		c0.782-1.284-0.104-2.941-1.606-2.993l-149.635-5.164L306.454,334.251z"/>
	<path style="fill:#E85454;" d="M500.827,206.775c-0.359-1.2-1.711-1.784-2.814-1.189c-16.929,9.135-132.788,71.967-194.906,113.829
		v0.028c-1.689,1.131-0.645,3.372,0.765,3.372c24.045,0.053,115.07,0.172,117.344-0.223c0,0,11.732-0.528,26.279-6.076
		c0,0,32.376-10.291,49.201-47.064C496.697,269.449,511.018,240.798,500.827,206.775z"/>
	<path style="fill:#E85454;" d="M468.723,160.16c2.393-37.883-31.106-73.288-38.792-80.882c-0.827-0.817-2.17-0.746-2.9,0.159
		c-10.687,13.24-82.766,104.472-136.665,222.056h0.025c-0.861,1.853,1.053,3.477,2.479,2.656
		c112.567-56.021,145.102-89.411,150.732-94.033C444.78,209.151,467.454,190.159,468.723,160.16z"/>
</g>
<g>
	<path style="fill:#D84848;" d="M217.594,292.828c-100.183-52.451-124.875-79.768-128.547-82.718
		c-1.242-1.001-23.518-19.368-25.138-49.751c-2.083-27.615,16.628-55.183,29.279-70.446c-3.852-4.994-6.676-8.535-8.224-10.454
		c-0.737-0.913-2.095-0.975-2.918-0.14c-7.729,7.84-41.567,44.403-38.804,81.04c1.619,30.383,23.896,48.75,25.138,49.751
		c1.001,0.809,33.733,35.805,151.031,94.215c0.303,0.066,1.409,0.447,2.056-0.356c0,0,0.909-0.725,0.434-1.878
		C220.479,298.984,219.041,295.899,217.594,292.828z"/>
	<path style="fill:#D84848;" d="M114.098,322.892c-50.703-1.368-95.802-50.736-84.106-108.334c-7.608-4.142-13.19-7.15-16.015-8.668
		c-1.088-0.585-2.449-0.032-2.798,1.153c-17.191,58.415,27.41,114.37,82.253,115.849c0.983,0.182,18.113,0.219,39.156,0.193
		C121.959,323.065,114.726,323.008,114.098,322.892z"/>
	<path style="fill:#D84848;" d="M244.775,268.137c-24.996-38.24-68.168-108.947-78.777-155.957
		c-0.008-0.033-0.015-0.062-0.024-0.094c-12.896-43.996,9.314-85.091,49.832-95.608c0,0,2.539-0.573,6.056-1.323
		c-0.601-1.043-1.096-1.833-1.458-2.381c-0.409-0.62-1.131-0.953-1.868-0.859c-7.36,0.939-23.398,4.562-23.398,4.562
		c-40.517,10.517-62.729,51.61-49.832,95.608c0.01,0.032,0.017,0.061,0.024,0.094c13.52,59.906,79.921,158.302,94.201,178.944
		c0.994,1.015,1.805,0.585,1.805,0.585c1.528-0.388,1.409-1.882,1.409-1.882l0.034,0.019
		C243.523,282.418,244.181,275.198,244.775,268.137z"/>
	<path style="fill:#D84848;" d="M310.871,15.239c-4.304-0.958-10.643-2.266-17.294-3.278c-4.923-0.749-45.319,69.981-24.45,278.049
		c0.187,1.363,1.174,1.681,1.174,1.681c1.469,0.591,2.2-0.833,2.2-0.833l0.009,0.021c3.114-4.495,8.54-12.446,15.277-22.74
		C273.885,102.033,300.529,30.627,310.871,15.239z"/>
	<path style="fill:#D84848;" d="M326.856,334.927l-20.389-0.704l-0.013,0.028c0,0-0.1,0.014-0.253,0.054
		c-1.143,0.299-1.815,1.582-1.301,2.646c0.093,0.192,0.225,0.375,0.41,0.528v0.019c14.612,10.49,58.964,41.499,80.323,47.497
		c0,0,9.896,3.367,24.076-0.653C386.753,376.925,342.759,346.313,326.856,334.927z"/>
	<path style="fill:#D84848;" d="M504.036,223.099c-0.52-5.226-1.524-10.699-3.209-16.324c-0.359-1.2-1.711-1.784-2.814-1.189
		c-16.929,9.135-132.788,71.967-194.906,113.829v0.028c-1.689,1.131-0.645,3.372,0.765,3.372c6.329,0.014,17.303,0.032,30.074,0.045
		C384.866,289.604,460.472,247.103,504.036,223.099z"/>
	<path style="fill:#D84848;" d="M439.559,89.779c-4.178-4.971-7.708-8.603-9.628-10.5c-0.827-0.817-2.169-0.746-2.9,0.159
		c-10.687,13.24-82.766,104.472-136.664,222.056h0.025c-0.861,1.854,1.053,3.477,2.479,2.656c7.77-3.867,15.145-7.622,22.17-11.271
		C360.602,196.125,417.39,118.505,439.559,89.779z"/>
	<path style="fill:#D84848;" d="M76.791,345.471h-0.004c-0.636-1-2.836-3.866-2.904-6.761L55.8,339.342
		c-1.496,0.052-2.38,1.691-1.615,2.978c16.636,27.994,43.473,49.139,71.387,42.64C106.514,380.642,89.163,364.987,76.791,345.471z"
		/>
</g>
<path d="M494.452,198.627c-10.982,5.927-44.776,24.27-83.494,46.32c14.608-9.955,27.798-20.045,37.613-29.565
	c2.423-2.031,16.421-14.394,23.558-34.475c1.387-3.903-0.653-8.191-4.556-9.579c-3.901-1.388-8.19,0.652-9.579,4.556
	c-6.13,17.251-18.62,27.644-19.132,28.063c-0.227,0.185-0.408,0.348-0.613,0.55c-31.124,30.268-101.355,68.266-134.249,85.236
	c48.008-100.053,107.97-179.38,124.947-201.009c8.937,9.738,26.802,31.717,31.319,56.039c0.757,4.073,4.675,6.761,8.743,6.005
	c4.073-0.757,6.761-4.671,6.005-8.743c-6.142-33.066-32.024-60.743-39.808-68.437c-3.939-3.896-10.463-3.614-14.012,0.779
	c-8.218,10.181-37.272,47.117-70.821,100.632c25.553-52.078,44.599-108.372,2.118-147.821c-3.036-2.818-7.782-2.642-10.6,0.393
	c-2.818,3.035-2.643,7.78,0.393,10.6c8.899,8.263,13.859,17.286,17.594,27.704c18.047,50.419-54.218,161.831-84.765,207.475
	c-15.415-173.348,12.708-238.699,20.993-253.741c9.906,1.69,18.367,3.817,18.462,3.842c4.012,1.011,8.094-1.416,9.109-5.433
	c1.016-4.016-1.416-8.094-5.431-9.109c-0.46-0.117-11.41-2.873-23.549-4.721c-3.639-0.554-7.296,1.082-9.321,4.155
	c-5.478,8.306-26.284,46.149-29.421,144.245C252.87,54.356,232.127,16.573,226.669,8.291c-1.997-3.033-5.474-4.643-9.081-4.174
	c-7.235,0.923-23.291,4.475-24.333,4.742c-45.763,11.879-68.707,57.756-55.203,104.775c4.12,18.154,12.887,39.62,23.553,61.377
	c-33.536-53.489-62.576-90.424-70.803-100.618c-2.892-4.021-9.829-5.025-14.097-0.695c-10.342,10.489-43.84,47.732-40.948,86.784
	c1.764,32.44,24.27,52.118,27.694,54.931c10.106,9.786,23.776,20.181,38.891,30.415c-39.268-22.319-73.706-40.934-84.817-46.904
	c-5.299-2.846-11.854-0.092-13.543,5.644c-10.851,36.873,3.745,66.341,5.293,69.306c16.07,33.834,49.644,55.231,83.953,56.158
	L93.229,330c0.648,0.03,1.553,0.056,2.696,0.08l-40.386,1.411c-7.18,0.247-11.471,8.137-7.802,14.304
	c14.363,24.17,38.816,47.531,67.425,47.53c4.151-0.001,8.392-0.492,12.699-1.545c20.959-5.18,65.081-35.722,83.077-48.612
	c0.604-0.433,1.127-0.942,1.563-1.509c2.553-2.983,2.708-6.366,1.94-8.771c-0.496-1.6-1.352-2.871-2.393-3.866
	c1.815-0.913,3.16-2.35,3.972-3.756c2.326-3.909,1.415-8.857-2.217-11.858c-0.187-0.155-0.382-0.3-0.582-0.436
	c-8.738-5.896-18.495-12.177-28.866-18.649c13.524,7.207,24.787,12.914,31.712,16.362c0.52,0.258,1.066,0.455,1.63,0.588
	c0.951,0.238,1.832,0.341,2.644,0.341c3.147,0,5.254-1.535,6.337-2.602c2.279-2.17,3.83-6.069,2.159-10.13
	c-0.037-0.09-0.075-0.179-0.116-0.268c-6.284-13.726-12.801-27.074-19.431-39.982c10.993,17.299,20.01,30.528,24.074,36.402
	c0.242,0.35,0.514,0.679,0.811,0.982c2.049,2.091,4.468,2.926,6.695,2.926c0.994,0,1.951-0.167,2.818-0.463
	c3.896-1.205,6.04-4.464,6.478-7.683c0.033-0.185,0.06-0.372,0.078-0.562c3.173-31.726,4.965-60.136,5.702-85.538
	c0.732,25.447,2.527,53.912,5.716,85.705c0.01,0.09,0.02,0.18,0.032,0.269c0.576,4.213,3.438,6.705,5.886,7.653
	c1.166,0.458,2.312,0.663,3.409,0.663c3.113,0,5.827-1.653,7.445-3.868c0.082-0.105,0.162-0.214,0.238-0.325
	c4.095-5.911,13.221-19.283,24.329-36.758c-6.636,12.904-13.16,26.25-19.452,39.976c-0.197,0.43-0.352,0.873-0.462,1.323
	c-0.172,0.596-0.323,1.322-0.381,2.144c-0.199,2.898,0.939,5.681,3.122,7.633c1.745,1.561,3.943,2.396,6.21,2.396
	c0.554-0.001,1.112-0.051,1.669-0.151c0.921-0.167,1.804-0.473,2.628-0.91c6.84-3.405,17.852-8.982,31.061-16.011
	c-10.227,6.39-19.85,12.588-28.481,18.404c-0.353,0.238-0.682,0.504-0.983,0.793c-2.393,2.135-4.03,5.767-2.787,9.877
	c0.152,0.506,0.358,0.994,0.613,1.456c0.857,1.552,2.336,3.168,4.326,4.127c-0.817,0.8-1.501,1.742-1.995,2.812
	c-1.176,2.55-1.154,5.45,0.055,7.949c0.417,0.865,0.957,1.645,1.609,2.328c0.353,0.388,0.748,0.742,1.182,1.054
	c17.443,12.522,60.346,42.281,82.529,48.585c1.2,0.379,5.804,1.67,12.628,1.67c15.727-0.001,43.238-6.861,68.022-47.563
	c1.744-2.862,1.839-6.475,0.247-9.426c-1.59-2.946-4.655-4.849-7.999-4.964l-47.34-1.634c6.194-0.05,10.63-0.117,12.532-0.206
	l0.001,0.03c0.527-0.023,13.027-0.646,28.449-6.498c3.37-1.126,36.029-12.896,53.47-50.917c1.249-2.559,15.203-32.438,4.538-68.045
	C506.29,198.512,499.738,195.776,494.452,198.627z M448.733,215.226c0.013-0.012,0.024-0.024,0.037-0.036
	c-0.017,0.017-0.032,0.032-0.048,0.047C448.726,215.233,448.729,215.23,448.733,215.226z M94.347,315.09
	c0.208,0.022,0.359,0.053,0.453,0.07C94.65,315.132,94.499,315.109,94.347,315.09z M124.281,377.212
	c-22.987,5.608-44.326-11.183-58.441-31.073l120.715-4.217C162.357,358.452,136.6,374.167,124.281,377.212z M189.085,315.066
	c-14.147,0.057-81.225,0.357-95.452-0.029c-28.832-0.854-57.278-18.995-70.869-47.729c-7.548-15.878-9.612-34.529-6.067-51.787
	C42.746,229.611,130.905,277.757,189.085,315.066z M73.088,203.916c-0.853-0.688-20.909-17.161-22.356-44.313
	C49.35,133.818,65.915,107.841,83.09,88.8c17.038,21.72,76.93,101.007,124.914,200.963
	C104.832,236.474,79.391,209.026,73.088,203.916z M236.772,273.351c-22.661-33.921-72.747-112.767-84.105-163.086
	c-0.039-0.178-0.103-0.44-0.164-0.649c-11.688-39.906,7.757-76.628,44.403-86.205c1.224-0.275,11.791-2.636,19.02-3.868
	C224.175,34.536,252.195,99.765,236.772,273.351z M446.02,346.187c-20.744,29.361-43.952,35.285-58.359,31.229
	c-13.206-3.708-38.683-19.252-62.308-35.394L446.02,346.187z M419.937,314.844c0.086-0.016,0.222-0.041,0.408-0.06
	C420.209,314.799,420.073,314.82,419.937,314.844z M420.879,314.741c-8.806,0.38-88.773,0.26-97.905,0.248
	c58.169-37.306,146.315-85.634,172.343-99.772C506.136,267.786,465.59,312.284,420.879,314.741z"/>
<path d="M24.754,427.115H8.474c-0.53,0-0.959,0.429-0.959,0.959v78.074c0,0.53,0.43,0.959,0.959,0.959h16.28
	c0.53,0,0.959-0.43,0.959-0.959c0-33.473-0.367-32.421,0.959-32.421c40.888,0,39.59-0.411,39.59,0.959v31.462
	c0,0.53,0.43,0.959,0.959,0.959h16.333c0.53,0,0.959-0.43,0.959-0.959v-78.074c0-0.53-0.429-0.959-0.959-0.959H67.223
	c-0.53,0-0.959,0.429-0.959,0.959v30.46c0,0.53-0.43,0.959-0.959,0.959h-38.63c-0.53,0-0.959-0.429-0.959-0.959v-30.46
	C25.713,427.545,25.284,427.115,24.754,427.115z"/>
<path d="M116.58,427.122h-16.161c-0.53,0-0.959,0.429-0.959,0.959c0,53.069-1.279,62.169,4.928,68.866
	c7.077,7.855,17.607,11.017,32.681,11.017c15.078,0,25.409-3.162,32.539-11.017c3.874-4.203,5.085-11.253,5.085-21.479v-47.385
	c0-0.53-0.43-0.959-0.959-0.959h-16.305c-0.53,0-0.959,0.429-0.959,0.959v46.976c0,14.114-4.322,19.991-19.4,19.991
	c-15.074,0-19.53-5.877-19.53-19.991v-46.976C117.539,427.551,117.11,427.122,116.58,427.122z"/>
<path d="M233.592,427.115h-18.075c-0.375,0-0.716,0.219-0.872,0.56c-37.883,82.657-37.046,79.433-34.91,79.433
	c17.56,0,17.637,0.38,18.034-0.599c7.543-18.618,7.119-18.443,8.119-18.443h36.314c0.387,0,0.735,0.232,0.885,0.589
	c7.796,18.617,7.366,18.453,8.366,18.453h18.143c2.085,0,3.073,3.413-35.131-79.435
	C234.307,427.333,233.967,427.115,233.592,427.115z M235.496,473.808H212.58c-0.683,0-1.147-0.694-0.887-1.325l11.258-27.272
	c0.324-0.786,1.435-0.793,1.769-0.011l11.658,27.272C236.648,473.104,236.184,473.808,235.496,473.808z"/>
<path d="M310.092,507.108c1.05,0-0.102,3.094,16.012-56.524c0.251-0.928,1.559-0.951,1.843-0.033
	c18.354,59.41,17.135,56.557,18.18,56.557h20.939c0.413,0,0.779-0.264,0.91-0.655c27.7-82.896,27.079-79.337,25.179-79.337h-16.609
	c-0.422,0-0.795,0.276-0.918,0.68l-17.593,57.859c-0.274,0.902-1.549,0.909-1.833,0.01l-18.255-57.878
	c-0.126-0.399-0.496-0.671-0.915-0.671h-20.045c-0.432,0-0.811,0.289-0.925,0.706l-15.83,57.712
	c-0.252,0.918-1.542,0.948-1.837,0.043l-18.836-57.799c-0.129-0.395-0.497-0.662-0.912-0.662h-17.482
	c-0.665,0-1.128,0.659-0.902,1.285l28.155,78.074C288.779,507.474,288.483,507.108,310.092,507.108z"/>
<path d="M439.526,441.07h28.929c0.53,0,0.959-0.429,0.959-0.959v-12.037c0-0.53-0.43-0.959-0.959-0.959h-29.304
	c-27.846,0-40.742,13.192-40.742,41.458c0,14.483,4.336,24.972,13.258,31.509c8.433,6.219,16.517,7.024,27.003,7.024
	c31.616,0,30.744,0.368,30.744-0.959V494.15c0-0.53-0.43-0.959-0.959-0.959h-28.929c-13.993,0-20.202-5.029-20.598-18.622
	c-0.016-0.538,0.424-0.986,0.962-0.986h48.564c0.53,0,0.959-0.43,0.959-0.959v-12.036c0-0.53-0.43-0.959-0.959-0.959h-48.385
	c-0.559,0-1.01-0.481-0.96-1.038C420.158,446.749,426.741,441.07,439.526,441.07z"/>
<path d="M504.488,506.142v-78.068c0-0.53-0.429-0.959-0.959-0.959h-17.092c-0.53,0-0.959,0.429-0.959,0.959
	c0,82.89-0.412,79.027,0.959,79.027C504.394,507.101,504.488,507.428,504.488,506.142z"/>
<g>
</g>
<g>
</g>
<g>
</g>
<g>
</g>
<g>
</g>
<g>
</g>
<g>
</g>
<g>
</g>
<g>
</g>
<g>
</g>
<g>
</g>
<g>
</g>
<g>
</g>
<g>
</g>
<g>
</g>
</svg>
