<svg clip-rule="evenodd" fill-rule="evenodd" height="512" stroke-linejoin="round" stroke-miterlimit="2" viewBox="0 0 32 32" width="512" xmlns="http://www.w3.org/2000/svg"><g><path d="m23.5 5c0-1.105-.895-2-2-2-2.871 0-8.129 0-11 0-1.105 0-2 .895-2 2v22c0 1.105.895 2 2 2h11c1.105 0 2-.895 2-2 0-4.843 0-17.157 0-22z" fill="#2dbbff"/><path d="m14.939 19.527c-.195.195-.512.195-.707 0s-.195-.512 0-.707l4.243-4.243c.195-.195.512-.195.707 0s.195.512 0 .707zm-.909-1.919c-.195.195-.512.195-.707 0s-.195-.512 0-.707l3.233-3.233c.195-.195.511-.195.707 0 .195.195.195.512 0 .707z" fill="#8edaff"/><path d="m14 5.5c-.276 0-.5-.224-.5-.5s.224-.5.5-.5h4c.276 0 .5.224.5.5s-.224.5-.5.5z" fill="#707070"/><path d="m8.5 24.301h9.651c1.045 0 1.892-.847 1.892-1.892v-19.409h1.457c1.105 0 2 .895 2 2v22c0 1.105-.895 2-2 2h-11c-1.105 0-2-.895-2-2z" fill="#0ab0ff"/><path d="m24 5v22c0 1.381-1.119 2.5-2.5 2.5h-11c-1.381 0-2.5-1.119-2.5-2.5v-22c0-1.381 1.119-2.5 2.5-2.5h11c1.381 0 2.5 1.119 2.5 2.5zm-1 0c0-.828-.672-1.5-1.5-1.5h-11c-.828 0-1.5.672-1.5 1.5v22c0 .828.672 1.5 1.5 1.5h11c.828 0 1.5-.672 1.5-1.5z" fill="#707070"/><path d="m20.043 2.5h1.457c1.381 0 2.5 1.119 2.5 2.5v22c0 1.381-1.119 2.5-2.5 2.5h-11c-1.381 0-2.5-1.119-2.5-2.5v-2.699h1v2.699c0 .828.672 1.5 1.5 1.5h11c.828 0 1.5-.672 1.5-1.5v-22c0-.828-.672-1.5-1.5-1.5h-1.457z" fill="#595959"/><path d="m24 5v22c0 1.381-1.119 2.5-2.5 2.5h-11c-1.381 0-2.5-1.119-2.5-2.5v-22c0-1.381 1.119-2.5 2.5-2.5h11c1.381 0 2.5 1.119 2.5 2.5zm-1 0c0-.828-.672-1.5-1.5-1.5h-11c-.828 0-1.5.672-1.5 1.5v22c0 .828.672 1.5 1.5 1.5h11c.828 0 1.5-.672 1.5-1.5zm-9 .5c-.276 0-.5-.224-.5-.5s.224-.5.5-.5h4c.276 0 .5.224.5.5s-.224.5-.5.5z" fill="#272a3b"/></g></svg>