<?xml version="1.0" encoding="iso-8859-1"?>
<!-- Generator: Adobe Illustrator 21.0.0, SVG Export Plug-In . SVG Version: 6.00 Build 0)  -->
<svg xmlns="http://www.w3.org/2000/svg" xmlns:xlink="http://www.w3.org/1999/xlink" version="1.1" id="Capa_1" x="0px" y="0px" viewBox="0 0 512.088 512.088" style="enable-background:new 0 0 512.088 512.088;" xml:space="preserve" width="512" height="512">
<g>
	<path style="fill:#E0E0E0;" d="M408.074,504.588h-304.06c-20.103,0-36.399-16.296-36.399-36.399V43.899   c0-20.102,16.296-36.399,36.399-36.399h304.06c20.103,0,36.399,16.296,36.399,36.399v424.29   C444.473,488.292,428.176,504.588,408.074,504.588z"/>
	<path style="fill:#C4C4C4;" d="M408.074,7.5h-27c20.103,0,36.399,16.296,36.399,36.399v424.29   c0,20.103-16.296,36.399-36.399,36.399h27c20.103,0,36.399-16.296,36.399-36.399V43.899C444.473,23.796,428.176,7.5,408.074,7.5z"/>
	<rect x="97.479" y="61.438" style="fill:#66BAEA;" width="317.13" height="370.581"/>
	<rect x="387.609" y="61.438" style="fill:#3AAAE4;" width="27" height="370.581"/>
	<circle style="fill:#67676B;" cx="256.044" cy="466.529" r="15.348"/>
	<g>
		<path d="M408.074,0h-304.06C79.808,0,60.115,19.693,60.115,43.899v26.4c0,4.142,3.358,7.5,7.5,7.5s7.5-3.358,7.5-7.5v-26.4    C75.115,27.964,88.079,15,104.014,15h304.06c15.935,0,28.899,12.964,28.899,28.899v424.29c0,15.935-12.964,28.899-28.899,28.899    h-304.06c-15.935,0-28.899-12.964-28.899-28.899v-367.89c0-4.142-3.358-7.5-7.5-7.5s-7.5,3.358-7.5,7.5v367.89    c0,24.206,19.693,43.899,43.899,43.899h304.06c24.206,0,43.899-19.693,43.899-43.899V43.899C451.973,19.693,432.28,0,408.074,0z"/>
		<path d="M89.979,61.438v283.378c0,4.142,3.358,7.5,7.5,7.5c4.142,0,7.5-3.358,7.5-7.5V68.938h302.13v102.854    c0,4.142,3.358,7.5,7.5,7.5c4.142,0,7.5-3.358,7.5-7.5V61.438c0-4.142-3.358-7.5-7.5-7.5H97.479    C93.336,53.938,89.979,57.296,89.979,61.438z"/>
		<path d="M89.979,432.02c0,4.142,3.358,7.5,7.5,7.5h317.13c4.142,0,7.5-3.358,7.5-7.5V201.792c0-4.142-3.358-7.5-7.5-7.5    c-4.142,0-7.5,3.358-7.5,7.5V424.52h-302.13v-49.703c0-4.142-3.358-7.5-7.5-7.5c-4.142,0-7.5,3.358-7.5,7.5V432.02z"/>
		<path d="M233.196,466.529c0,12.599,10.249,22.848,22.848,22.848c12.599,0,22.848-10.249,22.848-22.848    c0-12.598-10.25-22.848-22.848-22.848C243.445,443.681,233.196,453.931,233.196,466.529z M263.892,466.529    c0,4.328-3.521,7.848-7.848,7.848c-4.328,0-7.848-3.52-7.848-7.848c0-4.327,3.52-7.848,7.848-7.848    C260.371,458.681,263.892,462.202,263.892,466.529z"/>
		<path d="M288.448,41.817c4.142,0,7.5-3.358,7.5-7.5c0-4.142-3.358-7.5-7.5-7.5h-34.184c-4.142,0-7.5,3.358-7.5,7.5    c0,4.142,3.358,7.5,7.5,7.5H288.448z"/>
		<circle cx="225.637" cy="34.285" r="7.5"/>
	</g>
</g>















</svg>
