<svg id="Capa_1" enable-background="new 0 0 512 512" height="512" viewBox="0 0 512 512" width="512" xmlns="http://www.w3.org/2000/svg"><g><path d="m406 249.5-24.896 187.789 39.904-60.179c9.777-14.746 14.992-32.046 14.992-49.738v-47.872z" fill="#424247"/><path d="m241 37.5v60h30v-60l-15-15z" fill="#2c2c2f"/><path d="m241 7.5h30v30h-30z" fill="#424247"/><path d="m308.5 67.5h-52.5l-30 210h112.5z" fill="#35cb70"/><path d="m203.5 67.5-30 210h82.5v-210z" fill="#2ff761"/><path d="m406 157.5v-30l-30-27.692-66.411 223.966 84.951-56.634z" fill="#2c2c2f"/><path d="m309.589 267.14-53.589 237.36c49.07 0 92.633-23.564 120-59.991l18.54-177.369z" fill="#424247"/><path d="m121 259.5 15 185.009c27.367 36.427 70.93 59.991 120 59.991 66.274 0 120-67.157 120-150l15-95z" fill="#58585e"/><path d="m376 187.5v-87.692l-67.5-62.308v157.5c0 28.949-23.552 52.5-52.5 52.5-28.949 0-52.5-23.551-52.5-52.5v-157.5l-97.5 90v132l120 80 30-15 30 15 112.5-75z" fill="#424247"/><path d="m76 279.5v47.872c0 17.692 5.215 34.992 14.992 49.737l39.904 60.179v-262.788z" fill="#58585e"/><path d="m136 219.5-30-62-30 30v92z" fill="#6e6e76"/><path d="m106 157.5v197c0 33.773 11.164 64.937 30 90.009v-257.009c0-16.569-13.431-30-30-30z" fill="#2ff761"/><path d="m376 187.5v257.009c18.836-25.072 30-56.236 30-90.009v-197c-16.569 0-30 13.431-30 30z" fill="#35cb70"/><path d="m256 127.5c-12.426 0-22.5 10.074-22.5 22.5v45c0 12.426 10.074 22.5 22.5 22.5s22.5-10.074 22.5-22.5v-45c0-12.426-10.074-22.5-22.5-22.5z" fill="#6e6e76"/><path d="m441.304 274.197-27.804-27.804v-118.893c0-2.093-.875-4.091-2.413-5.511l-97.5-90c-2.188-2.02-5.366-2.555-8.095-1.359-2.729 1.194-4.492 3.891-4.492 6.87v22.5h-22.5v-52.5c0-4.142-3.357-7.5-7.5-7.5s-7.5 3.358-7.5 7.5v52.5h-15v-52.5c0-4.142-3.358-7.5-7.5-7.5s-7.5 3.358-7.5 7.5v52.5h-22.5v-22.5c0-2.979-1.763-5.676-4.492-6.87-2.728-1.195-5.906-.661-8.095 1.359l-97.5 90c-1.538 1.42-2.413 3.418-2.413 5.511v26.894l-27.803 27.803c-1.407 1.406-2.197 3.314-2.197 5.303v139.872c0 19.226 5.616 37.858 16.241 53.881l39.965 60.139c28.234 42.519 76.542 70.608 131.294 70.608s103.06-28.089 131.293-70.607l39.965-60.139c10.625-16.023 16.241-34.656 16.241-53.881v-47.873c.001-1.989-.789-3.897-2.195-5.303zm-57.804 143.89v-230.587c0-9.777 6.271-18.114 15-21.21v188.21c0 22.838-5.409 44.434-15 63.587zm-127.5-283.087c8.271 0 15 6.729 15 15v45c0 8.271-6.729 15-15 15s-15-6.729-15-15v-45c0-8.271 6.729-15 15-15zm7.5 89.051c12.925-3.339 22.5-15.098 22.5-29.051v-45c0-13.953-9.575-25.712-22.5-29.051v-45.949h37.5v120c0 22.257-16.246 40.781-37.5 44.363zm-67.5-169.421v110.37c0 4.142 3.358 7.5 7.5 7.5s7.5-3.358 7.5-7.5v-90h37.5v45.949c-12.925 3.339-22.5 15.098-22.5 29.051v45c0 13.953 9.575 25.712 22.5 29.051v15.312c-21.254-3.582-37.5-22.106-37.5-44.363 0-4.142-3.358-7.5-7.5-7.5s-7.5 3.358-7.5 7.5c0 33.084 26.916 60 60 60s60-26.916 60-60v-140.37l82.5 76.154v19.971c-17.096 3.484-30 18.635-30 36.745v87.986l-83.039 55.359-26.106-13.053c-2.111-1.056-4.597-1.056-6.708 0l-26.107 13.053-83.04-55.359v-87.986c0-18.11-12.904-33.261-30-36.745v-19.971zm-82.5 299.87v-188.194c8.726 3.098 15 11.42 15 21.194v230.586c-9.591-19.152-15-40.748-15-63.586zm-15-178.894v70.787l-15 15v-70.787zm-1.258 197.358c-8.99-13.559-13.742-29.324-13.742-45.592v-44.766l15-15v86.894c0 7.769.575 15.404 1.667 22.875zm158.758 124.036c-45.68 0-86.404-21.61-112.5-55.139v-148.347l78.34 52.227c2.239 1.493 5.106 1.671 7.514.468l26.646-13.324 26.646 13.323c1.06.53 2.209.792 3.354.792 1.457 0 2.907-.424 4.161-1.26l78.34-52.227v148.348c-26.097 33.529-66.82 55.139-112.501 55.139zm172.5-169.628c0 16.268-4.752 32.033-13.743 45.592l-2.923 4.409c1.092-7.47 1.666-15.105 1.666-22.873v-86.893l15 15z"/></g></svg>