<svg id="Layer_1" enable-background="new 0 0 150 150" height="512" viewBox="0 0 150 150" width="512" xmlns="http://www.w3.org/2000/svg"><g><g><path d="m132 100.0066986h-114c-3.8660002 0-7-3.1339951-7-7v-66.3816986c0-3.8659992 3.1339998-7 7-7h114c3.8659973 0 7 3.1340008 7 7v66.3816986c0 3.866005-3.1340027 7-7 7z" fill="#9b9fb1"/></g><g><path d="m132 19.625h-1.6667023c3.8659973 0 7 3.1340008 7 7v66.3816986c0 3.8658981-3.1340027 7-7 7h1.6667023c3.8659973 0 7-3.1341019 7-7v-66.3816986c0-3.8659992-3.1340027-7-7-7z" fill="#888b9b"/></g><g><path d="m18 19.625h1.6667004c-3.8660002 0-7 3.1340008-7 7v66.3816986c0 3.8658981 3.1339998 7 7 7h-1.6667004c-3.8660002 0-7-3.1341019-7-7v-66.3816986c0-3.8659992 3.1339998-7 7-7z" fill="#d3d4dc"/></g><g><path d="m16 25.096h118v69.44h-118z" fill="#1fafeb"/></g><g><path d="m16 25.096h118v5.16h-118z" fill="#1b99ce"/></g><g><path d="m48.25 94.5360031h-18l74.25-69.440403h18z" fill="#83d3f4"/></g><g><path d="m116.9822006 30.2560005 5.5177994-5.1604004h-18l-5.5177994 5.1604004z" fill="#73b9d6"/></g><g><path d="m59.75 94.5360031h-6l74.25-69.440403h6z" fill="#83d3f4"/></g><g><path d="m128.482193 30.2560005 5.517807-5.1604004h-6l-5.5177994 5.1604004z" fill="#73b9d6"/></g><g><path d="m61.375 100.007h27.25v11.618h-27.25z" fill="#888b9b"/></g><g><path d="m61.375 100.007h27.25v3.368h-27.25z" fill="#61636f"/></g><g><path d="m90.4567032 111.625h-30.9134026c-3.4757004 0-6.2933006 2.8175964-6.2933006 6.2932968v.0634995h43.5v-.0634995c0-3.4757004-2.8175964-6.2932968-6.2932968-6.2932968z" fill="#747785"/><path d="m96.75 118.9819336h-43.5c-.5527344 0-1-.4477539-1-1 0-4.0849609 3.2714844-7.3569336 7.2929688-7.3569336h30.9140625c4.0214844 0 7.2929688 3.2719727 7.2929688 7.293457-.0000001.5522461-.4472657 1.0634766-1.0000001 1.0634766zm-42.4169922-2h41.3261719c-.4609375-2.4960938-2.6181641-4.3569336-5.2021484-4.3569336h-30.9140625c-2.5996094 0-4.7666016 1.8833008-5.209961 4.3569336z" fill="#231f20"/></g><g><path d="m88.625 112.625h-27.25c-.5527344 0-1-.4477539-1-1v-11.6181641c0-.5522461.4472656-1 1-1h27.25c.5527344 0 1 .4477539 1 1v11.6181641c0 .5522461-.4472656 1-1 1zm-26.25-2h25.25v-9.6181641h-25.25z" fill="#231f20"/></g><g><path d="m134 95.5361328h-118c-.5527344 0-1-.4477539-1-1v-69.4404297c0-.5522461.4472656-1 1-1h118c.5527344 0 1 .4477539 1 1v69.4404297c0 .5522461-.4472656 1-1 1zm-117-2h116v-67.4404297h-116z" fill="#231f20"/></g><g><path d="m132 101.0068359h-114c-4.4111328 0-8-3.5888672-8-8v-66.3818359c0-4.4111328 3.5888672-8 8-8h114c4.4111328 0 8 3.5888672 8 8v66.3818359c0 4.4111329-3.5888672 8-8 8zm-114-80.3818359c-3.3085938 0-6 2.6914063-6 6v66.3818359c0 3.3085938 2.6914063 6 6 6h114c3.3085938 0 6-2.6914063 6-6v-66.3818359c0-3.3085938-2.6914063-6-6-6z" fill="#231f20"/></g><g><path d="m107.3271484 128.125h-72.3271484c-.5527344 0-1-.4477539-1-1s.4472656-1 1-1h72.3271484c3.6796875 0 6.6728516-2.9931641 6.6728516-6.6723633v-.1552734c0-3.6791992-2.9931641-6.6723633-6.6728516-6.6723633h-15.3271484c-.5527344 0-1-.4477539-1-1s.4472656-1 1-1h15.3271484c4.7822266 0 8.6728516 3.890625 8.6728516 8.6723633v.1552734c0 4.7817383-3.890625 8.6723633-8.6728516 8.6723633z" fill="#231f20"/></g><g><path d="m33.2825012 130.375h-3.2825012v-6.5h3.2825012c1.7770004 0 3.2174988 1.4404984 3.2174988 3.2174988v.0650024c0 1.7769928-1.4404984 3.2174988-3.2174988 3.2174988z" fill="#575d72"/><path d="m33.2822266 131.375h-3.2822266c-.5527344 0-1-.4477539-1-1v-6.5c0-.5522461.4472656-1 1-1h3.2822266c2.3251953 0 4.2177734 1.8920898 4.2177734 4.2172852 0 2.390625-1.8925781 4.2827148-4.2177734 4.2827148zm-2.2822266-2h2.2822266c1.2226563 0 2.2177734-.9946289 2.2177734-2.2172852 0-1.2880859-.9951172-2.2827148-2.2177734-2.2827148h-2.2822266z" fill="#231f20"/></g><g><g><path d="m30 125.625h-3.375c-.5527344 0-1-.4477539-1-1s.4472656-1 1-1h3.375c.5527344 0 1 .4477539 1 1s-.4472656 1-1 1z" fill="#231f20"/></g><g><path d="m30 130.625h-3.375c-.5527344 0-1-.4477539-1-1s.4472656-1 1-1h3.375c.5527344 0 1 .4477539 1 1s-.4472656 1-1 1z" fill="#231f20"/></g></g></g></svg>