<svg id="Layer_1" enable-background="new 0 0 74 74" height="512" viewBox="0 0 74 74" width="512" xmlns="http://www.w3.org/2000/svg"><g><g><g><path d="m22.13 23.47c-.28 0-.5-.22-.5-.5v-3.66c0-2.05 1.67-3.71 3.71-3.71h31.09c.59 0 1.06-.48 1.06-1.06v-4.15c0-.28.22-.5.5-.5s.5.22.5.5v4.15c0 1.14-.93 2.06-2.06 2.06h-31.08c-1.5 0-2.71 1.22-2.71 2.71v3.66c-.01.28-.23.5-.51.5z"/></g></g><g><path d="m69 28.34v31.98c0 1.82-1.48 3.3-3.3 3.3h-18.95c-.78 0-1.53-.28-2.13-.78l-4.74-4c-.6-.5-1.35-.78-2.13-.78h-29.45c-1.82 0-3.3-1.48-3.3-3.3v-26.42c0-1.82 1.48-3.3 3.3-3.3h57.4c1.82 0 3.3 1.48 3.3 3.3z" fill="#4a4b98"/></g><g><path d="m65.7 64.12h-18.95c-.9 0-1.77-.32-2.45-.9l-4.74-4c-.5-.43-1.15-.66-1.81-.66h-29.45c-2.1 0-3.8-1.71-3.8-3.8v-26.42c0-2.1 1.71-3.8 3.8-3.8h57.4c2.1 0 3.8 1.71 3.8 3.8v31.98c0 2.09-1.71 3.8-3.8 3.8zm-57.4-38.58c-1.54 0-2.8 1.26-2.8 2.8v26.42c0 1.54 1.26 2.8 2.8 2.8h29.45c.9 0 1.77.32 2.45.9l4.74 4c.5.43 1.15.66 1.81.66h18.95c1.54 0 2.8-1.26 2.8-2.8v-31.98c0-1.54-1.26-2.8-2.8-2.8z"/></g><g opacity=".1"><g><path d="m65.7 25.04h-.94v1.61c0 16.04-13.01 29.05-29.05 29.05h-30.56c.41 1.36 1.65 2.36 3.15 2.36h29.45c.78 0 1.53.28 2.13.78l4.74 4c.6.5 1.35.78 2.13.78h18.95c1.82 0 3.3-1.48 3.3-3.3v-31.98c0-1.82-1.48-3.3-3.3-3.3z"/></g></g><g><g><path d="m14.84 29.38v2.99c0 .61-.5 1.11-1.11 1.11h-2.99c-.61 0-1.11-.5-1.11-1.11v-2.99c0-.61.5-1.11 1.11-1.11h2.99c.62.01 1.11.5 1.11 1.11z" fill="#df1c1c"/></g><g><path d="m23.1 29.38v2.99c0 .61-.5 1.11-1.11 1.11h-2.99c-.61 0-1.11-.5-1.11-1.11v-2.99c0-.61.5-1.11 1.11-1.11h2.99c.61.01 1.11.5 1.11 1.11z" fill="#fcbb34"/></g><g><path d="m31.35 29.38v2.99c0 .61-.5 1.11-1.11 1.11h-2.99c-.61 0-1.11-.5-1.11-1.11v-2.99c0-.61.5-1.11 1.11-1.11h2.99c.61.01 1.11.5 1.11 1.11z" fill="#fcbb34"/></g><g><path d="m39.6 29.38v2.99c0 .61-.5 1.11-1.11 1.11h-2.99c-.61 0-1.11-.5-1.11-1.11v-2.99c0-.61.5-1.11 1.11-1.11h2.99c.62.01 1.11.5 1.11 1.11z" fill="#02b9ef"/></g><g><path d="m47.86 29.38v2.99c0 .61-.5 1.11-1.11 1.11h-2.99c-.61 0-1.11-.5-1.11-1.11v-2.99c0-.61.5-1.11 1.11-1.11h2.99c.61.01 1.11.5 1.11 1.11z" fill="#02b9ef"/></g><g><path d="m56.11 29.38v2.99c0 .61-.5 1.11-1.11 1.11h-2.99c-.61 0-1.11-.5-1.11-1.11v-2.99c0-.61.5-1.11 1.11-1.11h2.99c.61.01 1.11.5 1.11 1.11z" fill="#ff51b7"/></g><g><path d="m64.36 29.38v2.99c0 .61-.5 1.11-1.11 1.11h-2.99c-.61 0-1.11-.5-1.11-1.11v-2.99c0-.61.5-1.11 1.11-1.11h2.99c.62.01 1.11.5 1.11 1.11z" fill="#ff51b7"/></g><g><path d="m14.84 36.5v2.99c0 .61-.5 1.11-1.11 1.11h-2.99c-.61 0-1.11-.5-1.11-1.11v-2.99c0-.61.5-1.11 1.11-1.11h2.99c.62 0 1.11.49 1.11 1.11z" fill="#df1c1c"/></g><g><path d="m23.1 36.5v2.99c0 .61-.5 1.11-1.11 1.11h-2.99c-.61 0-1.11-.5-1.11-1.11v-2.99c0-.61.5-1.11 1.11-1.11h2.99c.61 0 1.11.49 1.11 1.11z" fill="#fcbb34"/></g><g><path d="m31.35 36.5v2.99c0 .61-.5 1.11-1.11 1.11h-2.99c-.61 0-1.11-.5-1.11-1.11v-2.99c0-.61.5-1.11 1.11-1.11h2.99c.61 0 1.11.49 1.11 1.11z" fill="#fcbb34"/></g><g><path d="m39.6 36.5v2.99c0 .61-.5 1.11-1.11 1.11h-2.99c-.61 0-1.11-.5-1.11-1.11v-2.99c0-.61.5-1.11 1.11-1.11h2.99c.62 0 1.11.49 1.11 1.11z" fill="#02b9ef"/></g><g><path d="m47.86 36.5v2.99c0 .61-.5 1.11-1.11 1.11h-2.99c-.61 0-1.11-.5-1.11-1.11v-2.99c0-.61.5-1.11 1.11-1.11h2.99c.61 0 1.11.49 1.11 1.11z" fill="#02b9ef"/></g><g><path d="m56.11 36.5v2.99c0 .61-.5 1.11-1.11 1.11h-2.99c-.61 0-1.11-.5-1.11-1.11v-2.99c0-.61.5-1.11 1.11-1.11h2.99c.61 0 1.11.49 1.11 1.11z" fill="#ff51b7"/></g><g><path d="m64.36 36.5v2.99c0 .61-.5 1.11-1.11 1.11h-2.99c-.61 0-1.11-.5-1.11-1.11v-2.99c0-.61.5-1.11 1.11-1.11h2.99c.62 0 1.11.49 1.11 1.11z" fill="#ff51b7"/></g><g><path d="m14.84 43.61v2.99c0 .61-.5 1.11-1.11 1.11h-2.99c-.61 0-1.11-.5-1.11-1.11v-2.99c0-.61.5-1.11 1.11-1.11h2.99c.62 0 1.11.5 1.11 1.11z" fill="#df1c1c"/></g><g><path d="m23.1 43.61v2.99c0 .61-.5 1.11-1.11 1.11h-2.99c-.61 0-1.11-.5-1.11-1.11v-2.99c0-.61.5-1.11 1.11-1.11h2.99c.61 0 1.11.5 1.11 1.11z" fill="#df1c1c"/></g><g><path d="m31.35 43.61v2.99c0 .61-.5 1.11-1.11 1.11h-2.99c-.61 0-1.11-.5-1.11-1.11v-2.99c0-.61.5-1.11 1.11-1.11h2.99c.61 0 1.11.5 1.11 1.11z" fill="#fcbb34"/></g><g><path d="m39.6 43.61v2.99c0 .61-.5 1.11-1.11 1.11h-2.99c-.61 0-1.11-.5-1.11-1.11v-2.99c0-.61.5-1.11 1.11-1.11h2.99c.62 0 1.11.5 1.11 1.11z" fill="#02b9ef"/></g><g><path d="m47.86 43.61v2.99c0 .61-.5 1.11-1.11 1.11h-2.99c-.61 0-1.11-.5-1.11-1.11v-2.99c0-.61.5-1.11 1.11-1.11h2.99c.61 0 1.11.5 1.11 1.11z" fill="#02b9ef"/></g><g><path d="m56.11 43.61v2.99c0 .61-.5 1.11-1.11 1.11h-2.99c-.61 0-1.11-.5-1.11-1.11v-2.99c0-.61.5-1.11 1.11-1.11h2.99c.61 0 1.11.5 1.11 1.11z" fill="#ff51b7"/></g><g><path d="m64.36 43.61v2.99c0 .61-.5 1.11-1.11 1.11h-2.99c-.61 0-1.11-.5-1.11-1.11v-2.99c0-.61.5-1.11 1.11-1.11h2.99c.62 0 1.11.5 1.11 1.11z" fill="#ff51b7"/></g><g opacity=".1"><g><path d="m64.36 29.39v2.99c0 .61-.49 1.11-1.11 1.11h-2.99c-.53 0-.97-.36-1.09-.86.1.03.21.05.33.05 2.26 0 4.09-1.83 4.09-4.09 0-.08-.02-.18-.03-.26.47.12.8.55.8 1.06z"/></g></g><g opacity=".1"><g><path d="m64.36 36.49v3c0 .61-.49 1.11-1.11 1.11h-2.99c-.53 0-.96-.36-1.07-.84.1.03.2.05.31.05 2.26 0 4.09-1.83 4.09-4.09 0-.1-.02-.18-.03-.28.47.12.8.55.8 1.05z"/></g></g><g opacity=".1"><g><path d="m64.36 43.6v3c0 .61-.49 1.11-1.11 1.11h-2.99c-.51 0-.94-.35-1.07-.83.1.03.2.05.31.05 2.26 0 4.09-1.83 4.09-4.11 0-.1-.02-.18-.03-.28.47.14.8.57.8 1.06z"/></g></g><g><path d="m14.84 50.72v2.99c0 .61-.5 1.11-1.11 1.11h-2.99c-.61 0-1.11-.5-1.11-1.11v-2.99c0-.61.5-1.11 1.11-1.11h2.99c.62 0 1.11.5 1.11 1.11z" fill="#df1c1c"/></g><g><path d="m23.1 50.72v2.99c0 .61-.5 1.11-1.11 1.11h-2.99c-.61 0-1.11-.5-1.11-1.11v-2.99c0-.61.5-1.11 1.11-1.11h2.99c.61 0 1.11.5 1.11 1.11z" fill="#df1c1c"/></g><g><path d="m13.74 33.98h-2.99c-.89 0-1.61-.72-1.61-1.61v-2.99c0-.89.72-1.61 1.61-1.61h2.99c.89 0 1.61.72 1.61 1.61v2.99c-.01.89-.73 1.61-1.61 1.61zm-2.99-5.2c-.33 0-.61.27-.61.61v2.99c0 .33.27.61.61.61h2.99c.33 0 .61-.27.61-.61v-2.99c0-.33-.27-.61-.61-.61z"/></g><g><path d="m13.74 41.09h-2.99c-.89 0-1.61-.72-1.61-1.61v-2.98c0-.89.72-1.61 1.61-1.61h2.99c.89 0 1.61.72 1.61 1.61v2.99c-.01.88-.73 1.6-1.61 1.6zm-2.99-5.2c-.33 0-.61.27-.61.61v2.99c0 .33.27.61.61.61h2.99c.33 0 .61-.27.61-.61v-2.99c0-.33-.27-.61-.61-.61z"/></g><g><path d="m13.74 48.21h-2.99c-.89 0-1.61-.72-1.61-1.61v-2.99c0-.89.72-1.61 1.61-1.61h2.99c.89 0 1.61.72 1.61 1.61v2.99c-.01.88-.73 1.61-1.61 1.61zm-2.99-5.21c-.33 0-.61.27-.61.61v2.99c0 .33.27.61.61.61h2.99c.33 0 .61-.27.61-.61v-2.99c0-.33-.27-.61-.61-.61z"/></g><g><path d="m21.99 48.21h-2.99c-.89 0-1.61-.72-1.61-1.61v-2.99c0-.89.72-1.61 1.61-1.61h2.99c.89 0 1.61.72 1.61 1.61v2.99c0 .88-.72 1.61-1.61 1.61zm-2.99-5.21c-.33 0-.61.27-.61.61v2.99c0 .33.27.61.61.61h2.99c.33 0 .61-.27.61-.61v-2.99c0-.33-.27-.61-.61-.61z"/></g><g><path d="m13.74 55.32h-2.99c-.89 0-1.61-.72-1.61-1.61v-2.99c0-.89.72-1.61 1.61-1.61h2.99c.89 0 1.61.72 1.61 1.61v2.99c-.01.89-.73 1.61-1.61 1.61zm-2.99-5.21c-.33 0-.61.27-.61.61v2.99c0 .33.27.61.61.61h2.99c.33 0 .61-.27.61-.61v-2.99c0-.33-.27-.61-.61-.61z"/></g><g><path d="m21.99 55.32h-2.99c-.89 0-1.61-.72-1.61-1.61v-2.99c0-.89.72-1.61 1.61-1.61h2.99c.89 0 1.61.72 1.61 1.61v2.99c0 .89-.72 1.61-1.61 1.61zm-2.99-5.21c-.33 0-.61.27-.61.61v2.99c0 .33.27.61.61.61h2.99c.33 0 .61-.27.61-.61v-2.99c0-.33-.27-.61-.61-.61z"/></g><g><path d="m31.35 50.72v2.99c0 .61-.5 1.11-1.11 1.11h-2.99c-.61 0-1.11-.5-1.11-1.11v-2.99c0-.61.5-1.11 1.11-1.11h2.99c.61 0 1.11.5 1.11 1.11z" fill="#fcbb34"/></g><g><path d="m39.6 50.72v2.99c0 .61-.5 1.11-1.11 1.11h-2.99c-.61 0-1.11-.5-1.11-1.11v-2.99c0-.61.5-1.11 1.11-1.11h2.99c.62 0 1.11.5 1.11 1.11z" fill="#02b9ef"/></g><g><path d="m47.86 50.72v2.99c0 .61-.5 1.11-1.11 1.11h-2.99c-.61 0-1.11-.5-1.11-1.11v-2.99c0-.61.5-1.11 1.11-1.11h2.99c.61 0 1.11.5 1.11 1.11z" fill="#02b9ef"/></g><g><path d="m38.5 33.98h-3c-.89 0-1.61-.72-1.61-1.61v-2.99c0-.89.72-1.61 1.61-1.61h2.99c.89 0 1.61.72 1.61 1.61v2.99c0 .89-.72 1.61-1.6 1.61zm-3-5.2c-.33 0-.61.27-.61.61v2.99c0 .33.27.61.61.61h2.99c.33 0 .61-.27.61-.61v-2.99c0-.33-.27-.61-.61-.61z"/></g><g><path d="m46.75 33.98h-2.99c-.89 0-1.61-.72-1.61-1.61v-2.99c0-.89.72-1.61 1.61-1.61h2.99c.89 0 1.61.72 1.61 1.61v2.99c0 .89-.73 1.61-1.61 1.61zm-2.99-5.2c-.33 0-.61.27-.61.61v2.99c0 .33.27.61.61.61h2.99c.33 0 .61-.27.61-.61v-2.99c0-.33-.27-.61-.61-.61z"/></g><g><path d="m38.5 41.09h-3c-.89 0-1.61-.72-1.61-1.61v-2.98c0-.89.72-1.61 1.61-1.61h2.99c.89 0 1.61.72 1.61 1.61v2.99c0 .88-.72 1.6-1.6 1.6zm-3-5.2c-.33 0-.61.27-.61.61v2.99c0 .33.27.61.61.61h2.99c.33 0 .61-.27.61-.61v-2.99c0-.33-.27-.61-.61-.61z"/></g><g><path d="m46.75 41.09h-2.99c-.89 0-1.61-.72-1.61-1.61v-2.98c0-.89.72-1.61 1.61-1.61h2.99c.89 0 1.61.72 1.61 1.61v2.99c0 .88-.73 1.6-1.61 1.6zm-2.99-5.2c-.33 0-.61.27-.61.61v2.99c0 .33.27.61.61.61h2.99c.33 0 .61-.27.61-.61v-2.99c0-.33-.27-.61-.61-.61z"/></g><g><path d="m38.5 48.21h-3c-.89 0-1.61-.72-1.61-1.61v-2.99c0-.89.72-1.61 1.61-1.61h2.99c.89 0 1.61.72 1.61 1.61v2.99c0 .88-.72 1.61-1.6 1.61zm-3-5.21c-.33 0-.61.27-.61.61v2.99c0 .33.27.61.61.61h2.99c.33 0 .61-.27.61-.61v-2.99c0-.33-.27-.61-.61-.61z"/></g><g><path d="m46.75 48.21h-2.99c-.89 0-1.61-.72-1.61-1.61v-2.99c0-.89.72-1.61 1.61-1.61h2.99c.89 0 1.61.72 1.61 1.61v2.99c0 .88-.73 1.61-1.61 1.61zm-2.99-5.21c-.33 0-.61.27-.61.61v2.99c0 .33.27.61.61.61h2.99c.33 0 .61-.27.61-.61v-2.99c0-.33-.27-.61-.61-.61z"/></g><g><path d="m38.5 55.32h-3c-.89 0-1.61-.72-1.61-1.61v-2.99c0-.89.72-1.61 1.61-1.61h2.99c.89 0 1.61.72 1.61 1.61v2.99c0 .89-.72 1.61-1.6 1.61zm-3-5.21c-.33 0-.61.27-.61.61v2.99c0 .33.27.61.61.61h2.99c.33 0 .61-.27.61-.61v-2.99c0-.33-.27-.61-.61-.61z"/></g><g><path d="m46.75 55.32h-2.99c-.89 0-1.61-.72-1.61-1.61v-2.99c0-.89.72-1.61 1.61-1.61h2.99c.89 0 1.61.72 1.61 1.61v2.99c0 .89-.73 1.61-1.61 1.61zm-2.99-5.21c-.33 0-.61.27-.61.61v2.99c0 .33.27.61.61.61h2.99c.33 0 .61-.27.61-.61v-2.99c0-.33-.27-.61-.61-.61z"/></g><g><path d="m56.11 50.72v2.99c0 .61-.5 1.11-1.11 1.11h-2.99c-.61 0-1.11-.5-1.11-1.11v-2.99c0-.61.5-1.11 1.11-1.11h2.99c.61 0 1.11.5 1.11 1.11z" fill="#ff51b7"/></g><g><path d="m64.36 50.72v2.99c0 .61-.5 1.11-1.11 1.11h-2.99c-.61 0-1.11-.5-1.11-1.11v-2.99c0-.61.5-1.11 1.11-1.11h2.99c.62 0 1.11.5 1.11 1.11z" fill="#ff51b7"/></g><g><path d="m55 33.98h-2.99c-.89 0-1.61-.72-1.61-1.61v-2.99c0-.89.72-1.61 1.61-1.61h2.99c.89 0 1.61.72 1.61 1.61v2.99c0 .89-.72 1.61-1.61 1.61zm-2.99-5.2c-.33 0-.61.27-.61.61v2.99c0 .33.27.61.61.61h2.99c.33 0 .61-.27.61-.61v-2.99c0-.33-.27-.61-.61-.61z"/></g><g><path d="m63.25 33.98h-2.99c-.89 0-1.61-.72-1.61-1.61v-2.99c0-.89.72-1.61 1.61-1.61h2.99c.89 0 1.61.72 1.61 1.61v2.99c0 .89-.72 1.61-1.61 1.61zm-2.99-5.2c-.33 0-.61.27-.61.61v2.99c0 .33.27.61.61.61h2.99c.33 0 .61-.27.61-.61v-2.99c0-.33-.27-.61-.61-.61z"/></g><g><path d="m55 41.09h-2.99c-.89 0-1.61-.72-1.61-1.61v-2.98c0-.89.72-1.61 1.61-1.61h2.99c.89 0 1.61.72 1.61 1.61v2.99c0 .88-.72 1.6-1.61 1.6zm-2.99-5.2c-.33 0-.61.27-.61.61v2.99c0 .33.27.61.61.61h2.99c.33 0 .61-.27.61-.61v-2.99c0-.33-.27-.61-.61-.61z"/></g><g><path d="m63.25 41.09h-2.99c-.89 0-1.61-.72-1.61-1.61v-2.98c0-.89.72-1.61 1.61-1.61h2.99c.89 0 1.61.72 1.61 1.61v2.99c0 .88-.72 1.6-1.61 1.6zm-2.99-5.2c-.33 0-.61.27-.61.61v2.99c0 .33.27.61.61.61h2.99c.33 0 .61-.27.61-.61v-2.99c0-.33-.27-.61-.61-.61z"/></g><g><path d="m55 48.21h-2.99c-.89 0-1.61-.72-1.61-1.61v-2.99c0-.89.72-1.61 1.61-1.61h2.99c.89 0 1.61.72 1.61 1.61v2.99c0 .88-.72 1.61-1.61 1.61zm-2.99-5.21c-.33 0-.61.27-.61.61v2.99c0 .33.27.61.61.61h2.99c.33 0 .61-.27.61-.61v-2.99c0-.33-.27-.61-.61-.61z"/></g><g><path d="m63.25 48.21h-2.99c-.89 0-1.61-.72-1.61-1.61v-2.99c0-.89.72-1.61 1.61-1.61h2.99c.89 0 1.61.72 1.61 1.61v2.99c0 .88-.72 1.61-1.61 1.61zm-2.99-5.21c-.33 0-.61.27-.61.61v2.99c0 .33.27.61.61.61h2.99c.33 0 .61-.27.61-.61v-2.99c0-.33-.27-.61-.61-.61z"/></g><g><path d="m55 55.32h-2.99c-.89 0-1.61-.72-1.61-1.61v-2.99c0-.89.72-1.61 1.61-1.61h2.99c.89 0 1.61.72 1.61 1.61v2.99c0 .89-.72 1.61-1.61 1.61zm-2.99-5.21c-.33 0-.61.27-.61.61v2.99c0 .33.27.61.61.61h2.99c.33 0 .61-.27.61-.61v-2.99c0-.33-.27-.61-.61-.61z"/></g><g><path d="m63.25 55.32h-2.99c-.89 0-1.61-.72-1.61-1.61v-2.99c0-.89.72-1.61 1.61-1.61h2.99c.89 0 1.61.72 1.61 1.61v2.99c0 .89-.72 1.61-1.61 1.61zm-2.99-5.21c-.33 0-.61.27-.61.61v2.99c0 .33.27.61.61.61h2.99c.33 0 .61-.27.61-.61v-2.99c0-.33-.27-.61-.61-.61z"/></g><g opacity=".1"><g><path d="m64.36 50.71v2.99c0 .63-.49 1.12-1.11 1.12h-2.99c-.51 0-.94-.35-1.07-.83.1.03.2.05.31.05 2.26 0 4.09-1.83 4.09-4.09 0-.1-.02-.2-.03-.3.47.14.8.57.8 1.06z"/></g></g><g opacity=".1"><g><path d="m56.1 29.39v2.99c0 .61-.49 1.11-1.11 1.11h-2.99c-.53 0-.97-.36-1.09-.86.1.03.21.05.33.05 2.26 0 4.09-1.83 4.09-4.09 0-.08-.02-.18-.03-.26.47.12.8.55.8 1.06z"/></g></g><g opacity=".1"><g><path d="m56.1 36.49v3c0 .61-.49 1.11-1.11 1.11h-2.99c-.53 0-.96-.36-1.07-.84.1.03.2.05.31.05 2.26 0 4.09-1.83 4.09-4.09 0-.1-.02-.18-.03-.28.47.12.8.55.8 1.05z"/></g></g><g opacity=".1"><g><path d="m56.1 43.6v3c0 .61-.49 1.11-1.11 1.11h-2.99c-.51 0-.94-.35-1.07-.83.1.03.2.05.31.05 2.26 0 4.09-1.83 4.09-4.11 0-.1-.02-.18-.03-.28.47.14.8.57.8 1.06z"/></g></g><g opacity=".1"><g><path d="m56.1 50.71v2.99c0 .63-.49 1.12-1.11 1.12h-2.99c-.51 0-.94-.35-1.07-.83.1.03.2.05.31.05 2.26 0 4.09-1.83 4.09-4.09 0-.1-.02-.2-.03-.3.47.14.8.57.8 1.06z"/></g></g><g opacity=".1"><g><path d="m47.84 29.39v2.99c0 .61-.49 1.11-1.11 1.11h-2.99c-.53 0-.97-.36-1.09-.86.1.03.21.05.33.05 2.26 0 4.09-1.83 4.09-4.09 0-.08-.02-.18-.03-.26.47.12.8.55.8 1.06z"/></g></g><g opacity=".1"><g><path d="m47.84 36.49v3c0 .61-.49 1.11-1.11 1.11h-2.99c-.53 0-.96-.36-1.07-.84.1.03.2.05.31.05 2.26 0 4.09-1.83 4.09-4.09 0-.1-.02-.18-.03-.28.47.12.8.55.8 1.05z"/></g></g><g opacity=".1"><g><path d="m47.84 43.6v3c0 .61-.49 1.11-1.11 1.11h-2.99c-.51 0-.94-.35-1.07-.83.1.03.2.05.31.05 2.26 0 4.09-1.83 4.09-4.11 0-.1-.02-.18-.03-.28.47.14.8.57.8 1.06z"/></g></g><g opacity=".1"><g><path d="m47.84 50.71v2.99c0 .63-.49 1.12-1.11 1.12h-2.99c-.51 0-.94-.35-1.07-.83.1.03.2.05.31.05 2.26 0 4.09-1.83 4.09-4.09 0-.1-.02-.2-.03-.3.47.14.8.57.8 1.06z"/></g></g><g opacity=".1"><g><path d="m39.58 29.39v2.99c0 .61-.49 1.11-1.11 1.11h-2.99c-.53 0-.97-.36-1.09-.86.1.03.21.05.33.05 2.26 0 4.09-1.83 4.09-4.09 0-.08-.02-.18-.03-.26.47.12.8.55.8 1.06z"/></g></g><g opacity=".1"><g><path d="m39.58 36.49v3c0 .61-.49 1.11-1.11 1.11h-2.99c-.53 0-.96-.36-1.07-.84.1.03.2.05.31.05 2.26 0 4.09-1.83 4.09-4.09 0-.1-.02-.18-.03-.28.47.12.8.55.8 1.05z"/></g></g><g opacity=".1"><g><path d="m39.58 43.6v3c0 .61-.49 1.11-1.11 1.11h-2.99c-.51 0-.94-.35-1.07-.83.1.03.2.05.31.05 2.26 0 4.09-1.83 4.09-4.11 0-.1-.02-.18-.03-.28.47.14.8.57.8 1.06z"/></g></g><g opacity=".1"><g><path d="m39.58 50.71v2.99c0 .63-.49 1.12-1.11 1.12h-2.99c-.51 0-.94-.35-1.07-.83.1.03.2.05.31.05 2.26 0 4.09-1.83 4.09-4.09 0-.1-.02-.2-.03-.3.47.14.8.57.8 1.06z"/></g></g><g opacity=".1"><g><path d="m31.32 29.39v2.99c0 .61-.49 1.11-1.11 1.11h-2.99c-.53 0-.97-.36-1.09-.86.1.03.21.05.33.05 2.26 0 4.09-1.83 4.09-4.09 0-.08-.02-.18-.03-.26.47.12.8.55.8 1.06z"/></g></g><g opacity=".1"><g><path d="m31.32 36.49v3c0 .61-.49 1.11-1.11 1.11h-2.99c-.53 0-.96-.36-1.07-.84.1.03.2.05.31.05 2.26 0 4.09-1.83 4.09-4.09 0-.1-.02-.18-.03-.28.47.12.8.55.8 1.05z"/></g></g><g opacity=".1"><g><path d="m31.32 43.6v3c0 .61-.49 1.11-1.11 1.11h-2.99c-.51 0-.94-.35-1.07-.83.1.03.2.05.31.05 2.26 0 4.09-1.83 4.09-4.11 0-.1-.02-.18-.03-.28.47.14.8.57.8 1.06z"/></g></g><g opacity=".1"><g><path d="m31.32 50.71v2.99c0 .63-.49 1.12-1.11 1.12h-2.99c-.51 0-.94-.35-1.07-.83.1.03.2.05.31.05 2.26 0 4.09-1.83 4.09-4.09 0-.1-.02-.2-.03-.3.47.14.8.57.8 1.06z"/></g></g><g opacity=".1"><g><path d="m23.06 29.39v2.99c0 .61-.49 1.11-1.11 1.11h-2.99c-.53 0-.97-.36-1.09-.86.1.03.21.05.33.05 2.26 0 4.09-1.83 4.09-4.09 0-.08-.02-.18-.03-.26.47.12.8.55.8 1.06z"/></g></g><g opacity=".1"><g><path d="m23.06 36.49v3c0 .61-.49 1.11-1.11 1.11h-2.99c-.53 0-.96-.36-1.07-.84.1.03.2.05.31.05 2.26 0 4.09-1.83 4.09-4.09 0-.1-.02-.18-.03-.28.47.12.8.55.8 1.05z"/></g></g><g opacity=".1"><g><path d="m23.06 43.6v3c0 .61-.49 1.11-1.11 1.11h-2.99c-.51 0-.94-.35-1.07-.83.1.03.2.05.31.05 2.26 0 4.09-1.83 4.09-4.11 0-.1-.02-.18-.03-.28.47.14.8.57.8 1.06z"/></g></g><g opacity=".1"><g><path d="m23.06 50.71v2.99c0 .63-.49 1.12-1.11 1.12h-2.99c-.51 0-.94-.35-1.07-.83.1.03.2.05.31.05 2.26 0 4.09-1.83 4.09-4.09 0-.1-.02-.2-.03-.3.47.14.8.57.8 1.06z"/></g></g><g opacity=".1"><g><path d="m14.8 29.39v2.99c0 .61-.49 1.11-1.11 1.11h-2.99c-.53 0-.97-.36-1.09-.86.1.03.21.05.33.05 2.26 0 4.09-1.83 4.09-4.09 0-.08-.02-.18-.03-.26.47.12.8.55.8 1.06z"/></g></g><g opacity=".1"><g><path d="m14.8 36.49v3c0 .61-.49 1.11-1.11 1.11h-2.99c-.53 0-.96-.36-1.07-.84.1.03.2.05.31.05 2.26 0 4.09-1.83 4.09-4.09 0-.1-.02-.18-.03-.28.47.12.8.55.8 1.05z"/></g></g><g opacity=".1"><g><path d="m14.8 43.6v3c0 .61-.49 1.11-1.11 1.11h-2.99c-.51 0-.94-.35-1.07-.83.1.03.2.05.31.05 2.26 0 4.09-1.83 4.09-4.11 0-.1-.02-.18-.03-.28.47.14.8.57.8 1.06z"/></g></g><g opacity=".1"><g><path d="m14.8 50.71v2.99c0 .63-.49 1.12-1.11 1.12h-2.99c-.51 0-.94-.35-1.07-.83.1.03.2.05.31.05 2.26 0 4.09-1.83 4.09-4.09 0-.1-.02-.2-.03-.3.47.14.8.57.8 1.06z"/></g></g></g><g><g><path d="m63.71 58.77h-15.45c-.28 0-.5-.22-.5-.5s.22-.5.5-.5h15.45c.28 0 .5.22.5.5s-.22.5-.5.5z"/></g><g><path d="m63.71 61.26h-15.45c-.28 0-.5-.22-.5-.5s.22-.5.5-.5h15.45c.28 0 .5.22.5.5s-.22.5-.5.5z"/></g></g><g><path d="m27.35 23.06v1.97h-10.44v-1.97c0-.74.6-1.33 1.33-1.33h7.77c.75 0 1.34.6 1.34 1.33z" fill="#336"/></g><g><path d="m27.35 25.54h-10.44c-.28 0-.5-.22-.5-.5v-1.97c0-1.01.82-1.83 1.83-1.83h7.77c1.01 0 1.83.82 1.83 1.83v1.97c.01.27-.21.5-.49.5zm-9.94-1h9.44v-1.47c0-.46-.37-.83-.83-.83h-7.77c-.46 0-.83.37-.83.83v1.47z"/></g><g opacity=".1"><g><path d="m26.02 21.73h-.68c-.48 1.24-1.67 2.07-3 2.07h-5.43v1.24h10.44v-1.97c0-.74-.59-1.34-1.33-1.34z"/></g></g><g><path d="m21.99 33.98h-2.99c-.89 0-1.61-.72-1.61-1.61v-2.99c0-.89.72-1.61 1.61-1.61h2.99c.89 0 1.61.72 1.61 1.61v2.99c0 .89-.72 1.61-1.61 1.61zm-2.99-5.2c-.33 0-.61.27-.61.61v2.99c0 .33.27.61.61.61h2.99c.33 0 .61-.27.61-.61v-2.99c0-.33-.27-.61-.61-.61z"/></g><g><path d="m30.24 33.98h-2.99c-.89 0-1.61-.72-1.61-1.61v-2.99c0-.89.72-1.61 1.61-1.61h2.99c.89 0 1.61.72 1.61 1.61v2.99c0 .89-.72 1.61-1.61 1.61zm-2.99-5.2c-.33 0-.61.27-.61.61v2.99c0 .33.27.61.61.61h2.99c.33 0 .61-.27.61-.61v-2.99c0-.33-.27-.61-.61-.61z"/></g><g><path d="m21.99 41.09h-2.99c-.89 0-1.61-.72-1.61-1.61v-2.98c0-.89.72-1.61 1.61-1.61h2.99c.89 0 1.61.72 1.61 1.61v2.99c0 .88-.72 1.6-1.61 1.6zm-2.99-5.2c-.33 0-.61.27-.61.61v2.99c0 .33.27.61.61.61h2.99c.33 0 .61-.27.61-.61v-2.99c0-.33-.27-.61-.61-.61z"/></g><g><path d="m30.24 41.09h-2.99c-.89 0-1.61-.72-1.61-1.61v-2.98c0-.89.72-1.61 1.61-1.61h2.99c.89 0 1.61.72 1.61 1.61v2.99c0 .88-.72 1.6-1.61 1.6zm-2.99-5.2c-.33 0-.61.27-.61.61v2.99c0 .33.27.61.61.61h2.99c.33 0 .61-.27.61-.61v-2.99c0-.33-.27-.61-.61-.61z"/></g><g><path d="m30.24 48.21h-2.99c-.89 0-1.61-.72-1.61-1.61v-2.99c0-.89.72-1.61 1.61-1.61h2.99c.89 0 1.61.72 1.61 1.61v2.99c0 .88-.72 1.61-1.61 1.61zm-2.99-5.21c-.33 0-.61.27-.61.61v2.99c0 .33.27.61.61.61h2.99c.33 0 .61-.27.61-.61v-2.99c0-.33-.27-.61-.61-.61z"/></g><g><path d="m30.24 55.32h-2.99c-.89 0-1.61-.72-1.61-1.61v-2.99c0-.89.72-1.61 1.61-1.61h2.99c.89 0 1.61.72 1.61 1.61v2.99c0 .89-.72 1.61-1.61 1.61zm-2.99-5.21c-.33 0-.61.27-.61.61v2.99c0 .33.27.61.61.61h2.99c.33 0 .61-.27.61-.61v-2.99c0-.33-.27-.61-.61-.61z"/></g></g></svg>